<svg width="599" height="633" viewBox="0 0 599 633" fill="none" xmlns="http://www.w3.org/2000/svg">
<path d="M626.69 375.067C629.534 337.284 620.746 297.838 608.972 262.729C591.552 210.456 557.538 156.889 500.373 144.518C467.411 137.408 433.867 145.03 405.597 162.89C378.423 180.068 357.249 202.265 323.818 206.56C290.017 210.911 255.334 209.162 221.363 209.162C134.009 209.162 63.1226 300.924 80.8408 396.511C98.5589 492.097 182.116 558.377 253.002 558.377C316.708 558.377 369.123 520.168 429.629 509.901C459.633 504.81 489.765 510.839 519.457 503.217C553.969 494.344 586.419 473.199 605.545 442.583C618.57 421.708 624.912 398.715 626.69 375.067Z" fill="#81C784"/>
<path opacity="0.7" d="M626.69 375.067C629.534 337.284 620.746 297.838 608.972 262.729C591.552 210.456 557.538 156.889 500.373 144.518C467.411 137.408 433.867 145.03 405.597 162.89C378.423 180.068 357.249 202.265 323.818 206.56C290.017 210.911 255.334 209.162 221.363 209.162C134.009 209.162 63.1226 300.924 80.8408 396.511C98.5589 492.097 182.116 558.377 253.002 558.377C316.708 558.377 369.123 520.168 429.629 509.901C459.633 504.81 489.765 510.839 519.457 503.217C553.969 494.344 586.419 473.199 605.545 442.583C618.57 421.708 624.912 398.715 626.69 375.067Z" fill="white"/>
<path d="M194.444 359.396C190.306 351.418 188.571 345.702 188.571 344.379C188.571 341.763 194.259 340.199 194.259 340.199C203.133 335.506 244.868 342.289 263.653 345.418C274.169 347.251 284.806 348.296 295.477 348.546C295.477 348.546 298.08 346.47 301.165 343.853C304.251 341.237 318.898 324.031 324.643 322.523C330.387 321.016 335.592 324.614 335.592 324.614C335.592 324.614 344.991 330.302 343.413 331.397C341.835 332.492 318.898 352.257 313.153 355.912C307.408 359.566 295.421 358.002 284.983 360.093C275.996 361.884 239.593 364.103 231.246 364.785C224.977 366.272 218.398 365.724 212.461 363.221" fill="white"/>
<path d="M335.691 324.557C335.691 324.557 330.473 320.902 324.742 322.466C319.011 324.031 304.393 341.251 301.265 343.796C298.136 346.342 295.577 348.489 295.577 348.489C284.906 348.24 274.268 347.194 263.753 345.361C244.968 342.232 203.232 335.407 194.359 340.142C194.359 340.142 188.671 341.706 188.671 344.323C188.868 345.785 189.246 347.218 189.794 348.589L190.576 348.873C190.576 348.873 201 347.778 223.496 348.318C245.992 348.859 298.023 351.945 301.364 353.153C302.786 353.694 312.868 351.418 324.045 347.465C332.577 340.512 342.602 331.823 343.612 331.212C345.091 330.287 335.691 324.557 335.691 324.557Z" fill="#81C784"/>
<path opacity="0.5" d="M335.691 324.557C335.691 324.557 330.473 320.902 324.742 322.466C319.011 324.031 304.393 341.251 301.265 343.796C298.136 346.342 295.577 348.489 295.577 348.489C284.906 348.24 274.268 347.194 263.753 345.361C244.968 342.232 203.232 335.407 194.359 340.142C194.359 340.142 188.671 341.706 188.671 344.323C188.868 345.785 189.246 347.218 189.794 348.589L190.576 348.873C190.576 348.873 201 347.778 223.496 348.318C245.992 348.859 298.023 351.945 301.364 353.153C302.786 353.694 312.868 351.418 324.045 347.465C332.577 340.512 342.602 331.823 343.612 331.212C345.091 330.287 335.691 324.557 335.691 324.557Z" fill="white"/>
<path d="M194.444 359.396C190.306 351.418 188.571 345.702 188.571 344.379C188.571 341.763 194.259 340.199 194.259 340.199C203.133 335.506 244.868 342.289 263.653 345.418C274.169 347.251 284.806 348.296 295.477 348.546C295.477 348.546 298.08 346.47 301.165 343.853C304.251 341.237 318.898 324.031 324.643 322.523C330.387 321.016 335.592 324.614 335.592 324.614C335.592 324.614 344.991 330.302 343.413 331.397C341.835 332.492 318.898 352.257 313.153 355.912C307.408 359.566 295.421 358.002 284.983 360.093C275.996 361.884 239.593 364.103 231.246 364.785C224.977 366.272 218.398 365.724 212.461 363.221" stroke="#616161" stroke-linecap="round" stroke-linejoin="round"/>
<path d="M400.506 405.782C401.45 403.99 402.866 402.491 404.6 401.446C406.334 400.401 408.322 399.849 410.347 399.852H505.194C505.194 399.852 512.048 399.852 510 412.878C507.953 425.903 479.825 505.436 473.028 529.482C466.231 553.528 464.795 604.208 464.795 604.208H351.035C351.035 604.208 360.05 483.011 400.506 405.782Z" fill="white"/>
<path opacity="0.16" d="M443.223 399.852H410.346C408.322 399.849 406.334 400.401 404.6 401.446C402.866 402.491 401.45 403.99 400.506 405.782C360.05 483.011 350.935 604.165 350.935 604.165H401.957L414.541 556.372L467.013 567.193C467.383 563.183 467.809 559.102 468.307 555.078L467.155 542.28C467.155 542.28 456.405 530.975 453.021 528.145C449.636 525.315 451.883 520.21 451.314 498.155C450.745 476.1 430.951 460.244 423.585 446.664C416.219 433.084 427.553 424.595 437.734 411.015C441.36 406.109 442.839 402.497 443.223 399.852Z" fill="#9E9E9E"/>
<path d="M400.506 405.782C401.45 403.99 402.866 402.491 404.6 401.446C406.334 400.401 408.322 399.849 410.347 399.852H505.194C505.194 399.852 512.048 399.852 510 412.878C507.953 425.903 479.825 505.436 473.028 529.482C466.231 553.528 464.795 604.208 464.795 604.208H351.035C351.035 604.208 360.05 483.011 400.506 405.782Z" stroke="#616161" stroke-linecap="round" stroke-linejoin="round"/>
<path d="M488.741 422.476C479.157 444.844 458.879 533.392 455.58 604.165H464.738C464.738 604.165 466.16 553.428 472.971 529.439C479.783 505.449 507.938 425.903 509.943 412.835C511.948 399.766 505.137 399.809 505.137 399.809C505.137 399.809 496.434 404.544 488.741 422.476Z" fill="#616161" stroke="#616161" stroke-linecap="round" stroke-linejoin="round"/>
<path d="M322.126 377.768C322.126 377.768 306.996 368.895 301.265 353.253C295.534 337.611 346.129 312.555 368.099 310.991C390.069 309.427 396.269 315.157 409.337 337.597C422.405 360.036 431.25 390.808 424.467 405.938C417.684 421.068 406.208 424.723 414.513 437.222C422.817 449.721 446.337 485.215 444.773 501.909C443.209 518.603 427.041 533.193 403.535 534.785C380.029 536.378 348.745 522.258 322.666 499.235C296.586 476.213 303.355 442.355 312.712 431.406C322.069 420.457 336.189 416.276 337.227 405.327C338.265 394.377 322.126 377.768 322.126 377.768Z" fill="#616161" stroke="#616161" stroke-linecap="round" stroke-linejoin="round"/>
<path d="M386.613 353.011C394.648 367.971 404.701 388.007 407.844 400.108C413.333 421.296 385.092 434.634 392.927 444.83" stroke="white" stroke-linecap="round" stroke-linejoin="round"/>
<path d="M375.664 333.416C375.664 333.416 378.792 338.749 383.115 346.598" stroke="white" stroke-linecap="round" stroke-linejoin="round"/>
<path d="M417.812 371.057C418.739 373.86 419.34 376.761 419.604 379.702" stroke="white" stroke-linecap="round" stroke-linejoin="round"/>
<path d="M381.096 325.638C381.096 325.638 405.81 343.896 415.679 365.752" stroke="white" stroke-linecap="round" stroke-linejoin="round"/>
<path d="M346.797 339.332C329.15 344.28 303.768 352.314 305.83 356.95" stroke="white" stroke-linecap="round" stroke-linejoin="round"/>
<path d="M363.108 334.98C363.108 334.98 359.339 335.919 353.722 337.426" stroke="white" stroke-linecap="round" stroke-linejoin="round"/>
<path d="M341.28 325.766C351.388 322.58 361.975 321.184 372.564 321.642" stroke="white" stroke-linecap="round" stroke-linejoin="round"/>
<path d="M334.085 328.709C335.683 327.877 337.336 327.154 339.033 326.548" stroke="white" stroke-linecap="round" stroke-linejoin="round"/>
<path d="M188.571 344.379C188.565 344.479 188.565 344.579 188.571 344.678C188.565 344.579 188.565 344.479 188.571 344.379ZM194.444 359.396C192.049 355.01 190.142 350.375 188.756 345.574C190.135 350.377 192.043 355.013 194.444 359.396ZM188.6 344.763C188.6 344.849 188.6 344.948 188.6 345.076C188.628 344.948 188.614 344.849 188.6 344.763ZM188.671 345.161C188.688 345.301 188.717 345.439 188.756 345.574C188.717 345.439 188.688 345.301 188.671 345.161ZM194.444 359.381C199.762 369.455 206.379 378.787 214.125 387.139C232.909 407.488 287.173 460.713 292.335 464.368C297.497 468.022 295.989 478.446 292.335 488.883C288.68 499.32 275.114 514.479 275.64 531.145C276.167 547.811 281.328 573.407 280.859 578.625C280.39 583.844 267.336 601.591 267.336 601.591H401.942C401.942 601.591 385.163 580.261 385.163 572.966C385.163 565.671 408.199 472.203 409.237 465.42C410.275 458.637 406.109 453.944 397.762 453.418C389.415 452.892 357.59 446.109 356.026 440.891C354.462 435.672 364.373 415.849 364.373 415.849L333.089 417.413C333.089 417.413 331.525 430.979 329.435 433.596C327.344 436.212 324.216 430.979 316.907 427.339C309.598 423.699 295.577 420.556 290.301 416.375C285.026 412.195 235 365.183 235 365.183" fill="white"/>
<path d="M298.293 420.4C300.895 424.95 303.497 429.06 303.497 429.06C303.497 429.06 312.271 433.994 314.461 433.994C316.651 433.994 329.819 441.104 329.819 441.104C329.819 441.104 340.796 438.36 336.929 429.031C335.708 426.643 334.168 424.433 332.35 422.462C331.696 426.6 330.643 432.018 329.406 433.568C327.316 436.17 324.187 430.951 316.878 427.311C312.143 424.95 304.479 422.789 298.293 420.4Z" fill="#81C784"/>
<path d="M271.502 399.283C255.391 384.367 235 365.241 235 365.241L223.14 363.534L221.718 364.33C221.718 364.33 255.192 393.951 262.316 397.25C265.198 398.575 268.33 399.268 271.502 399.283Z" fill="#81C784"/>
<path d="M288.382 414.726L287.102 413.589C287.756 414.67 288.126 415.352 288.126 415.352L288.382 414.726Z" fill="#81C784"/>
<g opacity="0.5">
<path opacity="0.5" d="M298.293 420.4C300.895 424.95 303.497 429.06 303.497 429.06C303.497 429.06 312.271 433.994 314.461 433.994C316.651 433.994 329.819 441.104 329.819 441.104C329.819 441.104 340.796 438.36 336.929 429.031C335.708 426.643 334.168 424.433 332.35 422.462C331.696 426.6 330.643 432.018 329.406 433.568C327.316 436.17 324.187 430.951 316.878 427.311C312.143 424.95 304.479 422.789 298.293 420.4Z" fill="white"/>
<path opacity="0.5" d="M271.502 399.283C255.391 384.367 235 365.241 235 365.241L223.14 363.534L221.718 364.33C221.718 364.33 255.192 393.951 262.316 397.25C265.198 398.575 268.33 399.268 271.502 399.283Z" fill="white"/>
<path opacity="0.5" d="M288.382 414.726L287.102 413.589C287.756 414.67 288.126 415.352 288.126 415.352L288.382 414.726Z" fill="white"/>
</g>
<path d="M194.444 359.381C199.762 369.455 206.379 378.787 214.125 387.139C232.909 407.488 287.173 460.713 292.335 464.368C297.497 468.022 295.989 478.446 292.335 488.883C288.68 499.321 275.114 514.479 275.64 531.145C276.167 547.811 281.328 573.407 280.859 578.625C280.39 583.844 267.336 601.591 267.336 601.591H401.942C401.942 601.591 385.163 580.261 385.163 572.966C385.163 565.671 408.199 472.203 409.237 465.42C410.275 458.637 406.109 453.944 397.762 453.418C389.415 452.892 357.59 446.109 356.026 440.891C354.462 435.672 364.373 415.849 364.373 415.849L333.089 417.413C333.089 417.413 331.525 430.979 329.435 433.596C327.344 436.212 324.216 430.979 316.907 427.339C309.598 423.699 295.577 420.556 290.301 416.375C285.026 412.195 235 365.183 235 365.183M188.571 344.379C188.565 344.479 188.565 344.579 188.571 344.678C188.565 344.579 188.565 344.479 188.571 344.379V344.379ZM194.444 359.396C192.049 355.01 190.142 350.375 188.756 345.574C190.135 350.377 192.043 355.013 194.444 359.396V359.396ZM188.6 344.763C188.6 344.849 188.6 344.948 188.6 345.076C188.628 344.948 188.614 344.849 188.6 344.763V344.763ZM188.671 345.161C188.688 345.301 188.717 345.439 188.756 345.574C188.717 345.439 188.688 345.301 188.671 345.161Z" stroke="#616161" stroke-linecap="round" stroke-linejoin="round"/>
<path d="M235 365.24C235 365.24 218.334 365.553 209.034 357.889" stroke="#616161" stroke-linecap="round" stroke-linejoin="round"/>
<path d="M356.04 440.891C354.476 435.686 364.387 415.85 364.387 415.85L333.103 417.414C333.103 417.414 331.539 430.98 329.449 433.596C327.359 436.213 324.23 430.98 316.921 427.339C316.367 427.055 315.755 426.785 315.129 426.515L313.238 456.249C313.238 456.249 315.983 485.044 348.888 479.569C362.212 477.351 376.432 465.463 388.704 452.096C376.076 449.779 357.235 444.887 356.04 440.891Z" fill="white"/>
<path d="M355.159 419.788C355.159 419.788 353.267 430.396 351.746 442.128C350.224 453.859 349.101 462.59 349.101 462.59L356.04 440.891L363.861 417.897C363.861 417.897 356.296 417.897 355.159 419.788Z" fill="#81C784"/>
<path opacity="0.5" d="M355.159 419.788C355.159 419.788 353.267 430.396 351.746 442.128C350.224 453.859 349.101 462.59 349.101 462.59L356.04 440.891L363.861 417.897C363.861 417.897 356.296 417.897 355.159 419.788Z" fill="white"/>
<path d="M356.04 440.891C354.476 435.686 364.387 415.85 364.387 415.85L333.103 417.414C333.103 417.414 331.539 430.98 329.449 433.596C327.359 436.213 324.23 430.98 316.921 427.339C316.367 427.055 315.755 426.785 315.129 426.515L313.238 456.249C313.238 456.249 315.983 485.044 348.888 479.569C362.212 477.351 376.432 465.463 388.704 452.096C376.076 449.779 357.235 444.887 356.04 440.891Z" stroke="#616161" stroke-linecap="round" stroke-linejoin="round"/>
<path d="M329.435 433.596C327.344 436.198 324.216 430.979 316.907 427.339C312.3 425.021 304.962 422.916 298.89 420.641C297.169 416.56 294.894 411.242 293.43 408.028C290.827 402.34 286.647 405.938 286.647 405.938C284.466 403.457 282.703 400.638 281.428 397.591C278.826 391.903 274.645 392.372 268.914 391.334C263.184 390.296 251.168 379.332 251.168 379.332C251.168 379.332 245.551 375.066 243.233 372.947C240.531 378.266 234.061 387.622 220.069 393.467C242.38 416.773 287.642 461.054 292.392 464.382C297.61 468.022 296.046 478.46 292.392 488.897C288.737 499.335 275.171 514.493 275.697 531.159C276.223 547.825 281.385 573.421 280.916 578.64C280.447 583.29 270.038 597.865 267.777 600.994L273.081 601.591H300.696C300.54 587.598 300.554 530.491 310.124 507.739C321.088 481.588 329.435 433.596 329.435 433.596Z" fill="#81C784"/>
<path opacity="0.16" d="M316.907 427.339C312.3 425.021 304.962 422.916 298.89 420.641C297.169 416.56 294.894 411.242 293.43 408.028C290.827 402.34 286.647 405.938 286.647 405.938C284.466 403.457 282.703 400.638 281.428 397.591C278.826 391.903 274.645 392.372 268.914 391.334C263.184 390.296 251.168 379.332 251.168 379.332C251.168 379.332 245.551 375.066 243.233 372.947C242.076 375.205 240.7 377.344 239.123 379.332C248.452 387.224 258.747 395.585 262.345 397.249C269.455 400.534 271.118 397.79 276.565 401.089C282.011 404.388 288.083 415.309 288.083 415.309C288.083 415.309 291.382 406.521 294.126 412.564C296.871 418.608 303.455 429.017 303.455 429.017C303.455 429.017 312.228 433.951 314.418 433.951C316.139 433.951 324.571 438.331 328.155 440.222C328.951 436.056 329.392 433.553 329.392 433.553C327.344 436.198 324.216 430.979 316.907 427.339Z" fill="#9E9E9E"/>
<path d="M329.435 433.596C327.344 436.198 324.216 430.979 316.907 427.339C312.3 425.021 304.962 422.916 298.89 420.641C297.169 416.56 294.894 411.242 293.43 408.028C290.827 402.34 286.647 405.938 286.647 405.938C284.466 403.457 282.703 400.638 281.428 397.591C278.826 391.903 274.645 392.372 268.914 391.334C263.184 390.296 251.168 379.332 251.168 379.332C251.168 379.332 245.551 375.066 243.233 372.947C240.531 378.266 234.061 387.622 220.069 393.467C242.38 416.773 287.642 461.054 292.392 464.382C297.61 468.022 296.046 478.46 292.392 488.897C288.737 499.335 275.171 514.493 275.697 531.159C276.223 547.825 281.385 573.421 280.916 578.64C280.447 583.29 270.038 597.865 267.777 600.994L273.081 601.591H300.696C300.54 587.598 300.554 530.491 310.124 507.739C321.088 481.588 329.435 433.596 329.435 433.596Z" stroke="#616161" stroke-linecap="round" stroke-linejoin="round"/>
<path d="M329.804 431.776C329.804 431.776 323.32 429.785 319.324 433.283C315.328 436.781 309.37 454.727 305.858 474.194C303.693 485.527 305.187 497.254 310.124 507.682C310.124 507.682 318.329 486.168 320.817 475.687C323.306 465.207 329.804 431.776 329.804 431.776Z" fill="#81C784"/>
<path opacity="0.16" d="M317.362 434.947C317.362 434.947 322.055 433.809 323.988 434.463C325.617 435.162 327.139 436.086 328.51 437.208L329.804 431.776C327.863 430.784 325.662 430.421 323.505 430.738C320.277 431.392 317.362 434.947 317.362 434.947Z" fill="#9E9E9E"/>
<path d="M329.804 431.776C329.804 431.776 323.32 429.785 319.324 433.283C315.328 436.781 309.37 454.727 305.858 474.194C303.693 485.527 305.187 497.254 310.124 507.682C310.124 507.682 318.329 486.168 320.817 475.687C323.306 465.207 329.804 431.776 329.804 431.776Z" stroke="#616161" stroke-linecap="round" stroke-linejoin="round"/>
<path d="M286.135 433.482L294.482 467.397L275.697 424.609" stroke="#616161" stroke-linecap="round" stroke-linejoin="round"/>
<path d="M341.123 601.591H401.957C401.957 601.591 385.177 580.261 385.177 572.966C385.177 565.671 408.213 472.203 409.251 465.42C410.29 458.637 406.123 453.945 397.776 453.418C389.429 452.892 357.604 446.109 356.04 440.891C356.04 440.891 344.039 483.153 339.872 511.848C336.289 536.463 340 587.542 341.123 601.591Z" fill="#81C784"/>
<path opacity="0.16" d="M397.776 453.418C390.936 452.992 368.341 448.356 359.538 443.834L362.738 451.228C368.535 454.304 374.769 456.472 381.224 457.656C391.818 459.547 401.672 459.177 408.114 468.648L408.427 469.117C408.825 467.297 409.095 466.017 409.181 465.42C410.304 458.637 406.123 453.944 397.776 453.418Z" fill="#9E9E9E"/>
<path d="M341.123 601.591H401.957C401.957 601.591 385.177 580.261 385.177 572.966C385.177 565.671 408.213 472.203 409.251 465.42C410.29 458.637 406.123 453.945 397.776 453.418C389.429 452.892 357.604 446.109 356.04 440.891C356.04 440.891 344.039 483.153 339.872 511.848C336.289 536.463 340 587.542 341.123 601.591Z" stroke="#616161" stroke-linecap="round" stroke-linejoin="round"/>
<path d="M356.04 440.891C356.04 440.891 339.943 492.083 339.872 511.848C339.872 511.848 362.738 484.162 365.724 464.709C368.71 445.256 356.04 440.891 356.04 440.891Z" fill="#81C784"/>
<path opacity="0.16" d="M353.267 447.432C355.686 447.351 358.088 447.86 360.266 448.915C362.444 449.971 364.332 451.541 365.767 453.49C365.767 453.49 362.61 444.204 356.04 440.891L353.267 447.432Z" fill="#9E9E9E"/>
<path d="M356.04 440.891C356.04 440.891 339.943 492.083 339.872 511.848C339.872 511.848 362.738 484.162 365.724 464.709C368.71 445.256 356.04 440.891 356.04 440.891Z" stroke="#616161" stroke-linecap="round" stroke-linejoin="round"/>
<path d="M527.889 591.964C527.889 591.964 539.677 592.448 547.399 593.557C552.548 594.255 557.732 594.668 562.927 594.794C562.927 594.794 558.661 586.177 554.111 583.745C549.56 581.313 541.313 576.962 534.402 577.929C527.491 578.896 517.608 585.864 518.433 588.082C519.257 590.3 522.941 591.296 527.889 591.964Z" fill="white"/>
<path d="M527.889 591.964C527.889 591.964 539.677 592.448 547.399 593.557C552.548 594.255 557.732 594.668 562.927 594.794C562.927 594.794 558.661 586.177 554.111 583.745C549.56 581.313 541.313 576.962 534.402 577.929C527.491 578.896 517.608 585.864 518.433 588.082C519.257 590.3 522.941 591.296 527.889 591.964Z" fill="#81C784"/>
<path opacity="0.5" d="M527.889 591.964C527.889 591.964 539.677 592.448 547.399 593.557C552.548 594.255 557.732 594.668 562.927 594.794C562.927 594.794 558.661 586.177 554.111 583.745C549.56 581.313 541.313 576.962 534.402 577.929C527.491 578.896 517.608 585.864 518.433 588.082C519.257 590.3 522.941 591.296 527.889 591.964Z" fill="white"/>
<path d="M527.889 591.964C527.889 591.964 539.677 592.448 547.399 593.557C552.548 594.255 557.732 594.668 562.927 594.794C562.927 594.794 558.661 586.177 554.111 583.745C549.56 581.313 541.313 576.962 534.402 577.929C527.491 578.896 517.608 585.864 518.433 588.082C519.257 590.3 522.941 591.296 527.889 591.964Z" stroke="#616161" stroke-linecap="round" stroke-linejoin="round"/>
<path d="M547.47 588.437C547.47 588.437 556.813 583.588 559.145 583.659C561.477 583.731 576.977 594.211 576.209 595.889C575.687 596.667 574.934 597.261 574.056 597.588C573.179 597.915 572.22 597.957 571.317 597.709C569.596 596.898 559.159 592.462 559.159 592.462L552.333 594.069L547.47 588.437Z" fill="white"/>
<path d="M547.47 588.437C547.47 588.437 556.813 583.588 559.145 583.659C561.477 583.731 576.977 594.211 576.209 595.889C575.441 597.567 571.772 598.932 571.317 597.709C570.862 596.486 559.159 592.462 559.159 592.462L552.333 594.068L547.47 588.437Z" fill="#81C784"/>
<path opacity="0.5" d="M547.47 588.437C547.47 588.437 556.813 583.588 559.145 583.659C561.477 583.731 576.977 594.211 576.209 595.889C575.441 597.567 571.772 598.932 571.317 597.709C570.862 596.486 559.159 592.462 559.159 592.462L552.333 594.068L547.47 588.437Z" fill="white"/>
<path d="M547.47 588.437C547.47 588.437 556.813 583.588 559.145 583.659C561.477 583.731 576.977 594.211 576.209 595.889C575.687 596.667 574.934 597.261 574.056 597.588C573.179 597.915 572.22 597.957 571.317 597.709C569.596 596.898 559.159 592.462 559.159 592.462L552.333 594.069L547.47 588.437Z" stroke="#616161" stroke-linecap="round" stroke-linejoin="round"/>
<path d="M540.801 580.46C540.801 580.46 553.258 580.062 555.732 581.313C558.206 582.565 569.383 601.733 567.705 603.127C566.027 604.52 561.391 604.108 561.534 602.558C561.676 601.008 551.238 590.741 551.238 590.741L543.119 588.964L540.801 580.46Z" fill="white"/>
<path d="M540.801 580.46C540.801 580.46 553.258 580.062 555.732 581.313C558.206 582.565 569.383 601.733 567.705 603.127C566.027 604.52 561.391 604.108 561.534 602.558C561.676 601.008 551.238 590.741 551.238 590.741L543.119 588.964L540.801 580.46Z" fill="#81C784"/>
<path opacity="0.5" d="M540.801 580.46C540.801 580.46 553.258 580.062 555.732 581.313C558.206 582.565 569.383 601.733 567.705 603.127C566.027 604.52 561.391 604.108 561.534 602.558C561.676 601.008 551.238 590.741 551.238 590.741L543.119 588.964L540.801 580.46Z" fill="white"/>
<path d="M540.801 580.46C540.801 580.46 553.258 580.062 555.732 581.313C558.206 582.565 569.383 601.733 567.705 603.127C566.027 604.52 561.391 604.108 561.534 602.558C561.676 601.008 551.238 590.741 551.238 590.741L543.119 588.964L540.801 580.46Z" stroke="#616161" stroke-linecap="round" stroke-linejoin="round"/>
<path d="M533.421 577.886C533.421 577.886 546.034 577.474 548.536 578.753C551.039 580.033 562.358 599.415 560.652 600.837C558.945 602.259 554.281 601.818 554.424 600.254C554.566 598.69 544 588.295 544 588.295L535.781 586.489L533.421 577.886Z" fill="white"/>
<path d="M533.421 577.886C533.421 577.886 546.034 577.474 548.536 578.753C551.039 580.033 562.358 599.415 560.652 600.837C558.945 602.259 554.281 601.818 554.424 600.254C554.566 598.69 544 588.295 544 588.295L535.781 586.489L533.421 577.886Z" fill="#81C784"/>
<path opacity="0.5" d="M533.421 577.886C533.421 577.886 546.034 577.474 548.536 578.753C551.039 580.033 562.358 599.415 560.652 600.837C558.945 602.259 554.281 601.818 554.424 600.254C554.566 598.69 544 588.295 544 588.295L535.781 586.489L533.421 577.886Z" fill="white"/>
<path d="M533.421 577.886C533.421 577.886 546.034 577.474 548.536 578.753C551.039 580.033 562.358 599.415 560.652 600.837C558.945 602.259 554.281 601.818 554.424 600.254C554.566 598.69 544 588.295 544 588.295L535.781 586.489L533.421 577.886Z" stroke="#616161" stroke-linecap="round" stroke-linejoin="round"/>
<path d="M390.012 505.62C399.141 519.684 417.471 555.319 422.817 559.329C431.165 565.586 486.964 580.773 492.339 584.925C497.714 589.077 497.344 593.244 502.435 594.765C507.526 596.287 526.609 600.652 533.89 601.335C541.171 602.017 537.914 597.51 537.914 597.51L525.5 588.978L536.321 586.304C536.321 586.304 547.171 599.358 549.205 600.069C551.238 600.78 554.822 600.069 554.594 598.462C554.196 595.889 542.621 574.829 538.511 573.933C534.402 573.037 509.46 576.492 509.46 576.492C509.46 576.492 457.145 541.213 456.206 539.961C456.206 539.961 453.078 531.088 450.518 527.433C447.958 523.779 446.337 524.831 446.337 524.831C446.337 524.831 447.39 520.124 445.825 518.56L437.478 510.213L437.18 510.611C435.758 507.767 434.336 504.525 432.771 500.828C428.406 490.547 412.949 461.694 410.346 457.528C408.398 454.414 392.074 452.181 383.798 451.243" fill="#81C784"/>
<path opacity="0.16" d="M426.358 506.516C433.184 512.574 430.909 512.574 429.387 517.892C427.866 523.21 430.525 516.001 436.966 516.385C443.408 516.769 441.517 525.087 440.749 526.609C439.981 528.13 448.712 530.022 447.191 533.42C445.669 536.819 436.966 541.753 432.046 546.687C427.126 551.622 444.915 538.724 450.973 538.354C452.822 538.227 454.343 538.468 455.623 538.44C454.28 534.635 452.556 530.976 450.475 527.519C447.859 523.864 446.295 524.917 446.295 524.917C446.295 524.917 447.347 520.21 445.783 518.646L437.436 510.298L437.137 510.697C435.715 507.853 434.293 504.61 432.729 500.913C428.363 490.632 412.906 461.78 410.304 457.613C408.356 454.499 392.031 452.267 383.755 451.328L384.509 457.912L384.694 458.054C384.694 458.054 394.918 459.945 398.331 460.329C401.743 460.713 405.91 463.728 405.526 466.017C405.142 468.307 395.302 478.517 398.331 479.285C401.359 480.052 404.772 471.705 408.185 472.843C411.598 473.981 419.49 500.458 426.358 506.516Z" fill="#9E9E9E"/>
<path d="M390.012 505.62C399.141 519.684 417.471 555.319 422.817 559.329C431.165 565.586 486.964 580.773 492.339 584.925C497.714 589.077 497.344 593.244 502.435 594.765C507.526 596.287 526.609 600.652 533.89 601.335C541.171 602.017 537.914 597.51 537.914 597.51L525.5 588.978L536.321 586.304C536.321 586.304 547.171 599.358 549.205 600.069C551.238 600.78 554.822 600.069 554.594 598.462C554.196 595.889 542.621 574.829 538.511 573.933C534.402 573.037 509.46 576.492 509.46 576.492C509.46 576.492 457.145 541.213 456.206 539.961C456.206 539.961 453.078 531.088 450.518 527.433C447.958 523.779 446.337 524.831 446.337 524.831C446.337 524.831 447.39 520.124 445.825 518.56L437.478 510.213L437.18 510.611C435.758 507.767 434.336 504.525 432.771 500.828C428.406 490.547 412.949 461.694 410.346 457.528C408.398 454.414 392.074 452.181 383.798 451.243" stroke="#616161" stroke-linecap="round" stroke-linejoin="round"/>
<path d="M390.154 486.324C389.77 487.604 389.443 488.883 389.187 490.192" stroke="#616161" stroke-linecap="round" stroke-linejoin="round"/>
<path d="M403.976 462.79C399.507 467.883 395.739 473.55 392.771 479.64" stroke="#616161" stroke-linecap="round" stroke-linejoin="round"/>
<path d="M424.865 543.531C428.705 537.843 434.819 530.633 441.559 528.571" stroke="#616161" stroke-linecap="round" stroke-linejoin="round"/>
<path d="M420.613 550.527C420.613 550.527 421.296 549.19 422.519 547.171" stroke="#616161" stroke-linecap="round" stroke-linejoin="round"/>
<path d="M420.613 541.54C420.613 541.54 427.595 524.078 434.577 519.584C441.559 515.091 437.564 524.078 437.564 524.078" stroke="#616161" stroke-linecap="round" stroke-linejoin="round"/>
<path d="M492.339 584.939C497.728 589.106 497.344 593.258 502.435 594.78C507.526 596.301 526.609 600.667 533.89 601.349C541.17 602.032 537.914 597.524 537.914 597.524L525.5 588.992L536.321 586.319C536.321 586.319 547.171 599.373 549.205 600.084C551.238 600.795 555.106 601.051 554.594 598.477C553.599 593.5 542.621 574.843 538.511 573.947C534.402 573.052 509.46 576.507 509.46 576.507C509.46 576.507 461.809 543.801 456.59 540.26C436.355 542.208 426.728 552.802 422.675 559.159L422.817 559.272C431.165 565.586 486.964 580.773 492.339 584.939Z" fill="white"/>
<path d="M554.58 598.533C551.992 592.206 542.607 574.9 538.497 574.004C534.388 573.108 509.446 576.564 509.446 576.564C509.446 576.564 461.794 543.858 456.576 540.317C451.264 540.779 446.053 542.04 441.119 544.057C448.641 548.323 498.781 576.763 505.109 578.028C511.82 579.45 534.217 575.767 538.156 578.412C540.659 580.09 548.11 591.907 553.144 600.297C554.58 600.083 555.106 599.813 554.58 598.533Z" fill="#81C784"/>
<path opacity="0.5" d="M554.58 598.533C550.541 589.475 542.607 574.9 538.497 574.004C534.388 573.108 509.446 576.564 509.446 576.564C509.446 576.564 461.794 543.858 456.576 540.317C451.264 540.779 446.053 542.04 441.119 544.057C448.641 548.323 498.781 576.763 505.109 578.028C511.82 579.45 534.217 575.767 538.156 578.412C540.659 580.09 548.11 591.907 553.144 600.297C554.58 600.083 555.149 599.799 554.58 598.533Z" fill="white"/>
<path d="M492.339 584.939C497.728 589.106 497.344 593.258 502.435 594.78C507.526 596.301 526.609 600.667 533.89 601.349C541.17 602.032 537.914 597.524 537.914 597.524L525.5 588.992L536.321 586.319C536.321 586.319 547.171 599.373 549.205 600.084C551.238 600.795 555.106 601.051 554.594 598.477C553.599 593.5 542.621 574.843 538.511 573.947C534.402 573.052 509.46 576.507 509.46 576.507C509.46 576.507 461.809 543.801 456.59 540.26C436.355 542.208 426.728 552.802 422.675 559.159L422.817 559.272C431.165 565.586 486.964 580.773 492.339 584.939Z" stroke="#616161" stroke-linecap="round" stroke-linejoin="round"/>
<path d="M366.663 336.63L323.832 354.504C323.313 362.032 321.449 369.405 318.329 376.275C313.267 386.983 316.224 407.246 321.088 418.182C325.951 429.117 347.38 424.837 355.216 423.471C360.53 422.461 365.734 420.941 370.758 418.935C373.046 419.817 375.52 420.102 377.948 419.764C380.376 419.425 382.677 418.475 384.637 417.001C384.637 417.001 361.714 352.656 366.663 336.63Z" fill="white"/>
<path d="M366.663 336.63L323.832 354.504C323.313 362.032 321.449 369.405 318.329 376.275C313.267 386.983 316.224 407.246 321.088 418.182C321.902 419.94 323.211 421.423 324.856 422.448V421.623C324.856 421.623 316.907 401.928 318.414 390.566C319.922 379.205 326.377 373.502 327.131 366.321C327.885 359.14 327.501 355.727 341.906 350.423C356.311 345.119 362.354 340.199 363.861 345.489C365.369 350.779 371.441 385.646 375.607 393.979C379.774 402.312 379.39 411.043 372.962 414.811C366.466 418.711 359.505 421.778 352.244 423.941L355.272 423.415C360.587 422.404 365.791 420.885 370.815 418.878C373.102 419.76 375.577 420.045 378.004 419.707C380.432 419.368 382.734 418.418 384.694 416.944C384.694 416.944 361.714 352.656 366.663 336.63Z" fill="#81C784"/>
<path opacity="0.5" d="M366.663 336.63L323.832 354.504C323.313 362.032 321.449 369.405 318.329 376.275C313.267 386.983 316.224 407.246 321.088 418.182C321.902 419.94 323.211 421.423 324.856 422.448V421.623C324.856 421.623 316.907 401.928 318.414 390.566C319.922 379.205 326.377 373.502 327.131 366.321C327.885 359.14 327.501 355.727 341.906 350.423C356.311 345.119 362.354 340.199 363.861 345.489C365.369 350.779 371.441 385.646 375.607 393.979C379.774 402.312 379.39 411.043 372.962 414.811C366.466 418.711 359.505 421.778 352.244 423.941L355.272 423.415C360.587 422.404 365.791 420.885 370.815 418.878C373.102 419.76 375.577 420.045 378.004 419.707C380.432 419.368 382.734 418.418 384.694 416.944C384.694 416.944 361.714 352.656 366.663 336.63Z" fill="white"/>
<path d="M366.663 336.63L323.832 354.504C323.313 362.032 321.449 369.405 318.329 376.275C313.267 386.983 316.224 407.246 321.088 418.182C325.951 429.117 347.38 424.837 355.216 423.471C360.53 422.461 365.734 420.941 370.758 418.935C373.046 419.817 375.52 420.102 377.948 419.764C380.376 419.425 382.677 418.475 384.637 417.001C384.637 417.001 361.714 352.656 366.663 336.63Z" stroke="#616161" stroke-linecap="round" stroke-linejoin="round"/>
<path d="M345.02 364.657C345.136 367.175 344.823 369.695 344.096 372.108C342.958 374.952 332.222 386.129 332.549 387.338C332.876 388.547 333.843 392.429 335.748 392.799" stroke="#616161" stroke-linecap="round" stroke-linejoin="round"/>
<path d="M356.922 374.654C358.415 371.668 363.321 374.583 363.25 381.309" stroke="#616161" stroke-linecap="round" stroke-linejoin="round"/>
<path d="M332.606 365.866C332.606 365.866 336.786 364.032 340.526 370.801" stroke="#616161" stroke-linecap="round" stroke-linejoin="round"/>
<path d="M350.978 384.508C355.809 384.751 360.402 386.678 363.961 389.955" stroke="#616161" stroke-width="0.5" stroke-linecap="round" stroke-linejoin="round"/>
<path d="M327.558 375.621C330.055 375.955 332.496 376.629 334.81 377.626" stroke="#616161" stroke-width="0.5" stroke-linecap="round" stroke-linejoin="round"/>
<path d="M344.551 358.344C343.446 357.76 342.222 357.441 340.973 357.411C339.724 357.382 338.486 357.642 337.355 358.173C333.53 360.008 331.184 362.027 331.44 359.681C331.696 357.334 336.189 354.746 337.54 354.405C338.891 354.064 344.935 353.125 344.551 358.344Z" fill="#616161"/>
<path d="M355.272 353.04C359.259 356.265 362.426 360.387 364.515 365.07C367.359 372.18 369.606 364.416 367.359 359.766C365.113 355.116 358.614 350.167 355.272 353.04Z" fill="#616161"/>
<path d="M385.262 429.159C385.262 432.473 383.385 435.16 381.082 435.16C378.778 435.16 376.915 432.473 376.915 429.159C376.915 425.846 378.778 417.414 381.082 417.414C383.385 417.414 385.262 425.846 385.262 429.159Z" fill="#81C784" stroke="#616161" stroke-linecap="round" stroke-linejoin="round"/>
<path d="M357.292 373.36C357.128 373.794 357 374.241 356.908 374.697C356.495 376.801 356.083 381.195 356.908 381.38C357.732 381.565 359.752 377.455 360.107 375.351C360.187 374.938 360.235 374.519 360.249 374.099C359.279 373.795 358.291 373.548 357.292 373.36Z" fill="#616161"/>
<path d="M333.032 365.454C332.906 365.825 332.806 366.205 332.734 366.591C332.307 368.696 332.321 373.317 333.217 373.488C334.113 373.659 335.578 369.336 335.99 367.231C336.093 366.721 336.15 366.202 336.161 365.681C335.143 365.401 334.08 365.324 333.032 365.454Z" fill="#616161"/>
<path d="M356.922 374.725L358.344 372.08C360.598 372.519 362.641 373.701 364.146 375.436" stroke="#616161" stroke-width="0.75" stroke-linecap="round" stroke-linejoin="round"/>
<path d="M333.032 365.454L334.454 363.79C334.454 363.79 335.066 363.491 338.422 365.013" stroke="#616161" stroke-width="0.75" stroke-linecap="round" stroke-linejoin="round"/>
<path d="M327.643 404.018C327.643 404.018 330.032 399.625 333.231 399.625C336.431 399.625 338.82 406.806 338.82 406.806" stroke="#616161" stroke-linecap="round" stroke-linejoin="round"/>
<path d="M224.676 593.514C221.584 593.361 218.547 592.638 215.717 591.381C215.323 591.236 214.962 591.011 214.657 590.721C214.352 590.431 214.11 590.083 213.944 589.696C213.778 589.31 213.692 588.893 213.693 588.473C213.693 588.052 213.779 587.636 213.945 587.249C214.111 586.863 214.354 586.514 214.659 586.225C214.964 585.935 215.325 585.711 215.72 585.565C216.115 585.42 216.535 585.356 216.955 585.378C217.375 585.4 217.786 585.507 218.163 585.693C221.007 586.902 224.69 587.656 225.671 587.229C227.477 585.21 230.25 573.009 226.667 567.122C225.856 565.814 225.103 565.572 224.605 565.515C222.571 565.231 219.557 567.321 218.49 568.359C218.193 568.639 217.844 568.858 217.463 569.003C217.081 569.149 216.675 569.217 216.267 569.205C215.859 569.193 215.457 569.101 215.085 568.934C214.712 568.767 214.376 568.528 214.096 568.231C213.816 567.934 213.597 567.585 213.452 567.204C213.307 566.822 213.238 566.416 213.25 566.008C213.262 565.6 213.354 565.198 213.521 564.826C213.689 564.453 213.927 564.117 214.224 563.837C214.779 563.297 219.912 558.675 225.387 559.415C226.745 559.613 228.039 560.122 229.168 560.901C230.298 561.68 231.232 562.709 231.9 563.908C237.175 572.512 233.564 588.879 229.511 592.121C228.102 593.117 226.399 593.608 224.676 593.514Z" fill="white"/>
<path d="M228.842 566.183C228.47 565.3 227.886 564.522 227.142 563.917C226.398 563.312 225.517 562.899 224.576 562.714C221.021 562.145 217.68 565.714 217.31 566.112C216.97 566.522 216.76 567.023 216.707 567.553C216.654 568.082 216.76 568.615 217.011 569.084C217.571 568.972 218.088 568.706 218.505 568.316C219.571 567.321 222.586 565.231 224.619 565.472C225.117 565.472 225.871 565.771 226.681 567.079C230.265 572.909 227.492 585.167 225.686 587.186C224.704 587.613 221.036 586.859 218.177 585.651C217.826 585.503 217.45 585.421 217.068 585.409C217.094 585.799 217.217 586.176 217.426 586.506C217.634 586.836 217.922 587.109 218.263 587.3C220.061 588.26 222.044 588.823 224.079 588.95C225.24 589.005 226.377 588.608 227.25 587.84C229.923 585.38 232.284 572.796 228.842 566.183Z" fill="#81C784"/>
<path opacity="0.5" d="M228.842 566.183C228.47 565.3 227.886 564.522 227.142 563.917C226.398 563.312 225.517 562.899 224.576 562.714C221.021 562.145 217.68 565.714 217.31 566.112C216.97 566.522 216.76 567.023 216.707 567.553C216.654 568.082 216.76 568.615 217.011 569.084C217.571 568.972 218.088 568.706 218.505 568.316C219.571 567.321 222.586 565.231 224.619 565.472C225.117 565.472 225.871 565.771 226.681 567.079C230.265 572.909 227.492 585.167 225.686 587.186C224.704 587.613 221.036 586.859 218.177 585.651C217.826 585.503 217.45 585.421 217.068 585.409C217.094 585.799 217.217 586.176 217.426 586.506C217.634 586.836 217.922 587.109 218.263 587.3C220.061 588.26 222.044 588.823 224.079 588.95C225.24 589.005 226.377 588.608 227.25 587.84C229.923 585.38 232.284 572.796 228.842 566.183Z" fill="white"/>
<path d="M224.676 593.514C221.584 593.361 218.547 592.638 215.717 591.381C215.323 591.236 214.962 591.011 214.657 590.721C214.352 590.431 214.11 590.083 213.944 589.696C213.778 589.31 213.692 588.893 213.693 588.473C213.693 588.052 213.779 587.636 213.945 587.249C214.111 586.863 214.354 586.514 214.659 586.225C214.964 585.935 215.325 585.711 215.72 585.565C216.115 585.42 216.535 585.356 216.955 585.378C217.375 585.4 217.786 585.507 218.163 585.693C221.007 586.902 224.69 587.656 225.671 587.229C227.477 585.21 230.25 573.009 226.667 567.122C225.856 565.814 225.103 565.572 224.605 565.515C222.571 565.231 219.557 567.321 218.49 568.359C218.193 568.639 217.844 568.858 217.463 569.003C217.081 569.149 216.675 569.217 216.267 569.205C215.859 569.193 215.457 569.101 215.085 568.934C214.712 568.767 214.376 568.528 214.096 568.231C213.816 567.934 213.597 567.585 213.452 567.204C213.307 566.822 213.238 566.416 213.25 566.008C213.262 565.6 213.354 565.198 213.521 564.826C213.689 564.453 213.927 564.117 214.224 563.837C214.779 563.297 219.912 558.675 225.387 559.415C226.745 559.613 228.039 560.122 229.168 560.901C230.298 561.68 231.232 562.709 231.9 563.908C237.175 572.512 233.564 588.879 229.511 592.121C228.102 593.117 226.399 593.608 224.676 593.514V593.514Z" stroke="#616161" stroke-linecap="round" stroke-linejoin="round"/>
<path d="M219.244 556.827H185.045V602.217H219.244V556.827Z" fill="white"/>
<path d="M199.052 556.827H185.045V602.217H199.052V556.827Z" fill="#81C784"/>
<path opacity="0.5" d="M199.052 556.827H185.045V602.217H199.052V556.827Z" fill="white"/>
<path d="M219.244 556.827H185.045V602.217H219.244V556.827Z" stroke="#616161" stroke-linecap="round" stroke-linejoin="round"/>
<path d="M407.175 601.591H261.079L256.315 521.277C256.184 520.498 256.223 519.7 256.429 518.938C256.636 518.176 257.005 517.467 257.512 516.862C258.019 516.256 258.652 515.768 259.365 515.43C260.079 515.092 260.858 514.914 261.648 514.906H406.55C407.344 514.905 408.129 515.078 408.85 515.412C409.571 515.746 410.211 516.233 410.724 516.84C411.237 517.447 411.612 518.158 411.822 518.924C412.031 519.69 412.072 520.493 411.939 521.277L407.175 601.591Z" fill="#616161" stroke="#616161" stroke-linecap="round" stroke-linejoin="round"/>
<path d="M268.274 516.826H405.497C406.273 516.818 407.04 516.98 407.746 517.299C408.452 517.619 409.08 518.09 409.585 518.678C410.091 519.265 410.461 519.957 410.671 520.703C410.881 521.449 410.926 522.232 410.801 522.997" stroke="white" stroke-linecap="round" stroke-linejoin="round"/>
<path d="M257.382 521.732C257.496 520.388 258.113 519.137 259.11 518.227C260.106 517.318 261.408 516.818 262.757 516.826" stroke="white" stroke-linecap="round" stroke-linejoin="round"/>
<path d="M407.787 593.771H260.468V601.591H407.787V593.771Z" fill="white" stroke="#616161" stroke-linecap="round" stroke-linejoin="round"/>
<path d="M333.601 564.818C339.366 564.818 344.039 562.017 344.039 558.562C344.039 555.106 339.366 552.305 333.601 552.305C327.837 552.305 323.164 555.106 323.164 558.562C323.164 562.017 327.837 564.818 333.601 564.818Z" fill="white" stroke="#616161" stroke-linecap="round" stroke-linejoin="round"/>
<path d="M629.989 600.667H81.2958V613.991H629.989V600.667Z" fill="#616161"/>
</svg>
