<svg width="500" height="500" viewBox="0 0 500 500" fill="none" xmlns="http://www.w3.org/2000/svg">
<path d="M106.12 275.13C106.12 275.13 97.0403 277.53 104.68 297.13C112.32 316.73 117.98 326.63 117.98 326.63C117.98 326.63 119.23 331.13 115.52 331.43C111.81 331.73 103.91 329.65 101.84 333.95C99.7703 338.25 102.61 343.1 109.04 347.61C115.47 352.12 129.18 362.53 130.42 363.47C131.66 364.41 132.73 366.55 130.23 367.16C127.73 367.77 109.5 367.84 110.05 376.49C110.6 385.14 130.57 394.77 132.73 395.87C134.89 396.97 135.33 397.97 135.03 399.18C134.73 400.39 128.59 399.85 123.4 400.08C118.21 400.31 112.24 401.49 112.98 406.45C113.72 411.41 124.98 422.83 154.48 428.74L168.34 430.59L177.09 419.59C194.37 394.94 194.65 378.92 191.76 374.82C188.87 370.72 183.76 373.98 179.81 377.39C175.86 380.8 171.81 385.39 170.81 384.77C169.81 384.15 169.37 383.06 170.18 380.77C170.99 378.48 178.81 357.77 173.24 351.1C167.67 344.43 154.42 356.99 152.19 358.26C149.96 359.53 149.27 357.26 149.51 355.72C149.75 354.18 152.51 337.19 154.05 329.49C155.59 321.79 154.46 316.38 149.83 314.63C145.37 312.95 141.09 319.91 138.19 322.25C135.29 324.59 133.1 320.47 133.1 320.47C133.1 320.47 130.37 309.4 122.38 289.94C114.39 270.48 105.97 275.16 105.97 275.16" fill="#EBEBEB"/>
<path d="M168.73 433.93C162.92 419.62 153 394 144.39 372.05C135.78 350.1 127.96 330.25 122.22 315.91C119.34 308.76 117.02 302.91 115.4 298.91L113.55 294.29L113.08 293.09C113.022 292.953 112.972 292.813 112.93 292.67C112.93 292.67 113 292.8 113.12 293.07C113.24 293.34 113.41 293.75 113.63 294.26L115.56 298.85C117.22 302.85 119.56 308.62 122.5 315.78C128.31 330.09 136.18 349.93 144.8 371.88C153.42 393.83 163.27 419.46 169.02 433.8" fill="#E0E0E0"/>
<path d="M112.77 337.31C113.096 337.398 113.411 337.522 113.71 337.68C114.31 337.94 115.16 338.34 116.2 338.84C118.29 339.84 121.14 341.33 124.26 343.02L132.26 347.36L134.68 348.65C134.988 348.791 135.28 348.966 135.55 349.17C135.224 349.077 134.906 348.956 134.6 348.81C134.01 348.55 133.16 348.14 132.12 347.63C130.04 346.63 127.21 345.08 124.12 343.4L116.12 339.12L113.7 337.83C113.368 337.7 113.055 337.525 112.77 337.31Z" fill="#E0E0E0"/>
<path d="M136.55 348.37C136.44 348.32 139.22 342.31 142.76 334.95C146.3 327.59 149.25 321.66 149.36 321.71C149.47 321.76 146.69 327.78 143.15 335.14C139.61 342.5 136.66 348.43 136.55 348.37Z" fill="#E0E0E0"/>
<path d="M148.26 382.67C148.449 382.382 148.667 382.114 148.91 381.87L150.79 379.78C152.37 378.02 154.54 375.57 156.79 372.78C159.04 369.99 161.09 367.41 162.52 365.52C163.2 364.64 163.76 363.89 164.22 363.29C164.409 363.002 164.63 362.737 164.88 362.5C164.744 362.817 164.569 363.116 164.36 363.39C163.99 363.94 163.46 364.74 162.77 365.71C161.4 367.64 159.44 370.27 157.13 373.06C154.82 375.85 152.61 378.28 150.97 379.99C150.15 380.84 149.48 381.53 148.97 381.99C148.758 382.241 148.52 382.469 148.26 382.67Z" fill="#E0E0E0"/>
<path d="M124.55 377.4C124.887 377.394 125.223 377.431 125.55 377.51L128.1 377.97C130.25 378.38 133.22 378.97 136.49 379.66C139.76 380.35 142.71 380.99 144.85 381.47L147.37 382.07C147.687 382.126 147.996 382.22 148.29 382.35C147.954 382.357 147.617 382.32 147.29 382.24L144.74 381.77C142.58 381.36 139.62 380.77 136.35 380.09C133.08 379.41 130.12 378.76 127.99 378.27L125.46 377.68C125.146 377.625 124.841 377.531 124.55 377.4Z" fill="#E0E0E0"/>
<path d="M131 409C131.411 409.016 131.819 409.069 132.22 409.16L135.49 409.74C138.25 410.25 142.06 410.98 146.25 411.81C150.44 412.64 154.25 413.43 157 414.02L160.24 414.73C160.643 414.799 161.038 414.906 161.42 415.05C161.013 415.041 160.607 414.991 160.21 414.9L156.94 414.32C154.18 413.81 150.37 413.08 146.17 412.24C141.97 411.4 138.17 410.62 135.43 410.04L132.18 409.32C131.778 409.247 131.383 409.14 131 409Z" fill="#E0E0E0"/>
<path d="M160.78 414.69C161.013 414.334 161.277 413.999 161.57 413.69L163.85 410.96C165.78 408.65 168.42 405.45 171.24 401.83C174.06 398.21 176.53 394.89 178.3 392.46L180.4 389.58C180.644 389.226 180.914 388.892 181.21 388.58C181.025 388.975 180.8 389.35 180.54 389.7C180.08 390.41 179.41 391.42 178.54 392.7C176.83 395.17 174.4 398.54 171.54 402.16C168.68 405.78 166.03 408.95 164.05 411.22C163.05 412.34 162.24 413.22 161.66 413.86C161.389 414.159 161.095 414.437 160.78 414.69Z" fill="#E0E0E0"/>
<path d="M382.879 293.985L312.66 336.411C309.096 338.564 307.952 343.199 310.106 346.763L379.541 461.686C381.694 465.25 386.329 466.394 389.894 464.24L460.112 421.815C463.676 419.661 464.82 415.026 462.667 411.462L393.231 296.54C391.078 292.975 386.443 291.832 382.879 293.985Z" fill="#EBEBEB"/>
<path d="M435.85 410.77C434.105 411.826 432.086 412.34 430.049 412.248C428.011 412.156 426.047 411.462 424.404 410.253C422.762 409.044 421.514 407.376 420.82 405.458C420.126 403.54 420.016 401.46 420.504 399.48C420.992 397.499 422.057 395.709 423.564 394.334C425.07 392.959 426.95 392.061 428.967 391.755C430.983 391.449 433.045 391.748 434.892 392.614C436.738 393.48 438.286 394.874 439.34 396.62C440.041 397.778 440.507 399.063 440.71 400.401C440.914 401.739 440.852 403.104 440.528 404.418C440.204 405.732 439.624 406.97 438.821 408.06C438.019 409.15 437.009 410.071 435.85 410.77Z" fill="white"/>
<path d="M437 423.39C436.123 423.393 435.25 423.285 434.4 423.07C431.752 422.408 429.456 420.761 427.981 418.465C426.505 416.168 425.962 413.395 426.46 410.712C426.959 408.028 428.462 405.636 430.664 404.023C432.866 402.409 435.6 401.697 438.309 402.03C441.018 402.364 443.498 403.718 445.243 405.817C446.988 407.916 447.867 410.601 447.7 413.326C447.533 416.05 446.333 418.608 444.345 420.479C442.356 422.349 439.73 423.39 437 423.39ZM437 402.77C435.263 402.773 433.559 403.237 432.06 404.115C430.562 404.993 429.323 406.253 428.471 407.766C427.618 409.279 427.183 410.992 427.209 412.728C427.236 414.465 427.723 416.163 428.62 417.65C429.964 419.853 432.121 421.439 434.624 422.066C437.127 422.692 439.777 422.31 442 421C443.66 419.996 444.986 418.522 445.809 416.765C446.631 415.008 446.914 413.046 446.622 411.128C446.33 409.21 445.476 407.421 444.167 405.989C442.858 404.556 441.154 403.544 439.27 403.08C438.506 402.879 437.72 402.775 436.93 402.77H437Z" fill="white"/>
<path d="M343 333.62L335.9 337.9L335.46 337.18L341.91 333.28L340.91 331.61L341.56 331.22L343 333.62Z" fill="white"/>
<path d="M341 344.81L340.35 345.2L337.35 340.2L337.86 339.88L342.53 341.09C342.902 341.245 343.305 341.315 343.707 341.296C344.11 341.277 344.504 341.169 344.86 340.98C345.68 340.48 345.86 339.6 345.19 338.52C344.988 338.142 344.703 337.814 344.357 337.561C344.011 337.309 343.612 337.137 343.19 337.06L343.32 336.27C343.855 336.382 344.359 336.61 344.797 336.938C345.234 337.267 345.593 337.687 345.85 338.17C346.72 339.61 346.54 340.97 345.36 341.68C344.916 341.926 344.422 342.069 343.915 342.1C343.409 342.132 342.901 342.049 342.43 341.86L338.6 340.86L341 344.81Z" fill="white"/>
<path d="M346.73 351.55L345.87 350.13L344 351.25L343.56 350.52L345.42 349.4L343 345.4L343.53 345.08L350.53 346L351.02 346.81L344.25 345.95L346.11 349.03L347.75 348.03L348.18 348.74L346.54 349.74L347.4 351.16L346.73 351.55Z" fill="white"/>
<path d="M353.3 362.42L352.44 361L350.58 362.13L350.14 361.4L352 360.27L349.58 356.27L350.11 355.95L357.11 356.87L357.6 357.68L350.83 356.82L352.69 359.9L354.34 358.9L354.76 359.61L353.12 360.61L354 362L353.3 362.42Z" fill="white"/>
<path d="M357.27 368.49C356.07 369.22 354.61 368.94 353.57 367.21C352.976 366.297 352.751 365.193 352.94 364.12H353.73C353.54 365.044 353.72 366.006 354.23 366.8C354.96 368 355.93 368.29 356.79 367.8C357.65 367.31 357.93 366.34 356.79 364.53L355.88 363.02L359.66 361.24L362 365.12L361.35 365.51L359.35 362.27L356.95 363.39L357.5 364.3C358.88 366.41 358.53 367.73 357.27 368.49Z" fill="white"/>
<path d="M361.54 375.48C361.233 375.662 360.891 375.779 360.536 375.822C360.181 375.865 359.821 375.834 359.478 375.73C359.136 375.627 358.819 375.453 358.548 375.221C358.276 374.989 358.055 374.702 357.9 374.38C356.76 372.49 357.45 370.68 359.69 369.32C362.1 367.87 364.15 368.43 365.31 370.32C365.691 370.891 365.912 371.554 365.95 372.24L365.18 372.3C365.171 371.736 364.997 371.187 364.68 370.72C363.76 369.19 362.18 368.8 360.26 369.96C360.067 370.076 359.88 370.203 359.7 370.34C360.215 370.306 360.729 370.425 361.177 370.681C361.625 370.937 361.988 371.319 362.22 371.78C362.441 372.059 362.6 372.382 362.687 372.728C362.773 373.074 362.784 373.434 362.719 373.784C362.655 374.135 362.517 374.467 362.313 374.76C362.11 375.052 361.846 375.298 361.54 375.48ZM361.08 374.78C361.303 374.644 361.494 374.463 361.64 374.247C361.786 374.031 361.885 373.787 361.928 373.53C361.972 373.273 361.96 373.01 361.893 372.758C361.826 372.506 361.706 372.271 361.54 372.07C361.448 371.813 361.3 371.58 361.106 371.388C360.912 371.196 360.677 371.05 360.419 370.961C360.161 370.872 359.886 370.843 359.615 370.875C359.344 370.906 359.083 370.999 358.853 371.145C358.622 371.291 358.427 371.487 358.283 371.718C358.138 371.95 358.047 372.211 358.017 372.482C357.987 372.754 358.019 373.028 358.109 373.286C358.2 373.543 358.347 373.777 358.54 373.97C358.646 374.197 358.797 374.4 358.985 374.566C359.173 374.732 359.394 374.857 359.632 374.933C359.871 375.009 360.123 375.035 360.372 375.008C360.622 374.982 360.863 374.904 361.08 374.78Z" fill="white"/>
<path d="M367.32 385.24C366.14 385.96 364.71 385.65 363.67 383.93C363.071 383.016 362.846 381.906 363.04 380.83H363.83C363.64 381.762 363.823 382.732 364.34 383.53C365.05 384.71 365.99 385.02 366.87 384.53C367.75 384.04 367.92 383.08 367.12 381.76L366.82 381.26L367.35 380.93L371 381.41L368.81 377.78L369.46 377.39L372.22 381.95L371.7 382.26L367.96 381.78C368.8 383.31 368.46 384.56 367.32 385.24Z" fill="white"/>
<path d="M371.7 392.31C371.392 392.492 371.049 392.608 370.694 392.65C370.338 392.693 369.978 392.661 369.636 392.556C369.293 392.452 368.976 392.277 368.705 392.044C368.434 391.81 368.214 391.523 368.06 391.2C366.92 389.32 367.61 387.5 369.85 386.15C372.26 384.69 374.32 385.25 375.48 387.15C375.855 387.72 376.072 388.379 376.11 389.06L375.35 389.12C375.335 388.557 375.162 388.009 374.85 387.54C373.92 386.01 372.35 385.62 370.42 386.79C370.26 386.88 370.06 387.02 369.86 387.16C370.376 387.131 370.889 387.251 371.338 387.507C371.786 387.762 372.152 388.142 372.39 388.6C372.611 388.881 372.769 389.205 372.855 389.552C372.94 389.899 372.951 390.26 372.885 390.611C372.82 390.963 372.68 391.296 372.476 391.589C372.272 391.882 372.007 392.128 371.7 392.31ZM371.25 391.6C371.472 391.464 371.662 391.281 371.807 391.065C371.953 390.849 372.05 390.605 372.092 390.348C372.135 390.091 372.122 389.828 372.054 389.576C371.987 389.325 371.866 389.091 371.7 388.89C371.611 388.628 371.463 388.389 371.268 388.192C371.073 387.996 370.836 387.846 370.574 387.754C370.313 387.662 370.034 387.631 369.758 387.662C369.483 387.694 369.219 387.788 368.985 387.937C368.751 388.086 368.554 388.286 368.409 388.522C368.264 388.758 368.174 389.023 368.147 389.299C368.119 389.575 368.155 389.853 368.251 390.113C368.347 390.373 368.5 390.608 368.7 390.8C368.807 391.027 368.961 391.229 369.15 391.394C369.339 391.559 369.561 391.683 369.8 391.758C370.04 391.833 370.292 391.858 370.541 391.831C370.791 391.803 371.032 391.725 371.25 391.6Z" fill="white"/>
<path d="M380.62 395.83L380.11 396.14L371.73 397.14L371.26 396.35L379.47 395.35L377.26 391.7L375.94 392.5L375.5 391.78L377.5 390.59L380.62 395.83Z" fill="white"/>
<path d="M386.75 406L386.24 406.31L377.86 407.31L377.39 406.52L385.6 405.52L383.39 401.87L382.06 402.68L381.63 401.96L383.63 400.76L386.75 406Z" fill="white"/>
<path d="M385.85 416.05C384.6 416.81 383.17 416.21 382.15 414.52C381.13 412.83 381.28 411.31 382.53 410.52C382.933 410.272 383.408 410.169 383.877 410.227C384.345 410.285 384.781 410.501 385.11 410.84C385.013 410.448 385.047 410.034 385.205 409.663C385.364 409.291 385.64 408.981 385.99 408.78C387.15 408.08 388.46 408.63 389.37 410.13C390.28 411.63 390.16 413.07 389.01 413.77C388.664 413.983 388.259 414.08 387.854 414.045C387.449 414.011 387.066 413.848 386.76 413.58C386.913 414.034 386.906 414.526 386.74 414.975C386.575 415.424 386.261 415.804 385.85 416.05ZM385.41 415.29C386.28 414.76 386.41 413.68 385.62 412.43C384.83 411.18 383.86 410.76 382.99 411.29C382.12 411.82 381.99 412.89 382.77 414.15C383.55 415.41 384.53 415.82 385.41 415.29ZM386.19 412.08C386.86 413.18 387.76 413.54 388.53 413.08C389.3 412.62 389.39 411.6 388.75 410.53C388.11 409.46 387.2 409.08 386.41 409.53C385.62 409.98 385.53 411 386.19 412.08Z" fill="white"/>
<path d="M391.65 422C389.24 423.46 387.18 422.9 386.02 421C385.646 420.426 385.429 419.764 385.39 419.08L386.15 419.02C386.165 419.583 386.338 420.131 386.65 420.6C387.58 422.13 389.15 422.52 391.08 421.36C391.24 421.26 391.44 421.13 391.64 420.98C391.124 421.011 390.611 420.891 390.162 420.635C389.713 420.38 389.347 419.999 389.11 419.54C388.895 419.261 388.741 418.939 388.658 418.596C388.576 418.253 388.567 417.897 388.632 417.55C388.697 417.204 388.835 416.875 389.036 416.585C389.238 416.296 389.498 416.052 389.8 415.87C390.107 415.686 390.45 415.569 390.805 415.525C391.16 415.481 391.521 415.512 391.863 415.615C392.206 415.719 392.523 415.893 392.795 416.126C393.066 416.359 393.286 416.647 393.44 416.97C394.58 418.79 393.89 420.6 391.65 422ZM392.45 420.15C392.667 419.998 392.851 419.803 392.99 419.576C393.128 419.35 393.219 419.098 393.255 418.835C393.292 418.572 393.274 418.305 393.202 418.049C393.131 417.794 393.008 417.556 392.84 417.35C392.742 417.103 392.59 416.88 392.395 416.698C392.201 416.516 391.968 416.38 391.715 416.298C391.461 416.216 391.193 416.191 390.929 416.225C390.665 416.259 390.411 416.35 390.187 416.493C389.962 416.636 389.772 416.827 389.629 417.052C389.487 417.277 389.396 417.531 389.363 417.795C389.33 418.06 389.355 418.328 389.438 418.581C389.52 418.834 389.658 419.066 389.84 419.26C389.953 419.489 390.112 419.694 390.305 419.861C390.499 420.028 390.724 420.154 390.967 420.232C391.211 420.311 391.467 420.339 391.722 420.317C391.977 420.294 392.224 420.22 392.45 420.1V420.15Z" fill="white"/>
<path d="M399.48 427L392.39 431.29L391.95 430.56L398.39 426.66L397.39 424.99L398.04 424.6L399.48 427Z" fill="white"/>
<path d="M397.45 438.23L396.8 438.63L393.8 433.63L394.32 433.32L398.99 434.52C399.363 434.674 399.765 434.744 400.168 434.725C400.57 434.706 400.964 434.599 401.32 434.41C402.14 433.92 402.32 433.03 401.64 431.95C401.441 431.57 401.156 431.241 400.81 430.988C400.463 430.735 400.063 430.564 399.64 430.49L399.77 429.71C400.308 429.819 400.814 430.046 401.254 430.375C401.693 430.703 402.054 431.125 402.31 431.61C403.18 433.05 403 434.4 401.81 435.12C401.367 435.364 400.875 435.506 400.37 435.535C399.864 435.564 399.359 435.481 398.89 435.29L395.06 434.29L397.45 438.23Z" fill="white"/>
<path d="M402.68 443.76C401.49 444.48 400.06 444.17 399.03 442.45C398.431 441.535 398.206 440.426 398.4 439.35H399.19C399 440.282 399.183 441.251 399.7 442.05C400.41 443.22 401.35 443.54 402.23 443.05C403.11 442.56 403.23 441.6 402.48 440.28L402.17 439.77L402.71 439.45L406.36 439.93L404.17 436.3L404.82 435.91L407.57 440.47L407.06 440.78L403.32 440.3C404.16 441.83 403.82 443.07 402.68 443.76Z" fill="white"/>
<path d="M365.091 394.143L361.995 396.015L396.528 453.128L399.624 451.256L365.091 394.143Z" fill="white"/>
<path d="M372.982 425.024L369.901 426.886L387.514 456.038L390.596 454.176L372.982 425.024Z" fill="white"/>
<path d="M376.165 334.368L366.888 319.013C365.471 316.669 362.422 315.916 360.077 317.333L350.748 322.97C348.403 324.386 347.651 327.435 349.068 329.78L358.345 345.135C359.762 347.479 362.811 348.232 365.155 346.815L374.485 341.178C376.829 339.762 377.582 336.713 376.165 334.368Z" fill="#E0E0E0"/>
<path d="M351.43 322.54L352.57 321.85L360 334.13C360.204 334.468 360.472 334.762 360.789 334.996C361.106 335.229 361.466 335.399 361.849 335.493C362.232 335.588 362.629 335.606 363.019 335.548C363.408 335.489 363.783 335.354 364.12 335.15C364.458 334.947 364.752 334.678 364.986 334.361C365.22 334.044 365.389 333.684 365.483 333.301C365.578 332.919 365.597 332.521 365.538 332.132C365.479 331.742 365.344 331.368 365.14 331.03L357.72 318.75L358.86 318.06L366.28 330.34C366.874 331.324 367.053 332.504 366.777 333.62C366.502 334.735 365.794 335.696 364.81 336.29C363.826 336.884 362.647 337.063 361.531 336.787C360.415 336.512 359.454 335.804 358.86 334.82L351.43 322.54Z" fill="#EBEBEB"/>
<path d="M367.59 335.245L366.438 335.942L371.559 344.413L372.712 343.716L367.59 335.245Z" fill="#EBEBEB"/>
<path d="M417.757 370.062L380.699 308.728L375.435 311.908L412.493 373.243L417.757 370.062Z" fill="white"/>
<path d="M209.3 33.61C208.54 44.41 209.3 64.53 205.37 74.61C201.44 84.69 196.19 95.09 186.37 99.61C174.25 105.17 160.01 102.81 147.08 106.07C126.82 111.17 112.16 129.76 105.91 149.7C99.6602 169.64 100.35 191 101.1 211.88L204.5 226.22C204.5 226.22 205.04 184.22 214.06 172.73C223.08 161.24 265.93 150.93 280.06 119.52C292.8 91.25 296.64 46.42 296.64 46.42L209.3 33.61Z" fill="#F5F5F5"/>
<path d="M234.56 62L233.22 59.53C233.034 59.5442 232.847 59.5442 232.66 59.53L230.76 59.3L230.48 61.54L229.74 61.45L230.61 54.38L233.25 54.71C235.05 54.93 236.02 55.98 235.84 57.49C235.798 57.988 235.588 58.4568 235.244 58.82C234.901 59.1833 234.445 59.4195 233.95 59.49L235.37 62.12L234.56 62ZM235.09 57.36C235.23 56.23 234.56 55.49 233.15 55.36L231.27 55.13L230.84 58.67L232.71 58.9C234.13 59 235 58.48 235.09 57.37V57.36Z" fill="#E0E0E0"/>
<path d="M242.1 62.29L242.02 62.93L237.02 62.32L237.89 55.26L242.73 55.85L242.65 56.5L238.57 56L238.26 58.52L241.91 58.97L241.83 59.6L238.18 59.15L237.85 61.77L242.1 62.29Z" fill="#E0E0E0"/>
<path d="M243.54 59.54C243.594 59.0557 243.745 58.5874 243.985 58.1637C244.226 57.74 244.55 57.3699 244.939 57.0759C245.327 56.782 245.772 56.5704 246.245 56.4542C246.718 56.338 247.21 56.3195 247.69 56.4C248.17 56.4415 248.636 56.583 249.058 56.8156C249.48 57.0481 249.849 57.3664 250.14 57.75L249.61 58.17C249.373 57.856 249.073 57.5957 248.728 57.4061C248.383 57.2166 248.002 57.102 247.61 57.07C247.218 57.0053 246.817 57.0203 246.431 57.1143C246.046 57.2083 245.683 57.3792 245.364 57.6169C245.046 57.8546 244.779 58.1541 244.579 58.4975C244.38 58.8409 244.251 59.2211 244.202 59.6153C244.153 60.0094 244.184 60.4095 244.293 60.7914C244.402 61.1734 244.587 61.5293 244.838 61.8379C245.088 62.1465 245.397 62.4015 245.749 62.5874C246.1 62.7733 246.485 62.8865 246.88 62.92C247.268 62.9826 247.664 62.9624 248.044 62.8607C248.423 62.759 248.776 62.5781 249.08 62.33L249.49 62.87C249.111 63.171 248.674 63.3896 248.205 63.5119C247.737 63.6341 247.248 63.6573 246.77 63.58C246.289 63.537 245.821 63.397 245.395 63.1684C244.97 62.9398 244.594 62.6273 244.293 62.2498C243.991 61.8723 243.769 61.4376 243.639 60.9719C243.51 60.5061 243.476 60.0191 243.54 59.54Z" fill="#E0E0E0"/>
<path d="M256.06 63.9999L255.98 64.6499L251 63.9999L251.87 56.9399L256.71 57.5399L256.63 58.1799L252.53 57.6799L252.22 60.1899L255.87 60.6399L255.8 61.2799L252.15 60.8299L251.82 63.4499L256.06 63.9999Z" fill="#E0E0E0"/>
<path d="M258.61 57.8099L259.35 57.9099L258.48 64.9999L257.73 64.8999L258.61 57.8099Z" fill="#E0E0E0"/>
<path d="M266.88 61.2899C266.69 62.7999 265.49 63.5699 263.7 63.3499L261.8 63.1099L261.53 65.3399L260.78 65.2499L261.65 58.1899L264.29 58.5199C266.09 58.7399 267.07 59.7799 266.88 61.2899ZM266.13 61.1999C266.27 60.0699 265.61 59.3399 264.19 59.1999L262.32 58.9699L261.88 62.4999L263.76 62.7299C265.17 62.8699 266 62.3099 266.13 61.1999Z" fill="#E0E0E0"/>
<path d="M269.85 59.86L267.37 59.55L267.45 58.91L273.16 59.61L273.08 60.26L270.6 60L269.81 66.42L269.06 66.32L269.85 59.86Z" fill="#E0E0E0"/>
<path d="M258.68 79.25C258.68 79.4 249.23 78.25 237.63 76.65C226.03 75.05 216.63 73.65 216.63 73.53C216.63 73.41 226.07 74.53 237.63 76.13C249.19 77.73 258.69 79.11 258.68 79.25Z" fill="#E0E0E0"/>
<path d="M257.54 87.67C257.54 87.82 248.1 86.67 236.54 85.07C224.98 83.47 215.54 82.07 215.54 81.95C215.54 81.83 224.98 82.95 236.54 84.55C248.1 86.15 257.56 87.53 257.54 87.67Z" fill="#E0E0E0"/>
<path d="M253.69 96.2599C253.69 96.3999 244.25 95.2599 232.69 93.6599C221.13 92.0599 211.69 90.6599 211.69 90.5299C211.69 90.3999 221.12 91.5299 232.69 93.1399C244.26 94.7499 253.71 96.1199 253.69 96.2599Z" fill="#E0E0E0"/>
<path d="M246.68 104.92C246.68 105.07 237.24 103.92 225.63 102.32C214.02 100.72 204.63 99.32 204.63 99.2C204.63 99.08 214.07 100.2 225.68 101.8C237.29 103.4 246.7 104.78 246.68 104.92Z" fill="#E0E0E0"/>
<path d="M235.51 113.57C235.51 113.71 226.07 112.57 214.51 110.96C202.95 109.35 193.51 107.96 193.51 107.84C193.51 107.72 202.95 108.84 214.51 110.45C226.07 112.06 235.53 113.42 235.51 113.57Z" fill="#E0E0E0"/>
<path d="M277.51 82.06C274.043 81.8444 270.606 81.285 267.25 80.39C268.991 80.4133 270.726 80.6076 272.43 80.97C274.155 81.1632 275.857 81.5284 277.51 82.06Z" fill="#E0E0E0"/>
<path d="M277.15 89.57C275.419 89.5481 273.694 89.3572 272 89C270.275 88.8068 268.573 88.4417 266.92 87.91C268.659 87.9219 270.392 88.1163 272.09 88.49C273.808 88.6842 275.503 89.0459 277.15 89.57Z" fill="#E0E0E0"/>
<path d="M274.6 100C272.858 99.969 271.123 99.768 269.42 99.4C267.701 99.1826 266.002 98.8247 264.34 98.33C264.34 98.15 266.68 98.42 269.51 98.88C271.24 99.0819 272.945 99.4571 274.6 100Z" fill="#E0E0E0"/>
<path d="M270.92 108.75C269.178 108.719 267.443 108.518 265.74 108.15C264.021 107.931 262.322 107.573 260.66 107.08C260.66 106.9 263 107.17 265.83 107.63C267.56 107.83 269.266 108.206 270.92 108.75Z" fill="#E0E0E0"/>
<path d="M263 117.1C261.258 117.069 259.523 116.868 257.82 116.5C256.1 116.288 254.4 115.93 252.74 115.43C252.74 115.25 255.08 115.52 257.9 115.99C259.633 116.191 261.341 116.563 263 117.1Z" fill="#E0E0E0"/>
<path d="M226 124.13C226 124.27 211.84 122.39 194.42 119.92C177 117.45 162.88 115.34 162.9 115.2C162.92 115.06 177.06 116.94 194.49 119.41C211.92 121.88 226 124 226 124.13Z" fill="#E0E0E0"/>
<path d="M218.66 133C218.426 132.993 218.192 132.973 217.96 132.94L215.96 132.68L208.66 131.61L184.6 127.91C175.21 126.43 166.72 125.05 160.6 124.02L153.33 122.77C152.47 122.61 151.81 122.49 151.33 122.39C151.098 122.356 150.869 122.296 150.65 122.21C150.885 122.218 151.12 122.245 151.35 122.29L153.35 122.57L160.65 123.66L184.71 127.39L208.71 131.25L215.98 132.48L217.98 132.84C218.213 132.865 218.441 132.918 218.66 133Z" fill="#E0E0E0"/>
<path d="M205.46 141.06C204.587 141.08 203.715 141.003 202.86 140.83C201.17 140.61 198.72 140.27 195.69 139.83C189.64 138.96 181.29 137.69 172.08 136.25C162.87 134.81 154.52 133.46 148.49 132.46L141.35 131.26L139.42 130.9C139.191 130.872 138.967 130.819 138.75 130.74C138.978 130.733 139.206 130.753 139.43 130.8L141.38 131.05L148.55 132.05L172.16 135.68L195.75 139.42L205.46 141.06Z" fill="#E0E0E0"/>
<path d="M249.79 129C248.048 128.969 246.313 128.768 244.61 128.4C242.891 128.181 241.192 127.823 239.53 127.33C239.53 127.15 241.87 127.42 244.7 127.88C246.431 128.079 248.136 128.454 249.79 129Z" fill="#E0E0E0"/>
<path d="M239.6 134.66C237.858 134.629 236.123 134.428 234.42 134.06C232.701 133.841 231.002 133.483 229.34 132.99C229.34 132.81 231.68 133.08 234.51 133.54C236.241 133.739 237.946 134.114 239.6 134.66Z" fill="#E0E0E0"/>
<path d="M225.88 144.21C224.138 144.179 222.403 143.978 220.7 143.61C218.98 143.397 217.28 143.039 215.62 142.54C215.62 142.36 217.96 142.63 220.79 143.1C222.52 143.299 224.225 143.671 225.88 144.21Z" fill="#E0E0E0"/>
<path d="M199.66 159.29C199.66 159.44 182.15 156.86 160.66 153.55C139.17 150.24 121.66 147.43 121.66 147.29C121.66 147.15 139.16 149.72 160.66 153.04C182.16 156.36 199.68 159.15 199.66 159.29Z" fill="#E0E0E0"/>
<path d="M189.19 178.22C189.19 178.36 183.43 177.55 176.39 176.41C169.35 175.27 163.65 174.23 163.67 174.09C163.69 173.95 169.43 174.76 176.47 175.9C183.51 177.04 189.21 178.07 189.19 178.22Z" fill="#E0E0E0"/>
<path d="M465.41 463.75C465.41 463.9 368.96 464.01 250.01 464.01C131.06 464.01 34.5898 463.9 34.5898 463.75C34.5898 463.6 131.02 463.49 250.01 463.49C369 463.49 465.41 463.61 465.41 463.75Z" fill="#263238"/>
<path d="M141.49 124.52L141.57 128.52C141.57 128.52 143.2 159.52 143.1 164.18C143 168.84 127.45 195.43 127.45 195.43L137 211L159.8 170L154.34 126L154.2 124.91" fill="#FFBE9D"/>
<path d="M153.07 119.73L150 108.44L138 115.38C138 116.38 141.59 124.52 141.59 124.52L143.67 126.68C143.67 126.68 154.1 125.58 154.32 125.47C154.54 125.36 153.07 119.73 153.07 119.73Z" fill="#FFBE9D"/>
<path d="M150.37 109.24C150.37 109.24 150.44 109.33 150.49 109.48C150.95 110.7 152.29 116.21 151.68 116.62C151.07 117.03 149.01 117.13 148.68 116.44C148.35 115.75 147.21 109.44 147.21 109.44C147.21 109.44 147.09 108.44 148.67 107.77C149.65 107.39 150.37 109.24 150.37 109.24Z" fill="#FFBE9D"/>
<path d="M146.57 108.12C146.57 108.12 146.64 108.21 146.69 108.35C147.15 109.58 148.49 115.08 147.88 115.49C147.27 115.9 145.21 116 144.88 115.31C144.55 114.62 143.41 108.31 143.41 108.31C143.41 108.31 143.3 107.31 144.87 106.65C145.85 106.26 146.57 108.12 146.57 108.12Z" fill="#FFBE9D"/>
<path d="M143.1 108C143.158 108.069 143.199 108.152 143.22 108.24C143.68 109.46 145.01 114.97 144.4 115.38C143.79 115.79 141.74 115.89 141.4 115.2C141.06 114.51 139.93 108.2 139.93 108.2C139.93 108.2 139.81 107.2 141.39 106.54C142.38 106.11 143.1 108 143.1 108Z" fill="#FFBE9D"/>
<path d="M139.66 107.86C139.718 107.93 139.759 108.012 139.78 108.1C140.24 109.32 141.57 114.83 140.96 115.24C140.35 115.65 138.29 115.75 137.96 115.06C137.63 114.37 136.49 108.06 136.49 108.06C136.49 108.06 136.37 107.06 137.95 106.4C138.94 106 139.66 107.86 139.66 107.86Z" fill="#FFBE9D"/>
<path d="M148.25 114.84C148.225 113.912 148.08 112.991 147.82 112.1C147.678 111.198 147.422 110.318 147.06 109.48C147.084 110.408 147.229 111.329 147.49 112.22C147.631 113.122 147.887 114.002 148.25 114.84Z" fill="#EB996E"/>
<path d="M145 115.69C144.898 114.382 144.674 113.086 144.33 111.82C144.119 110.524 143.784 109.252 143.33 108.02C143.443 109.327 143.668 110.621 144 111.89C144.223 113.183 144.558 114.454 145 115.69Z" fill="#EB996E"/>
<g opacity="0.78">
<path opacity="0.78" d="M141.67 116.27C141.557 114.96 141.332 113.662 141 112.39C140.776 111.097 140.442 109.826 140 108.59C140.101 109.901 140.326 111.2 140.67 112.47C140.882 113.765 141.217 115.038 141.67 116.27Z" fill="#EB996E"/>
</g>
<path d="M144.27 123.42L140.63 120.48C139.035 119.195 137.999 117.342 137.74 115.31L137.54 113.76L148.54 111.54C148.54 111.54 148.54 115.63 145.44 115.68L149.31 117.68L144.27 123.42Z" fill="#FFBE9D"/>
<path d="M148.78 118.47C148.73 118.47 148.49 118.02 147.83 117.41C146.918 116.569 145.73 116.089 144.49 116.06H143.31L144.42 115.65L146.96 114.71C147.468 114.438 147.888 114.026 148.168 113.522C148.448 113.019 148.577 112.445 148.54 111.87C148.531 111.782 148.514 111.695 148.49 111.61L148.8 111.78C145.73 112.54 142.95 113.18 140.92 113.53C139.92 113.71 139.08 113.82 138.5 113.89C138.205 113.932 137.905 113.932 137.61 113.89C138.673 113.581 139.751 113.327 140.84 113.13C142.84 112.7 145.6 112 148.67 111.24L148.91 111.18L148.98 111.41C149.015 111.525 149.042 111.641 149.06 111.76C149.136 112.461 148.97 113.166 148.59 113.76C148.235 114.292 147.767 114.739 147.22 115.07L144.65 115.95L144.58 115.53C145.919 115.584 147.183 116.162 148.1 117.14C148.448 117.51 148.684 117.971 148.78 118.47Z" fill="#EB996E"/>
<path d="M148.11 113.38C148.2 113.38 148.38 113.88 148.94 114.38C149.081 114.518 149.263 114.608 149.459 114.636C149.655 114.665 149.854 114.631 150.03 114.54C150.225 114.377 150.373 114.166 150.459 113.927C150.545 113.687 150.566 113.43 150.52 113.18C150.39 111.94 150.32 110.78 150.21 109.98C150.1 109.18 149.96 108.67 150.04 108.64C150.12 108.61 150.35 109.08 150.57 109.91C150.798 110.978 150.955 112.061 151.04 113.15C151.095 113.491 151.053 113.841 150.918 114.159C150.784 114.478 150.563 114.752 150.28 114.95C150.02 115.083 149.723 115.127 149.436 115.074C149.148 115.022 148.886 114.876 148.69 114.66C148.453 114.402 148.275 114.094 148.17 113.76C148.1 113.53 148.08 113.4 148.11 113.38Z" fill="#EB996E"/>
<path d="M110.73 149.66C113.39 149.5 115.86 151.12 117.73 153.06C119.6 155 120.98 157.3 122.89 159.17C124.31 160.56 126.03 161.76 126.89 163.55C128.26 166.41 127.11 170.1 128.89 172.76C129.89 174.25 131.58 175.13 132.59 176.6C133.84 178.45 133.75 180.87 133.47 183.09C133.403 184.651 132.855 186.153 131.9 187.39C131.009 188.22 129.927 188.818 128.75 189.13C120.022 192.083 110.597 192.286 101.75 189.71" fill="#263238"/>
<path d="M92.3998 167.49C92.1707 165.663 92.3108 163.809 92.8118 162.037C93.3128 160.266 94.1644 158.613 95.3162 157.177C96.468 155.74 97.8965 154.55 99.517 153.676C101.137 152.803 102.917 152.263 104.75 152.09C108.299 151.816 111.819 152.904 114.595 155.133C117.37 157.363 119.192 160.565 119.69 164.09C120.544 169.109 121.132 174.169 121.45 179.25C121.36 186.31 117.23 189.05 115.56 189.88C114.958 190.099 114.334 190.253 113.7 190.34C113.7 190.34 113.7 190.34 113.7 190.39L115.27 198.49C115.98 203.8 113.02 208.49 107.72 209.3C102.42 210.11 98.2498 206 97.4398 200.69L92.3998 167.49Z" fill="#FFBE9D"/>
<path d="M118.47 168.26C118.36 168.42 117.47 167.92 116.23 168.1C114.99 168.28 114.23 169 114.1 168.87C113.97 168.74 114.1 168.54 114.47 168.2C114.935 167.768 115.521 167.489 116.15 167.4C116.771 167.312 117.404 167.42 117.96 167.71C118.37 167.94 118.53 168.18 118.47 168.26Z" fill="#263238"/>
<path d="M107.85 170.56C107.73 170.72 106.85 170.22 105.61 170.4C104.37 170.58 103.61 171.3 103.47 171.18C103.33 171.06 103.47 170.84 103.84 170.51C104.304 170.07 104.896 169.79 105.53 169.71C106.15 169.612 106.785 169.718 107.34 170.01C107.74 170.24 107.91 170.48 107.85 170.56Z" fill="#263238"/>
<path d="M112 176.2C112.603 175.917 113.237 175.705 113.89 175.57C114.19 175.49 114.47 175.39 114.49 175.18C114.467 174.859 114.349 174.553 114.15 174.3L112.91 172.11C111.79 170.262 110.817 168.33 110 166.33C111.272 168.078 112.4 169.928 113.37 171.86C113.79 172.63 114.19 173.37 114.58 174.07C114.822 174.414 114.939 174.831 114.91 175.25C114.879 175.364 114.824 175.469 114.748 175.559C114.672 175.649 114.577 175.721 114.47 175.77C114.309 175.836 114.142 175.883 113.97 175.91C113.33 176.096 112.667 176.193 112 176.2Z" fill="#263238"/>
<path d="M113.65 190.39C113.65 190.39 109.1 191.44 102.83 188.81C102.83 188.81 105.53 194.64 114.08 192.57L113.65 190.39Z" fill="#EB996E"/>
<path d="M111.89 179.15C111.625 178.906 111.304 178.731 110.954 178.642C110.605 178.553 110.239 178.552 109.89 178.64C109.631 178.702 109.387 178.816 109.172 178.974C108.957 179.132 108.776 179.331 108.64 179.56C108.511 179.783 108.453 180.04 108.472 180.297C108.492 180.554 108.589 180.799 108.75 181C108.975 181.185 109.25 181.299 109.539 181.329C109.829 181.359 110.121 181.304 110.38 181.17C110.912 180.882 111.384 180.495 111.77 180.03C111.889 179.915 111.988 179.779 112.06 179.63C112.095 179.558 112.106 179.478 112.094 179.399C112.081 179.32 112.045 179.247 111.99 179.19" fill="#EB996E"/>
<path d="M108.59 177.54C108.78 177.54 108.97 178.8 110.21 179.54C111.45 180.28 112.82 179.95 112.85 180.13C112.88 180.31 112.58 180.43 112 180.53C111.242 180.651 110.466 180.498 109.81 180.1C109.176 179.724 108.716 179.113 108.53 178.4C108.4 177.89 108.5 177.55 108.59 177.54Z" fill="#263238"/>
<path d="M107 166.67C106.93 167.02 105.71 167.03 104.33 167.41C102.95 167.79 101.88 168.33 101.65 168.06C101.55 167.94 101.65 167.6 102.11 167.22C102.663 166.747 103.318 166.405 104.023 166.222C104.728 166.038 105.465 166.017 106.18 166.16C106.76 166.29 107.05 166.51 107 166.67Z" fill="#263238"/>
<path d="M117.27 164.58C117.1 164.88 116.27 164.72 115.27 164.85C114.27 164.98 113.47 165.3 113.27 165.04C113.07 164.78 113.27 164.62 113.58 164.31C114.027 163.93 114.577 163.693 115.16 163.63C115.742 163.552 116.333 163.661 116.85 163.94C117.18 164.17 117.34 164.43 117.27 164.58Z" fill="#263238"/>
<path d="M121.07 162.55C119.61 164.78 114.98 163.4 112.18 161.87C110.722 162.804 108.956 163.131 107.26 162.782C105.563 162.432 104.071 161.434 103.1 160C101.5 162 98.25 161.37 97.1 159.07C95.95 156.77 96.58 153.61 98.21 151.6C99.8477 149.723 102.104 148.495 104.57 148.14C107.4 147.59 110.328 147.882 112.994 148.978C115.66 150.075 117.946 151.928 119.57 154.31C121.11 156.64 122.04 159.77 121.12 162.56" fill="#263238"/>
<path d="M98.5897 151.43C93.3397 150.43 88.2797 155.66 87.7497 159.43C86.8397 165.93 87.7497 166.74 86.5297 169.85C85.7597 171.85 83.0897 173.95 82.0397 176.04C80.8997 178.28 80.9097 182.04 81.6997 184.46C82.3597 186.46 85.0697 192.09 85.0697 192.09C85.0697 192.09 92.8697 191.84 96.8597 190.82C97.8907 190.609 98.857 190.156 99.6797 189.5C100.44 188.81 98.8697 186.43 99.0197 185.42C99.4297 182.54 101.58 180.87 101.02 178.03C100.2 174.26 97.2297 174.03 97.2897 170.2C97.2897 168.2 100.38 165.2 100.66 163.2C100.94 161.2 102.12 154.1 98.6597 151.48" fill="#263238"/>
<path d="M89.7097 192.3C89.7097 192.3 89.3297 191.86 88.7097 191.06C87.7835 189.933 87.004 188.693 86.3897 187.37C85.4631 185.421 85.0697 183.261 85.2497 181.11C85.349 179.804 85.7059 178.531 86.2998 177.364C86.8936 176.197 87.7127 175.159 88.7097 174.31C89.7897 173.44 91.0197 172.78 92.0697 171.9C93.1131 171.06 93.8768 169.923 94.2597 168.64C94.5706 167.503 94.788 166.342 94.9097 165.17C95.0132 164.17 95.2108 163.183 95.4997 162.22C95.6902 161.53 96.0225 160.887 96.4753 160.333C96.9281 159.778 97.4916 159.324 98.1297 159C98.6221 158.798 99.1477 158.69 99.6797 158.68C99.5445 158.634 99.4022 158.614 99.2597 158.62C98.8491 158.613 98.4412 158.688 98.0597 158.84C97.3668 159.14 96.7481 159.588 96.2471 160.153C95.7461 160.718 95.3749 161.386 95.1597 162.11C94.8345 163.084 94.61 164.09 94.4897 165.11C94.3577 166.257 94.1302 167.391 93.8097 168.5C93.4439 169.689 92.7212 170.736 91.7397 171.5C90.7397 172.34 89.4997 172.99 88.3697 173.91C87.3285 174.796 86.4753 175.882 85.8605 177.103C85.2456 178.324 84.8815 179.656 84.7897 181.02C84.6242 183.241 85.0594 185.465 86.0497 187.46C86.7022 188.792 87.5368 190.027 88.5297 191.13C88.8797 191.51 89.1797 191.8 89.3797 191.98C89.474 192.102 89.5851 192.209 89.7097 192.3Z" fill="#455A64"/>
<path d="M127.87 188.9C127.87 188.9 127.95 188.81 128.07 188.62C128.233 188.335 128.38 188.041 128.51 187.74C128.963 186.615 129.194 185.413 129.19 184.2C129.199 182.382 128.689 180.599 127.72 179.06C127.113 178.19 126.444 177.365 125.72 176.59C124.975 175.793 124.439 174.825 124.16 173.77C123.69 171.58 124.41 169.37 124.26 167.33C124.22 165.52 123.725 163.748 122.82 162.18C122.196 161.139 121.365 160.238 120.38 159.53C120.11 159.344 119.83 159.174 119.54 159.02L119.23 158.88C119.55 159.16 119.883 159.424 120.23 159.67C121.152 160.409 121.923 161.319 122.5 162.35C123.331 163.886 123.774 165.603 123.79 167.35C123.808 168.387 123.745 169.423 123.6 170.45C123.439 171.586 123.463 172.741 123.67 173.87C123.966 174.992 124.537 176.023 125.33 176.87C126.049 177.629 126.717 178.434 127.33 179.28C128.28 180.744 128.8 182.445 128.83 184.19C128.864 185.371 128.688 186.55 128.31 187.67C128.06 188.47 127.83 188.88 127.87 188.9Z" fill="#455A64"/>
<path d="M105.66 148.92C106.789 148.905 107.919 148.969 109.04 149.11C111.727 149.561 114.189 150.89 116.04 152.89C117.792 154.977 118.955 157.494 119.41 160.18C119.565 161.303 119.622 162.437 119.58 163.57C119.688 163.278 119.752 162.971 119.77 162.66C119.868 161.823 119.868 160.977 119.77 160.14C119.404 157.35 118.241 154.725 116.42 152.58C114.504 150.503 111.921 149.162 109.12 148.79C108.279 148.687 107.43 148.687 106.59 148.79C106.275 148.784 105.961 148.828 105.66 148.92Z" fill="#455A64"/>
<path d="M113.2 159.29C113.278 159.034 113.315 158.767 113.31 158.5C113.333 157.766 113.256 157.033 113.08 156.32C112.804 155.13 112.289 154.009 111.567 153.025C110.844 152.04 109.929 151.213 108.876 150.594C107.824 149.975 106.656 149.576 105.445 149.422C104.234 149.269 103.003 149.363 101.83 149.7C101.128 149.892 100.455 150.178 99.8297 150.55C99.3897 150.83 99.1697 151.01 99.1897 151.04C100.066 150.622 100.98 150.287 101.92 150.04C104.207 149.455 106.632 149.799 108.667 150.996C110.701 152.194 112.18 154.147 112.78 156.43C112.999 157.37 113.139 158.327 113.2 159.29Z" fill="#455A64"/>
<path d="M90.5598 238.26C90.5598 238.26 94.0198 246.14 93.8198 249.87C93.6198 253.6 90.0498 265.72 90.0498 265.72L132.34 269.67L132.53 259.89L131.26 219.66L154.84 183.79L137 173.45L119.65 197L115.26 195.3L96.2598 197.7V201L95.7198 201.06C91.5528 201.946 87.5597 203.51 83.8998 205.69C80.5725 207.763 77.9353 210.776 76.3224 214.349C74.7095 217.922 74.1935 221.893 74.8398 225.76C75.6098 230.56 77.1098 236.39 79.9898 239.76C85.5298 246.22 90.5598 238.26 90.5598 238.26Z" fill="#81C784"/>
<path d="M84.5598 219.48C84.5598 219.48 82.3998 207.2 82.9998 206.31C83.7398 205.26 92.6298 201.44 92.7598 201.83L94.7098 215.33L84.5598 219.48Z" fill="#FAFAFA"/>
<path d="M120.6 220.16L119.59 243.71H128.48V220.16H120.6Z" fill="#FAFAFA"/>
<path d="M105.89 231.94C106.056 231.921 106.224 231.921 106.39 231.94H107.92L113.77 231.85H113.94V232.03C114 237.68 114.03 246.13 114.03 255.58V255.84H104.61V255.58C104.94 248.79 105.24 242.89 105.45 238.58C105.57 236.58 105.66 234.91 105.73 233.71C105.73 233.18 105.79 232.71 105.82 232.42C105.802 232.281 105.802 232.14 105.82 232C105.83 232.16 105.83 232.32 105.82 232.48C105.82 232.84 105.82 233.28 105.82 233.82C105.82 235.04 105.74 236.7 105.68 238.76C105.53 242.99 105.32 248.83 105.08 255.56L104.83 255.3H113.72L113.46 255.56C113.46 246.11 113.46 237.66 113.55 232.01L113.72 232.18L108 232H106.43L105.89 231.94Z" fill="#FAFAFA"/>
<path d="M140.18 205.59L130.8 199.66L139.04 187.63L148.65 193.21L140.18 205.59Z" fill="#FAFAFA"/>
<g opacity="0.4">
<path opacity="0.4" d="M130.8 206.31H103.27V215.24H130.8V206.31Z" fill="white"/>
</g>
<path d="M130.4 230.6C130.352 230.329 130.352 230.051 130.4 229.78C130.47 229.25 130.56 228.49 130.64 227.56C130.857 225.118 130.857 222.662 130.64 220.22C130.411 217.778 129.963 215.361 129.3 213C128.8 211.19 128.39 210.09 128.47 210.06C128.55 210.03 128.64 210.3 128.85 210.79C129.156 211.475 129.427 212.176 129.66 212.89C130.427 215.254 130.93 217.695 131.16 220.17C131.393 222.644 131.343 225.137 131.01 227.6C130.913 228.343 130.776 229.081 130.6 229.81C130.576 230.082 130.508 230.349 130.4 230.6Z" fill="#263238"/>
<path d="M143.75 177.36C143.282 178.101 142.743 178.795 142.14 179.43C141.14 180.66 139.63 182.34 137.98 184.18L136.22 186.12L136.07 186.29L135.89 186.17C134.38 185.17 133.09 184.24 132.19 183.59C131.68 183.279 131.212 182.902 130.8 182.47C131.349 182.701 131.872 182.989 132.36 183.33C133.31 183.91 134.64 184.75 136.17 185.75H135.85L137.59 183.75C139.24 181.91 140.75 180.28 141.86 179.11C142.434 178.469 143.067 177.884 143.75 177.36Z" fill="#FAFAFA"/>
<path d="M153.47 185.87C152.51 185.527 151.583 185.098 150.7 184.59C149.01 183.74 146.7 182.52 144.17 181.16C141.64 179.8 139.36 178.53 137.72 177.6C136.811 177.135 135.941 176.597 135.12 175.99C136.082 176.334 137.012 176.762 137.9 177.27C139.58 178.13 141.9 179.34 144.42 180.7C146.94 182.06 149.23 183.33 150.87 184.26C151.78 184.722 152.65 185.261 153.47 185.87Z" fill="#263238"/>
<path d="M58.3499 431.12L53.8199 451.6L45.5599 466.78C45.4162 467.04 45.3281 467.327 45.301 467.623C45.2738 467.919 45.3084 468.217 45.4023 468.499C45.4963 468.781 45.6477 469.041 45.8469 469.261C46.0461 469.481 46.2889 469.658 46.5599 469.78C46.8753 469.929 47.2225 469.999 47.571 469.983C47.9196 469.968 48.2591 469.867 48.5599 469.69C52.3999 467.47 66.4899 459.23 66.7399 457.69C67.0299 455.93 72.9599 436.39 72.9599 436.39L58.3499 431.12Z" fill="#81C784"/>
<g opacity="0.6">
<path opacity="0.6" d="M46.5498 469.76L66.9998 456.32L66.7898 457.18C66.6056 457.907 66.1787 458.549 65.5798 459C63.9098 460.2 59.2398 463.43 48.5798 469.65C48.2771 469.823 47.9369 469.92 47.5884 469.932C47.24 469.944 46.8939 469.871 46.5798 469.72L46.5498 469.76Z" fill="white"/>
</g>
<g opacity="0.6">
<path opacity="0.6" d="M64.4699 448.72C64.1729 448.843 63.932 449.071 63.7935 449.361C63.655 449.651 63.6288 449.982 63.7199 450.29C63.8308 450.589 64.0527 450.834 64.3395 450.974C64.6264 451.113 64.956 451.137 65.2599 451.04C65.5739 450.91 65.8286 450.669 65.9746 450.362C66.1206 450.055 66.1474 449.705 66.0499 449.38C65.8989 449.08 65.6382 448.849 65.3218 448.735C65.0053 448.622 64.6574 448.634 64.3499 448.77" fill="white"/>
</g>
<path d="M53.3898 462C53.0587 461.251 52.5869 460.572 51.9998 460C51.3231 459.528 50.563 459.189 49.7598 459C49.7598 458.94 50.0498 458.85 50.5498 458.9C51.1917 458.984 51.7958 459.252 52.2898 459.67C52.7963 460.082 53.1688 460.636 53.3598 461.26C53.4898 461.68 53.4498 462 53.3898 462Z" fill="#263238"/>
<path d="M51.2698 464.37C51.1498 464.43 50.6598 463.61 49.6798 463.05C49.0562 462.763 48.4149 462.516 47.7598 462.31C48.1209 462.191 48.5052 462.159 48.8809 462.219C49.2566 462.278 49.6127 462.426 49.9198 462.65C50.9998 463.3 51.3898 464.34 51.2698 464.37Z" fill="#263238"/>
<path d="M56.9996 459.16C56.2782 458.374 55.503 457.639 54.6796 456.96C53.7663 456.408 52.8137 455.923 51.8296 455.51C52.949 455.565 54.0298 455.937 54.9454 456.583C55.861 457.23 56.5735 458.123 56.9996 459.16Z" fill="#263238"/>
<path d="M58.8498 453.05C58.7698 453.16 57.7598 452.41 56.3098 452C54.8598 451.59 53.6098 451.65 53.5898 451.52C54.5101 451.183 55.5196 451.183 56.4398 451.52C57.4002 451.726 58.2551 452.268 58.8498 453.05Z" fill="#263238"/>
<path d="M60.3398 447.07C59.5209 446.561 58.6359 446.168 57.7098 445.9C56.7576 445.77 55.7921 445.77 54.8398 445.9C54.8398 445.85 55.1098 445.65 55.6398 445.49C56.3484 445.299 57.0919 445.279 57.8098 445.43C58.5391 445.577 59.224 445.892 59.8098 446.35C60.1998 446.73 60.3798 447 60.3398 447.07Z" fill="#263238"/>
<path d="M57.9998 444.77C57.9895 444.504 58.0444 444.24 58.1598 444C58.4012 443.309 58.7786 442.673 59.2698 442.13C59.5912 441.696 60.049 441.383 60.5698 441.24C60.7446 441.211 60.9241 441.236 61.0847 441.311C61.2453 441.386 61.3795 441.508 61.4698 441.66C61.6179 441.972 61.6498 442.327 61.5598 442.66C61.3531 443.337 60.9134 443.92 60.3186 444.304C59.7238 444.688 59.0122 444.85 58.3098 444.76C57.6167 444.663 56.9681 444.362 56.4464 443.896C55.9247 443.429 55.5534 442.818 55.3798 442.14C55.3402 441.969 55.3366 441.792 55.3693 441.62C55.402 441.448 55.4703 441.284 55.5698 441.14C55.6879 440.997 55.8505 440.897 56.0318 440.858C56.2131 440.818 56.4025 440.84 56.5698 440.92C57.0389 441.148 57.4417 441.492 57.7398 441.92C58.1833 442.5 58.5217 443.153 58.7398 443.85C58.8445 444.096 58.8923 444.363 58.8798 444.63C58.5432 443.73 58.0711 442.887 57.4798 442.13C57.2255 441.76 56.8814 441.461 56.4798 441.26C56.3911 441.216 56.29 441.204 56.1934 441.226C56.0969 441.248 56.0108 441.302 55.9498 441.38C55.8899 441.478 55.8518 441.588 55.838 441.701C55.8242 441.815 55.835 441.931 55.8698 442.04C56.0362 442.62 56.3662 443.14 56.8202 443.537C57.2742 443.934 57.833 444.192 58.4298 444.28C59.0233 444.35 59.6231 444.216 60.1302 443.9C60.6374 443.584 61.0217 443.104 61.2198 442.54C61.3041 442.314 61.3041 442.066 61.2198 441.84C61.1744 441.753 61.1024 441.683 61.0142 441.64C60.926 441.596 60.8264 441.583 60.7298 441.6C60.2926 441.721 59.9044 441.977 59.6198 442.33C58.9364 443.038 58.3874 443.865 57.9998 444.77Z" fill="#263238"/>
<g opacity="0.3">
<path opacity="0.3" d="M57.82 433.34L57.21 436.26L71.68 440.5L72.92 436.4L58.35 431.12L57.82 433.34Z" fill="black"/>
</g>
<path d="M124.65 438.7L123.42 455.07C123.42 455.07 139.65 461.81 139.72 464.86L107.89 463.63L108.75 438.04L124.65 438.7Z" fill="#81C784"/>
<g opacity="0.6">
<path opacity="0.6" d="M113.63 453.31C113.321 453.393 113.053 453.586 112.878 453.854C112.702 454.121 112.632 454.444 112.68 454.76C112.741 455.078 112.923 455.36 113.188 455.547C113.452 455.733 113.779 455.81 114.1 455.76C114.427 455.673 114.711 455.467 114.896 455.182C115.081 454.898 115.153 454.555 115.1 454.22C114.992 453.901 114.765 453.636 114.468 453.48C114.17 453.324 113.823 453.288 113.5 453.38" fill="white"/>
</g>
<g opacity="0.6">
<path opacity="0.6" d="M107.89 463.63L108.08 461.05L138.53 463.2C138.53 463.2 139.92 463.87 139.72 464.86L107.89 463.63Z" fill="white"/>
</g>
<path d="M123.94 454.93C123.94 455.08 123.15 455.12 122.37 455.59C121.59 456.06 121.15 456.7 121.01 456.64C120.87 456.58 121.14 455.64 122.1 455.13C123.06 454.62 124 454.79 123.94 454.93Z" fill="#263238"/>
<path d="M127.23 456.44C127.23 456.59 126.58 456.83 126.02 457.44C125.46 458.05 125.29 458.76 125.13 458.75C124.97 458.74 124.92 457.85 125.62 457.08C126.32 456.31 127.23 456.29 127.23 456.44Z" fill="#263238"/>
<path d="M129 460.51C128.86 460.51 128.67 459.75 129.1 458.92C129.53 458.09 130.28 457.77 130.34 457.92C130.4 458.07 129.93 458.49 129.59 459.18C129.25 459.87 129.13 460.5 129 460.51Z" fill="#263238"/>
<path d="M123.81 451.17C123.74 451.31 123.03 451.06 122.15 451.09C121.27 451.12 120.58 451.37 120.5 451.23C120.42 451.09 121.1 450.56 122.14 450.55C123.18 450.54 123.89 451.05 123.81 451.17Z" fill="#263238"/>
<g opacity="0.3">
<path opacity="0.3" d="M124.4 441.94L124.19 444.86L108.55 444.11L108.65 440.74L124.4 441.94Z" fill="black"/>
</g>
<path d="M124 447.86C123.47 447.982 122.917 447.958 122.4 447.79C121.828 447.664 121.274 447.469 120.75 447.21C120.441 447.057 120.144 446.883 119.86 446.69C119.682 446.588 119.523 446.456 119.39 446.3C119.296 446.182 119.246 446.036 119.246 445.885C119.246 445.734 119.296 445.588 119.39 445.47C119.471 445.363 119.578 445.277 119.699 445.22C119.821 445.162 119.955 445.135 120.09 445.14C120.29 445.144 120.489 445.177 120.68 445.24C121.024 445.335 121.359 445.462 121.68 445.62C122.206 445.876 122.689 446.213 123.11 446.62C123.82 447.34 124.05 447.93 124 447.96C123.95 447.99 123.59 447.5 122.86 446.91C122.43 446.567 121.96 446.278 121.46 446.05C121.168 445.923 120.867 445.819 120.56 445.74C120.23 445.63 119.94 445.62 119.85 445.74C119.76 445.86 119.85 445.82 119.85 445.92C119.948 446.03 120.063 446.125 120.19 446.2C120.451 446.391 120.725 446.565 121.01 446.72C121.496 446.982 122.004 447.199 122.53 447.37C123.031 447.498 123.522 447.661 124 447.86Z" fill="#263238"/>
<path d="M123.78 448.07C123.498 447.605 123.371 447.062 123.42 446.52C123.419 445.928 123.517 445.34 123.71 444.78C123.823 444.449 123.97 444.13 124.15 443.83C124.24 443.629 124.379 443.454 124.553 443.32C124.728 443.186 124.933 443.096 125.15 443.06C125.292 443.069 125.428 443.118 125.543 443.201C125.658 443.284 125.747 443.398 125.8 443.53C125.875 443.719 125.922 443.918 125.94 444.12C125.99 444.478 125.99 444.842 125.94 445.2C125.824 445.793 125.567 446.348 125.19 446.82C124.54 447.62 123.88 447.82 123.87 447.73C123.86 447.64 124.38 447.37 124.87 446.59C125.155 446.14 125.346 445.636 125.43 445.11C125.475 444.805 125.475 444.495 125.43 444.19C125.43 443.85 125.28 443.57 125.15 443.6C125.02 443.63 124.72 443.84 124.58 444.1C124.409 444.369 124.265 444.653 124.15 444.95C123.954 445.457 123.829 445.989 123.78 446.53C123.73 447.46 123.87 448.05 123.78 448.07Z" fill="#263238"/>
<path d="M84.3198 229L92.5498 229.46C93.13 231.773 93.9095 234.031 94.8798 236.21C101.51 224.7 106.65 209.29 107.93 203.09C107.74 202.47 107.52 201.79 107.25 201.02C107.049 199.865 107.083 198.681 107.35 197.54C107.58 196.16 107.96 194.3 108.08 193.44C108.43 190.82 108.85 190.44 109.77 190.71C111.01 191.11 109.26 198.06 110.27 198.21C110.82 198.29 111.49 195.91 111.68 193.96C111.87 192.01 112.76 185.96 113.41 185.59C114.41 185 115.18 185.93 114.94 187.88C114.7 189.83 114.39 195.72 115.43 195.8C116.47 195.88 117.3 185.91 117.3 185.91C117.3 185.91 117.14 183.75 118.3 183.8C120.46 183.89 118.77 194.4 118.59 195.39C118.46 196.08 119.59 196.21 119.68 195.46C119.77 194.71 120.3 185.46 122.5 185.57C124.18 185.63 121.19 194.23 122.14 196.22C123.09 198.21 123.74 189.45 125.35 189.57C125.95 189.57 126.35 189.73 125.29 194.69C124.221 198.634 122.936 202.517 121.44 206.32C118.89 220.07 107.7 264.06 90.1598 256.01C80.3398 251.5 75.7598 229.19 75.7598 229.19L84.3198 229Z" fill="#FFBE9D"/>
<path d="M121.47 206.31C121.487 206.207 121.518 206.106 121.56 206.01C121.63 205.79 121.73 205.5 121.85 205.15C122.12 204.35 122.51 203.24 123 201.83C123.49 200.42 124.09 198.62 124.69 196.54C124.99 195.54 125.24 194.38 125.47 193.17C125.58 192.57 125.7 191.95 125.77 191.31C125.795 190.994 125.795 190.676 125.77 190.36C125.77 190.03 125.7 189.77 125.44 189.76C125.18 189.75 124.99 189.91 124.81 190.19C124.64 190.486 124.5 190.797 124.39 191.12C124.16 191.78 123.97 192.48 123.79 193.2C123.61 193.92 123.44 194.66 123.22 195.41C123.127 195.824 122.958 196.218 122.72 196.57C122.655 196.65 122.562 196.703 122.459 196.716C122.357 196.729 122.253 196.702 122.17 196.64C122.073 196.55 121.995 196.441 121.94 196.32C121.852 196.115 121.792 195.9 121.76 195.68C121.729 193.999 121.896 192.321 122.26 190.68C122.41 189.84 122.56 188.99 122.67 188.13C122.728 187.699 122.762 187.265 122.77 186.83C122.77 186.44 122.77 185.9 122.54 185.83C122.31 185.76 121.94 185.99 121.74 186.35C121.507 186.722 121.322 187.122 121.19 187.54C120.909 188.416 120.692 189.312 120.54 190.22C120.38 191.15 120.26 192.09 120.15 193.04C120.15 193.52 120.06 194.04 120.01 194.48L119.95 195.21C119.958 195.365 119.933 195.521 119.876 195.666C119.819 195.811 119.732 195.942 119.62 196.05C119.475 196.157 119.3 196.215 119.12 196.215C118.94 196.215 118.765 196.157 118.62 196.05C118.539 195.996 118.47 195.927 118.417 195.846C118.364 195.766 118.327 195.675 118.31 195.58C118.295 195.491 118.295 195.399 118.31 195.31V195.13C118.38 194.64 118.46 194.13 118.53 193.66C118.67 192.66 118.79 191.66 118.89 190.66C118.99 189.66 119.05 188.66 119.07 187.66C119.12 186.651 119.019 185.639 118.77 184.66C118.713 184.41 118.563 184.192 118.35 184.05C118.248 184.019 118.139 184.02 118.037 184.052C117.936 184.084 117.846 184.146 117.78 184.23C117.512 184.729 117.404 185.298 117.47 185.86C117.29 187.86 117.07 189.77 116.79 191.67C116.64 192.67 116.49 193.57 116.25 194.5C116.19 194.737 116.117 194.971 116.03 195.2C115.95 195.482 115.786 195.733 115.56 195.92C115.457 195.97 115.34 195.984 115.228 195.96C115.116 195.937 115.015 195.877 114.94 195.79C114.843 195.678 114.768 195.549 114.72 195.41C114.631 195.177 114.568 194.936 114.53 194.69C114.324 192.863 114.307 191.02 114.48 189.19C114.596 188.338 114.639 187.479 114.61 186.62C114.588 186.255 114.422 185.914 114.15 185.67C114.088 185.627 114.017 185.599 113.943 185.587C113.868 185.575 113.792 185.579 113.72 185.6C113.635 185.62 113.554 185.654 113.48 185.7C113.428 185.735 113.386 185.783 113.36 185.84C113.063 186.596 112.842 187.38 112.7 188.18C112.54 188.98 112.4 189.78 112.27 190.57C112.14 191.36 112.03 192.13 111.93 192.9C111.83 193.67 111.77 194.43 111.62 195.18C111.495 195.921 111.298 196.648 111.03 197.35C110.967 197.527 110.886 197.698 110.79 197.86C110.67 198.02 110.61 198.23 110.29 198.33C110.209 198.344 110.125 198.335 110.048 198.303C109.972 198.271 109.907 198.218 109.86 198.15C109.803 198.053 109.76 197.948 109.73 197.84C109.693 197.655 109.67 197.468 109.66 197.28C109.66 195.85 109.86 194.54 109.93 193.28C109.99 192.675 109.99 192.065 109.93 191.46C109.93 191.19 109.81 190.88 109.65 190.81C109.544 190.758 109.428 190.731 109.31 190.731C109.192 190.731 109.076 190.758 108.97 190.81C108.623 191.189 108.406 191.669 108.35 192.18C108.23 192.7 108.18 193.18 108.08 193.71C107.73 195.71 107.36 197.4 107.19 198.79C107.101 199.403 107.101 200.026 107.19 200.64C107.31 201.14 107.48 201.59 107.57 201.94L107.81 202.76C107.85 202.848 107.873 202.943 107.88 203.04C107.83 202.956 107.793 202.865 107.77 202.77L107.48 201.98C107.36 201.62 107.19 201.21 107.04 200.66C106.949 200.033 106.949 199.397 107.04 198.77C107.19 197.35 107.53 195.66 107.85 193.67C107.94 193.18 107.99 192.67 108.11 192.12C108.16 191.844 108.234 191.573 108.33 191.31C108.413 191.003 108.596 190.732 108.85 190.54C109.004 190.459 109.176 190.417 109.35 190.417C109.524 190.417 109.696 190.459 109.85 190.54C110.25 190.77 110.26 191.15 110.33 191.44C110.39 192.068 110.39 192.701 110.33 193.33C110.27 194.61 110.07 195.95 110.1 197.33C110.109 197.491 110.129 197.651 110.16 197.81C110.16 197.97 110.28 198.03 110.26 198C110.24 197.97 110.42 197.86 110.49 197.73C110.571 197.58 110.645 197.427 110.71 197.27C110.954 196.587 111.138 195.885 111.26 195.17C111.4 194.45 111.44 193.69 111.55 192.92C111.66 192.15 111.75 191.36 111.88 190.57C112.01 189.78 112.14 188.97 112.3 188.16C112.443 187.309 112.681 186.477 113.01 185.68C113.073 185.547 113.174 185.435 113.3 185.36C113.41 185.296 113.528 185.245 113.65 185.21C113.785 185.175 113.926 185.168 114.064 185.19C114.202 185.213 114.333 185.264 114.45 185.34C114.646 185.496 114.807 185.689 114.926 185.909C115.045 186.129 115.117 186.371 115.14 186.62C115.2 187.075 115.2 187.535 115.14 187.99C115.14 188.42 115.06 188.86 115.03 189.3C114.85 191.085 114.85 192.884 115.03 194.67C115.066 194.881 115.119 195.088 115.19 195.29C115.222 195.369 115.266 195.444 115.32 195.51C115.32 195.71 115.32 195.56 115.32 195.59C115.32 195.62 115.32 195.59 115.32 195.52C115.424 195.38 115.505 195.225 115.56 195.06C115.63 194.85 115.7 194.63 115.76 194.41C115.98 193.52 116.14 192.58 116.28 191.64C116.56 189.75 116.77 187.82 116.95 185.86C116.871 185.165 117.019 184.464 117.37 183.86C117.5 183.682 117.686 183.553 117.897 183.491C118.109 183.43 118.335 183.44 118.54 183.52C118.718 183.614 118.874 183.744 118.998 183.903C119.122 184.062 119.212 184.245 119.26 184.44C119.531 185.47 119.642 186.536 119.59 187.6C119.59 188.6 119.5 189.66 119.4 190.68C119.3 191.7 119.18 192.68 119.04 193.68C118.97 194.18 118.89 194.68 118.82 195.16C118.75 195.48 118.82 195.49 118.82 195.58C118.879 195.616 118.946 195.635 119.015 195.635C119.084 195.635 119.151 195.616 119.21 195.58C119.32 195.51 119.33 195.36 119.35 195.09L119.42 194.36C119.42 193.88 119.52 193.36 119.56 192.92C119.67 191.92 119.8 191 119.96 190.07C120.117 189.135 120.341 188.213 120.63 187.31C120.78 186.853 120.985 186.417 121.24 186.01C121.382 185.79 121.565 185.599 121.78 185.45C121.897 185.347 122.041 185.28 122.195 185.257C122.35 185.235 122.507 185.258 122.648 185.324C122.79 185.39 122.909 185.495 122.991 185.628C123.073 185.76 123.114 185.914 123.11 186.07C123.146 186.305 123.163 186.542 123.16 186.78C123.146 187.232 123.106 187.683 123.04 188.13C122.93 189.01 122.77 189.86 122.62 190.7C122.257 192.294 122.083 193.925 122.1 195.56C122.118 195.737 122.165 195.909 122.24 196.07C122.266 196.131 122.299 196.188 122.34 196.24C122.34 196.24 122.34 196.24 122.34 196.19C122.53 195.881 122.668 195.543 122.75 195.19C122.97 194.46 123.14 193.72 123.33 193C123.52 192.28 123.71 191.57 123.96 190.89C124.08 190.542 124.234 190.207 124.42 189.89C124.515 189.719 124.645 189.569 124.8 189.45C124.888 189.378 124.99 189.327 125.1 189.3C125.206 189.28 125.314 189.28 125.42 189.3C125.535 189.311 125.646 189.353 125.739 189.422C125.832 189.49 125.905 189.583 125.95 189.69C126.018 189.866 126.055 190.052 126.06 190.24C126.07 190.574 126.05 190.909 126 191.24C125.93 191.9 125.8 192.52 125.68 193.13C125.465 194.271 125.187 195.399 124.85 196.51C124.23 198.59 123.6 200.35 123.08 201.78C122.56 203.21 122.08 204.33 121.84 205.07C121.7 205.42 121.58 205.7 121.5 205.92C121.42 206.14 121.48 206.32 121.47 206.31Z" fill="#EB996E"/>
<path d="M75.6997 230C77.2897 235.62 80.3997 244.3 83.6997 253.46C83.8068 253.755 83.9986 254.011 84.251 254.197C84.5033 254.383 84.805 254.49 85.1181 254.505C85.4312 254.52 85.7418 254.442 86.0107 254.281C86.2796 254.12 86.495 253.883 86.6297 253.6L94.8297 236.25C94.8297 236.25 92.8297 222 93.0197 222.5C93.2097 223 76.0997 224.35 76.0997 224.35L75.6997 230Z" fill="#81C784"/>
<path d="M97.8799 231.33C97.8799 231.33 97.6599 231.16 97.2499 231.05C96.972 230.965 96.676 230.959 96.395 231.033C96.1141 231.108 95.8595 231.259 95.6599 231.47L95.4499 231.71L95.3199 231.4C94.8799 230.28 94.3199 228.83 93.7599 227.23C92.8834 225.034 92.1649 222.778 91.6099 220.48C92.6551 222.603 93.5376 224.803 94.2499 227.06C94.8299 228.65 95.3299 230.12 95.6999 231.26L95.3599 231.2C95.6499 230.904 96.037 230.723 96.4499 230.69C96.7503 230.663 97.0528 230.711 97.3299 230.83C97.7799 231 97.8999 231.31 97.8799 231.33Z" fill="#263238"/>
<path d="M86.25 247.83C86.561 246.971 86.9598 246.147 87.44 245.37C88.23 243.89 89.35 241.85 90.63 239.62C91.91 237.39 93.08 235.38 93.95 233.94C94.3802 233.134 94.8858 232.371 95.46 231.66C95.1428 232.516 94.7443 233.34 94.27 234.12C93.48 235.61 92.35 237.64 91.08 239.88C89.81 242.12 88.63 244.12 87.76 245.56C87.3272 246.361 86.8218 247.121 86.25 247.83Z" fill="#263238"/>
<path d="M80.7898 245.22C81.234 244.842 81.7128 244.508 82.2198 244.22C83.1498 243.62 84.4998 242.78 86.1398 241.78L86.0498 242.05C85.1398 239.92 84.0498 237.43 82.9298 234.75C81.5098 231.38 80.2398 228.28 79.3098 225.97L79.5898 226.06C78.2898 226.77 77.2298 227.33 76.4998 227.71C76.1274 227.932 75.7317 228.114 75.3198 228.25C75.6472 227.966 76.0063 227.721 76.3898 227.52C77.0998 227.08 78.1198 226.47 79.3898 225.73L79.5698 225.62L79.6598 225.82C80.6598 228.1 81.9798 231.17 83.3998 234.55C84.5198 237.24 85.5498 239.74 86.3998 241.88L86.4698 242.06L86.3098 242.15C84.6498 243.15 83.3098 243.9 82.3098 244.43C81.831 244.744 81.3217 245.008 80.7898 245.22Z" fill="#FAFAFA"/>
<path d="M125.28 442.82C126.745 442.778 128.141 442.189 129.194 441.169C130.247 440.15 130.88 438.773 130.97 437.31C132.68 409.63 140.38 283.72 138.84 279.77C137.1 275.33 132.53 259.89 132.53 259.89L91.6998 258C91.6998 258 81.5398 274 80.0798 280.18C78.7598 285.69 41.7698 402.25 37.1698 427C36.9421 428.229 37.1766 429.499 37.8281 430.566C38.4796 431.633 39.5023 432.421 40.6998 432.78L125.28 442.82Z" fill="#263238"/>
<path d="M99.7596 258.87C99.7596 258.87 99.7096 259.02 99.5796 259.31L98.9996 260.57L96.7196 265.39C96.2696 266.46 95.7796 267.65 95.2296 268.94C94.6796 270.23 94.0796 271.65 93.5396 273.2C92.9996 274.75 92.3396 276.39 91.7296 278.15C91.1196 279.91 90.5496 281.79 89.9096 283.76L88.0996 290C87.5096 292.18 86.9496 294.46 86.3296 296.82C85.7096 299.18 85.2196 301.64 84.6296 304.17C84.0396 306.7 83.5096 309.31 82.9996 312C81.8996 317.36 80.8196 323 79.6796 328.86C78.5396 334.72 77.3196 340.76 75.8896 346.92C75.1996 350 74.3996 353 73.6596 356C72.9196 359 72.0496 361.9 71.1696 364.75C69.4396 370.46 67.5396 375.9 65.5996 381.02C61.6796 391.27 57.5996 400.28 54.0996 407.77C50.5996 415.26 47.5296 421.24 45.4296 425.37L42.9996 430.14C42.7296 430.66 42.5096 431.07 42.3496 431.36C42.2817 431.501 42.2049 431.638 42.1196 431.77C42.1738 431.623 42.2373 431.479 42.3096 431.34C42.4496 431.04 42.6496 430.62 42.9096 430.09C43.4596 428.97 44.2496 427.36 45.2696 425.3C47.2696 421.15 50.2696 415.14 53.7796 407.63C57.2896 400.12 61.2796 391.11 65.1696 380.87C67.0896 375.75 68.9796 370.32 70.7096 364.62C71.5796 361.78 72.3596 358.85 73.1796 355.89C73.9996 352.93 74.7196 349.89 75.3896 346.8C76.8196 340.65 78.0196 334.59 79.1896 328.75C80.3596 322.91 81.4196 317.26 82.5396 311.9C83.0696 309.21 83.6696 306.6 84.2096 304.07C84.7496 301.54 85.3796 299.07 85.9296 296.71C86.4796 294.35 87.1296 292.07 87.7296 289.89C88.3296 287.71 88.9896 285.64 89.5796 283.65L91.4196 278C92.0396 276.24 92.6896 274.6 93.2696 273.06C93.8496 271.52 94.4396 270.06 95.0096 268.81C95.5796 267.56 96.0796 266.33 96.5396 265.27C97.5396 263.18 98.3596 261.57 98.8996 260.48L99.5296 259.25L99.7596 258.87Z" fill="#455A64"/>
<path d="M63.71 435.24C63.71 435.24 63.71 435.09 63.81 434.79C63.91 434.49 64.02 434.02 64.17 433.46L65.59 428.36C66.82 423.9 68.59 417.5 70.79 409.6C72.99 401.7 75.52 392.23 78.27 381.72C79.63 376.46 81.05 370.94 82.53 365.22C84.01 359.5 85.44 353.54 86.96 347.46C88.48 341.38 89.86 335.46 91.25 329.66C92.64 323.86 93.88 318.35 95.12 313.06C97.53 302.47 99.65 292.91 101.38 284.88C103.11 276.85 104.48 270.36 105.45 265.88C105.92 263.65 106.29 261.88 106.55 260.7C106.68 260.13 106.78 259.7 106.85 259.36C106.92 259.02 106.97 258.9 106.97 258.9C106.956 259.058 106.932 259.215 106.9 259.37C106.84 259.69 106.76 260.14 106.65 260.72C106.42 261.93 106.08 263.72 105.65 265.92L104 274.1C103.33 277.3 102.58 280.94 101.74 284.96C100.06 292.96 97.98 302.56 95.58 313.17C94.37 318.46 93.11 324.03 91.74 329.78C90.37 335.53 88.93 341.49 87.47 347.59C86.01 353.69 84.47 359.59 83.02 365.34C81.57 371.09 80.11 376.59 78.74 381.84C75.95 392.35 73.37 401.84 71.15 409.7L68.15 420.37C67.24 423.5 66.45 426.2 65.81 428.37C65.17 430.54 64.65 432.26 64.3 433.45C64.13 434.01 63.99 434.45 63.9 434.76C63.81 435.07 63.71 435.24 63.71 435.24Z" fill="#455A64"/>
<path d="M112.37 259C112.37 259 112.37 259.15 112.44 259.46L112.61 260.84C112.68 261.45 112.77 262.2 112.87 263.07C112.97 263.94 113 264.99 113.07 266.14C113.07 266.72 113.14 267.33 113.17 267.97C113.2 268.61 113.17 269.29 113.17 269.97V272.17C113.17 272.93 113.1 273.73 113.07 274.55C113.04 275.37 112.99 276.22 112.94 277.09C112.89 277.96 112.78 278.87 112.69 279.8C112.56 281.66 112.24 283.6 111.99 285.66C111.37 289.75 110.55 294.2 109.5 298.95C108.45 303.7 107.22 308.74 105.94 314.05C104.66 319.36 103.33 324.94 102.23 330.77C101.13 336.6 100.23 342.68 99.41 348.93C98.59 355.18 98 361.27 97.3 367.18C96.6 373.09 96 378.79 95.3 384.18L94.22 392.1C93.8 394.65 93.43 397.1 93.01 399.54C92.59 401.98 92.16 404.24 91.69 406.45C91.22 408.66 90.75 410.77 90.28 412.78C89.81 414.79 89.28 416.69 88.78 418.49C88.28 420.29 87.72 421.95 87.24 423.49C86.99 424.27 86.77 425.03 86.51 425.75C86.25 426.47 85.99 427.16 85.75 427.82C85.26 429.13 84.81 430.34 84.4 431.42C83.52 433.56 82.75 435.18 82.27 436.3L81.69 437.56C81.56 437.84 81.48 437.98 81.48 437.98C81.48 437.98 81.48 437.82 81.64 437.53C81.8 437.24 81.95 436.8 82.17 436.25C82.63 435.13 83.36 433.49 84.17 431.35L85.46 427.73L86.21 425.67C86.46 424.95 86.67 424.18 86.91 423.4C87.38 421.83 87.91 420.16 88.41 418.4L89.87 412.7L91.25 406.37C91.7 404.16 92.09 401.85 92.54 399.46C92.99 397.07 93.31 394.58 93.71 392.03C94.11 389.48 94.41 386.83 94.77 384.12C95.44 378.7 96.09 373.01 96.77 367.12C97.45 361.23 98.08 355.12 98.88 348.83C99.68 342.54 100.62 336.48 101.72 330.63C102.82 324.78 104.17 319.2 105.46 313.9C106.75 308.6 108.01 303.55 109.07 298.82C110.13 294.09 110.97 289.64 111.62 285.56C111.88 283.56 112.21 281.56 112.35 279.72C112.45 278.8 112.53 277.9 112.62 277.03C112.71 276.16 112.72 275.31 112.77 274.49C112.82 273.67 112.88 272.89 112.89 272.12C112.9 271.35 112.89 270.63 112.89 269.93C112.89 269.23 112.89 268.56 112.89 267.93C112.89 267.3 112.83 266.69 112.81 266.11C112.75 264.96 112.75 263.93 112.66 263.05C112.57 262.17 112.51 261.42 112.45 260.81C112.39 260.2 112.36 259.76 112.33 259.43C112.334 259.286 112.347 259.142 112.37 259Z" fill="#455A64"/>
<path d="M107.91 441.63C107.864 441.479 107.827 441.325 107.8 441.17C107.74 440.84 107.65 440.39 107.54 439.81C107.43 439.23 107.3 438.46 107.14 437.58C106.98 436.7 106.77 435.7 106.67 434.58C106.57 433.46 106.39 432.15 106.22 430.75C106.05 429.35 106.02 427.81 105.9 426.17C105.9 425.35 105.8 424.49 105.77 423.62C105.74 422.75 105.77 421.83 105.77 420.89C105.77 419.95 105.77 419 105.77 418.01C105.77 417.02 105.85 416.01 105.88 415.01C105.91 414.01 105.97 412.91 106.01 411.83C106.05 410.75 106.19 409.64 106.27 408.51C106.42 406.25 106.71 403.92 106.99 401.51C107.27 399.1 107.67 396.6 107.99 394.03C108.31 391.46 108.83 388.83 109.35 386.14C111.35 375.35 114.05 363.62 116.55 351.24C118.895 339.6 120.647 327.848 121.8 316.03C122.88 305.13 123.29 295.28 123.43 287.03C123.43 282.89 123.43 279.14 123.43 275.86C123.43 272.58 123.29 269.74 123.19 267.42C123.09 265.1 123 263.31 122.95 262.09C122.95 261.5 122.95 261.04 122.95 260.71C122.95 260.38 122.95 260.23 122.95 260.23C122.95 260.23 122.95 260.39 122.95 260.7C122.95 261.01 123.01 261.5 123.06 262.09C123.14 263.3 123.29 265.09 123.39 267.41C123.49 269.73 123.63 272.56 123.72 275.85C123.81 279.14 123.84 282.85 123.82 287.03C123.73 295.32 123.35 305.19 122.3 316.1C121.168 327.939 119.426 339.711 117.08 351.37C114.58 363.77 111.83 375.49 109.84 386.26C109.32 388.94 108.91 391.58 108.46 394.13C108.01 396.68 107.67 399.18 107.41 401.6C107.15 404.02 106.82 406.34 106.67 408.6C106.57 409.72 106.48 410.82 106.39 411.9C106.3 412.98 106.29 414.04 106.24 415.07C106.19 416.1 106.16 417.12 106.11 418.07V423.66C106.11 424.53 106.19 425.38 106.23 426.2C106.33 427.84 106.33 429.38 106.5 430.77C106.67 432.16 106.78 433.45 106.9 434.61C107.02 435.77 107.19 436.77 107.32 437.61L107.68 439.84C107.77 440.42 107.83 440.84 107.89 441.21C107.95 441.58 107.91 441.63 107.91 441.63Z" fill="#455A64"/>
<path d="M130.32 259.79C130.32 259.79 130.37 259.94 130.46 260.24L130.85 261.56L131.46 263.73C131.744 264.717 131.977 265.719 132.16 266.73C132.38 267.86 132.69 269.11 132.91 270.5C133.13 271.89 133.32 273.4 133.55 275.03C133.78 276.66 133.82 278.41 133.97 280.27C134.12 282.13 134.12 284.09 134.08 286.16C134.08 290.29 133.74 294.8 133.21 299.63C132.68 304.46 131.85 309.58 130.89 314.94L127.75 331.76C126.65 337.59 125.69 343.65 124.82 349.88C123.95 356.11 123.24 362.2 122.66 368.1C122.08 374 121.66 379.71 121.32 385.15C120.98 390.59 120.77 395.76 120.67 400.61C120.57 405.46 120.51 409.97 120.53 414.09C120.55 418.21 120.61 421.94 120.71 425.21C120.81 428.48 120.93 431.3 121.02 433.6C121.11 435.9 121.22 437.67 121.28 438.9C121.28 439.493 121.3 439.953 121.34 440.28C121.34 440.6 121.34 440.76 121.34 440.76C121.34 440.76 121.34 440.6 121.28 440.29L121.17 438.91C121.09 437.7 120.95 435.91 120.82 433.61C120.69 431.31 120.52 428.49 120.42 425.22C120.32 421.95 120.21 418.22 120.16 414.09C120.11 409.96 120.16 405.45 120.24 400.6C120.32 395.75 120.55 390.6 120.84 385.12C121.13 379.64 121.56 373.96 122.15 368.05C122.74 362.14 123.42 356.05 124.31 349.8C125.2 343.55 126.14 337.5 127.25 331.67L130.42 314.86C131.42 309.5 132.19 304.38 132.78 299.58C133.37 294.78 133.65 290.27 133.71 286.15C133.71 284.09 133.65 282.15 133.64 280.28C133.63 278.41 133.38 276.69 133.26 275.06C133.14 273.43 132.85 271.93 132.67 270.54C132.49 269.15 132.17 267.91 131.97 266.77C131.77 265.63 131.56 264.64 131.31 263.77C131.06 262.9 130.9 262.2 130.75 261.6C130.6 261 130.49 260.6 130.41 260.26C130.33 259.92 130.32 259.79 130.32 259.79Z" fill="#455A64"/>
<path d="M320.67 465.1L194.84 464.52C187.574 464.486 180.619 461.568 175.503 456.407C170.388 451.247 167.531 444.266 167.56 437L168.89 121.54C168.924 114.27 171.845 107.31 177.009 102.193C182.174 97.0751 189.159 94.2181 196.43 94.25L322.26 94.83C325.858 94.8457 329.418 95.57 332.736 96.9616C336.055 98.3531 339.066 100.385 341.599 102.94C344.133 105.496 346.138 108.525 347.5 111.855C348.863 115.186 349.556 118.752 349.54 122.35L348.21 437.8C348.194 441.401 347.469 444.963 346.077 448.284C344.684 451.605 342.651 454.619 340.094 457.154C337.537 459.689 334.505 461.695 331.172 463.059C327.839 464.422 324.271 465.116 320.67 465.1Z" fill="#263238"/>
<path d="M321 103.68L296.6 103.56C294.993 103.592 293.465 104.259 292.349 105.415C291.234 106.572 290.623 108.123 290.65 109.73V114.15C290.664 114.946 290.522 115.737 290.231 116.478C289.94 117.218 289.505 117.895 288.953 118.468C288.4 119.041 287.74 119.499 287.01 119.817C286.281 120.135 285.495 120.306 284.7 120.32L237.15 120.1C235.543 120.055 234.02 119.376 232.914 118.21C231.808 117.044 231.209 115.487 231.25 113.88V109.45C231.29 107.843 230.692 106.286 229.585 105.12C228.479 103.954 226.956 103.274 225.35 103.23H216.77L195.42 103.14C192.898 103.128 190.399 103.613 188.065 104.567C185.731 105.521 183.608 106.925 181.817 108.7C180.026 110.474 178.601 112.584 177.626 114.909C176.65 117.234 176.141 119.729 176.13 122.25L174.83 430.16C174.824 432.682 175.316 435.181 176.277 437.513C177.237 439.845 178.648 441.965 180.428 443.752C182.209 445.538 184.323 446.957 186.652 447.926C188.981 448.895 191.477 449.396 194 449.4L319.58 449.98C322.101 449.992 324.599 449.507 326.933 448.553C329.266 447.599 331.389 446.194 333.179 444.42C334.969 442.645 336.393 440.535 337.367 438.21C338.342 435.885 338.849 433.391 338.86 430.87L340.15 123C340.167 120.472 339.684 117.966 338.73 115.626C337.776 113.285 336.369 111.156 334.589 109.361C332.81 107.565 330.693 106.139 328.361 105.165C326.029 104.19 323.527 103.685 321 103.68Z" fill="#FAFAFA"/>
<path d="M192.44 136.41C192.303 136.406 192.174 136.349 192.08 136.25L190.17 134.25C190.123 134.205 190.086 134.15 190.062 134.09C190.038 134.03 190.027 133.965 190.03 133.9C190.03 133.835 190.044 133.77 190.069 133.71C190.095 133.65 190.133 133.595 190.18 133.55L192.1 131.72C192.145 131.674 192.2 131.637 192.26 131.611C192.32 131.586 192.385 131.573 192.45 131.573C192.515 131.573 192.579 131.586 192.64 131.611C192.7 131.637 192.754 131.674 192.8 131.72C192.847 131.767 192.884 131.822 192.909 131.883C192.935 131.944 192.948 132.009 192.948 132.075C192.948 132.141 192.935 132.206 192.909 132.267C192.884 132.328 192.847 132.384 192.8 132.43L191.24 133.91L192.81 135.55C192.857 135.597 192.894 135.652 192.919 135.713C192.945 135.774 192.958 135.839 192.958 135.905C192.958 135.971 192.945 136.036 192.919 136.097C192.894 136.158 192.857 136.214 192.81 136.26C192.761 136.308 192.703 136.346 192.64 136.372C192.576 136.398 192.508 136.411 192.44 136.41Z" fill="#263238"/>
<path d="M311.02 396.62H207.2C198.297 396.62 191.08 403.837 191.08 412.74V415.63C191.08 424.533 198.297 431.75 207.2 431.75H311.02C319.922 431.75 327.14 424.533 327.14 415.63V412.74C327.14 403.837 319.922 396.62 311.02 396.62Z" fill="#81C784"/>
<path d="M242.93 410.11H246.09C246.616 410.083 247.143 410.164 247.638 410.347C248.132 410.53 248.585 410.812 248.967 411.176C249.349 411.539 249.654 411.976 249.862 412.461C250.07 412.946 250.177 413.468 250.177 413.995C250.177 414.522 250.07 415.044 249.862 415.529C249.654 416.014 249.349 416.451 248.967 416.814C248.585 417.178 248.132 417.46 247.638 417.643C247.143 417.826 246.616 417.907 246.09 417.88H242.93V410.11ZM246.05 417.17C246.482 417.194 246.914 417.13 247.32 416.982C247.727 416.833 248.098 416.603 248.413 416.306C248.727 416.009 248.977 415.65 249.149 415.253C249.32 414.856 249.408 414.428 249.408 413.995C249.408 413.562 249.32 413.134 249.149 412.737C248.977 412.34 248.727 411.981 248.413 411.684C248.098 411.387 247.727 411.157 247.32 411.008C246.914 410.86 246.482 410.796 246.05 410.82H243.75V417.17H246.05Z" fill="#FAFAFA"/>
<path d="M251.4 414C251.374 413.188 251.591 412.388 252.023 411.7C252.455 411.012 253.082 410.469 253.824 410.14C254.566 409.811 255.39 409.711 256.19 409.853C256.989 409.994 257.728 410.371 258.312 410.935C258.896 411.499 259.299 412.225 259.468 413.019C259.638 413.813 259.566 414.64 259.263 415.393C258.96 416.146 258.439 416.792 257.767 417.247C257.095 417.703 256.302 417.948 255.49 417.95C254.958 417.976 254.426 417.893 253.927 417.705C253.429 417.518 252.974 417.23 252.59 416.86C252.207 416.49 251.904 416.045 251.699 415.553C251.494 415.061 251.393 414.533 251.4 414ZM258.74 414C258.75 413.35 258.566 412.713 258.212 412.168C257.858 411.623 257.35 411.196 256.752 410.942C256.154 410.687 255.494 410.616 254.856 410.738C254.218 410.86 253.63 411.17 253.169 411.627C252.707 412.084 252.393 412.669 252.265 413.306C252.136 413.943 252.201 414.603 252.45 415.204C252.699 415.804 253.121 416.316 253.663 416.675C254.204 417.034 254.84 417.224 255.49 417.22C255.918 417.235 256.345 417.162 256.744 417.006C257.144 416.85 257.507 416.614 257.811 416.313C258.116 416.011 258.355 415.65 258.515 415.252C258.675 414.855 258.751 414.428 258.74 414Z" fill="#FAFAFA"/>
<path d="M267.88 410.11V417.88H267.21L262.21 411.58V417.88H261.38V410.11H262.06L267.06 416.41V410.11H267.88Z" fill="#FAFAFA"/>
<path d="M275.9 417.17V417.88H270.41V410.11H275.73V410.82H271.23V413.58H275.23V414.28H271.23V417.17H275.9Z" fill="#FAFAFA"/>
<path d="M211.49 263.81H207.26V261.81H218.08V263.81H213.85V274.56H211.49V263.81Z" fill="#81C784"/>
<path d="M229.21 269V274.58H226.94V269.3C226.94 267.57 226.08 266.73 224.63 266.73C223.01 266.73 221.91 267.73 221.91 269.66V274.58H219.64V261.05H221.91V266C222.336 265.582 222.843 265.256 223.401 265.043C223.958 264.83 224.553 264.733 225.15 264.76C227.48 264.72 229.21 266.05 229.21 269Z" fill="#81C784"/>
<path d="M240.24 268.86V274.56H238.1V273.37C237.742 273.829 237.273 274.189 236.738 274.418C236.203 274.647 235.619 274.737 235.04 274.68C232.82 274.68 231.41 273.46 231.41 271.77C231.41 270.08 232.51 268.88 235.46 268.88H238V268.73C238 267.4 237.2 266.62 235.58 266.62C234.495 266.605 233.438 266.957 232.58 267.62L231.69 265.97C232.894 265.135 234.335 264.711 235.8 264.76C238.62 264.72 240.24 266.05 240.24 268.86ZM238 271.51V270.39H235.65C234.1 270.39 233.65 270.97 233.65 271.68C233.65 272.39 234.35 273.03 235.51 273.03C236.032 273.074 236.555 272.95 237.003 272.677C237.451 272.404 237.8 271.995 238 271.51Z" fill="#81C784"/>
<path d="M252.73 269V274.58H250.45V269.3C250.45 267.57 249.6 266.73 248.14 266.73C246.52 266.73 245.43 267.73 245.43 269.66V274.58H243.15V264.85H245.32V266.11C245.743 265.649 246.262 265.286 246.841 265.05C247.421 264.813 248.045 264.707 248.67 264.74C251 264.72 252.73 266.05 252.73 269Z" fill="#81C784"/>
<path d="M259.59 270.39L257.9 272V274.57H255.62V261.05H257.9V269.2L262.61 264.83H265.34L261.28 268.91L265.72 274.56H263L259.59 270.39Z" fill="#81C784"/>
<path d="M281.32 264.83L276.77 275.34C275.88 277.54 274.64 278.21 273.02 278.21C272.075 278.23 271.154 277.915 270.42 277.32L271.33 275.65C271.78 276.079 272.378 276.319 273 276.32C273.8 276.32 274.28 275.94 274.71 274.97L274.88 274.59L270.64 264.83H273L276.06 272.02L279.14 264.83H281.32Z" fill="#81C784"/>
<path d="M281.66 269.69C281.624 268.658 281.897 267.639 282.445 266.764C282.992 265.888 283.789 265.197 284.732 264.777C285.675 264.357 286.723 264.229 287.739 264.409C288.756 264.589 289.696 265.069 290.438 265.787C291.18 266.504 291.691 267.427 291.904 268.438C292.118 269.448 292.025 270.499 291.638 271.455C291.25 272.412 290.585 273.232 289.728 273.808C288.872 274.384 287.862 274.691 286.83 274.69C286.156 274.727 285.481 274.625 284.848 274.389C284.215 274.153 283.638 273.789 283.152 273.32C282.667 272.85 282.284 272.286 282.027 271.661C281.77 271.036 281.645 270.365 281.66 269.69ZM289.73 269.69C289.708 269.124 289.521 268.577 289.191 268.117C288.861 267.656 288.403 267.303 287.874 267.101C287.345 266.898 286.768 266.856 286.215 266.979C285.662 267.102 285.158 267.384 284.764 267.791C284.37 268.199 284.105 268.713 284.001 269.269C283.897 269.826 283.959 270.401 284.179 270.923C284.399 271.445 284.768 271.891 285.239 272.205C285.71 272.519 286.263 272.688 286.83 272.69C287.222 272.699 287.611 272.627 287.974 272.478C288.336 272.329 288.664 272.106 288.936 271.825C289.209 271.543 289.42 271.208 289.556 270.84C289.693 270.473 289.752 270.081 289.73 269.69Z" fill="#81C784"/>
<path d="M303.62 264.83V274.56H301.45V273.32C301.061 273.764 300.578 274.116 300.037 274.351C299.496 274.586 298.91 274.698 298.32 274.68C295.82 274.68 294.13 273.32 294.13 270.39V264.83H296.41V270.08C296.41 271.84 297.24 272.68 298.68 272.68C300.12 272.68 301.34 271.68 301.34 269.75V264.83H303.62Z" fill="#81C784"/>
<path d="M306.18 273.26C306.181 273.071 306.22 272.883 306.295 272.709C306.371 272.535 306.48 272.378 306.617 272.248C306.754 272.117 306.917 272.015 307.094 271.949C307.271 271.882 307.46 271.852 307.65 271.86C308.024 271.86 308.382 272.009 308.647 272.273C308.911 272.537 309.06 272.896 309.06 273.27C309.06 273.644 308.911 274.003 308.647 274.267C308.382 274.532 308.024 274.68 307.65 274.68C307.459 274.687 307.269 274.655 307.091 274.587C306.913 274.518 306.75 274.415 306.613 274.282C306.476 274.15 306.367 273.991 306.292 273.815C306.218 273.64 306.18 273.451 306.18 273.26ZM306.31 261.81H309L308.55 270.33H306.74L306.31 261.81Z" fill="#81C784"/>
<path d="M260.02 242.74C274.479 242.74 286.2 231.019 286.2 216.56C286.2 202.101 274.479 190.38 260.02 190.38C245.561 190.38 233.84 202.101 233.84 216.56C233.84 231.019 245.561 242.74 260.02 242.74Z" fill="#81C784"/>
<path d="M272.91 205.51C273.24 205.78 268.35 212.36 261.99 220.2L258.13 224.88L257.6 225.52L257.04 224.94C252.04 219.81 248.67 216.01 248.91 215.77C249.15 215.53 252.96 218.92 258.08 223.89L257 224L260.78 219.27C267.14 211.38 272.57 205.24 272.91 205.51Z" fill="white"/>
<path d="M297.21 206C296.43 203.25 292.86 203.52 292.86 203.52L292.95 205.43C295.02 205.07 296.3 207.49 296.3 207.49L297.21 206Z" fill="#81C784"/>
<path d="M221.37 211.78C220.6 209.03 217.02 209.29 217.02 209.29L217.12 211.21C219.19 210.85 220.47 213.27 220.47 213.27L221.37 211.78Z" fill="#E0E0E0"/>
<path d="M263.14 173.73C267.29 174.99 269.87 170.21 269.87 170.21L267.35 168.77C266.11 171.7 261.97 171.36 261.97 171.36L263.14 173.73Z" fill="#E0E0E0"/>
<path d="M240.13 178.88C238.2 179.09 237.97 181.51 237.97 181.51L239.26 181.66C239.26 180.24 241.03 179.66 241.03 179.66L240.13 178.88Z" fill="#81C784"/>
<path d="M319.67 196.6C319.95 194.68 317.67 193.85 317.67 193.85L317.2 195.06C318.58 195.41 318.71 197.27 318.71 197.27L319.67 196.6Z" fill="#E0E0E0"/>
<path d="M251.39 153.61C251.67 151.69 249.39 150.86 249.39 150.86L248.92 152.08C250.3 152.43 250.43 154.28 250.43 154.28L251.39 153.61Z" fill="#81C784"/>
<path d="M203.71 184.58C203.37 187.58 207.35 188.32 207.35 188.32L208.07 186.32C205.68 186.1 205.34 183.32 205.34 183.32L203.71 184.58Z" fill="#81C784"/>
<path d="M292.47 173.67C294.41 173.78 295.03 171.43 295.03 171.43L293.78 171.07C293.55 172.47 291.71 172.76 291.71 172.76L292.47 173.67Z" fill="#81C784"/>
<path d="M303.06 181.57C302.54 181.716 301.998 181.767 301.46 181.72C300.922 181.768 300.38 181.717 299.86 181.57C300.916 181.357 302.004 181.357 303.06 181.57Z" fill="#E0E0E0"/>
<path d="M304.76 177.22C304.96 178.291 304.96 179.389 304.76 180.46C304.546 179.391 304.546 178.289 304.76 177.22Z" fill="#E0E0E0"/>
<path d="M306.56 181.46C307.08 181.314 307.622 181.263 308.16 181.31C308.698 181.262 309.24 181.313 309.76 181.46C308.704 181.673 307.616 181.673 306.56 181.46Z" fill="#E0E0E0"/>
<path d="M304.87 185.82C304.657 184.747 304.657 183.643 304.87 182.57C305.07 183.644 305.07 184.746 304.87 185.82Z" fill="#E0E0E0"/>
<path d="M307.45 184C307.39 184.05 307.08 183.79 306.76 183.42C306.44 183.05 306.25 182.69 306.31 182.64C306.37 182.59 306.69 182.84 307 183.22C307.31 183.6 307.52 183.89 307.45 184Z" fill="#E0E0E0"/>
<path d="M307.3 179C307.36 179.07 307.15 179.38 306.82 179.71C306.49 180.04 306.18 180.26 306.12 180.2C306.06 180.14 306.27 179.82 306.6 179.49C306.93 179.16 307.24 179 307.3 179Z" fill="#E0E0E0"/>
<path d="M303.64 180.27C303.58 180.34 303.28 180.18 302.97 179.92C302.66 179.66 302.46 179.4 302.51 179.34C302.56 179.28 302.86 179.43 303.17 179.68C303.48 179.93 303.69 180.21 303.64 180.27Z" fill="#E0E0E0"/>
<path d="M303.49 182.45C303.56 182.5 303.37 182.81 303.07 183.14C302.77 183.47 302.48 183.68 302.42 183.62C302.36 183.56 302.54 183.25 302.84 182.93C303.14 182.61 303.43 182.39 303.49 182.45Z" fill="#E0E0E0"/>
<path d="M215.94 172.65C214.884 172.863 213.796 172.863 212.74 172.65C213.26 172.504 213.802 172.453 214.34 172.5C214.878 172.452 215.42 172.503 215.94 172.65Z" fill="#81C784"/>
<path d="M217.64 168.3C217.853 169.373 217.853 170.477 217.64 171.55C217.427 170.477 217.427 169.373 217.64 168.3Z" fill="#81C784"/>
<path d="M219.45 172.55C220.506 172.337 221.594 172.337 222.65 172.55C221.594 172.763 220.506 172.763 219.45 172.55Z" fill="#81C784"/>
<path d="M217.75 176.9C217.537 175.83 217.537 174.729 217.75 173.66C217.963 174.729 217.963 175.83 217.75 176.9Z" fill="#81C784"/>
<path d="M220.34 175C220.27 175.06 219.96 174.8 219.65 174.42C219.34 174.04 219.13 173.7 219.2 173.64C219.27 173.58 219.57 173.85 219.89 174.22C220.21 174.59 220.4 175 220.34 175Z" fill="#81C784"/>
<path d="M220.19 170.1C220.25 170.16 220.03 170.48 219.71 170.81C219.39 171.14 219.07 171.35 219.01 171.29C218.95 171.23 219.16 170.92 219.49 170.59C219.82 170.26 220.13 170 220.19 170.1Z" fill="#81C784"/>
<path d="M216.52 171.36C216.47 171.42 216.17 171.27 215.86 171.01C215.55 170.75 215.34 170.49 215.4 170.42C215.46 170.35 215.75 170.51 216.06 170.77C216.37 171.03 216.58 171.29 216.52 171.36Z" fill="#81C784"/>
<path d="M216.38 173.53C216.44 173.59 216.25 173.9 215.96 174.23C215.67 174.56 215.37 174.77 215.3 174.71C215.23 174.65 215.43 174.34 215.72 174.02C216.01 173.7 216.31 173.47 216.38 173.53Z" fill="#81C784"/>
<path d="M326.62 131.05C324.272 131.307 321.91 131.394 319.55 131.31C317.193 131.394 314.834 131.307 312.49 131.05C314.833 130.787 317.193 130.7 319.55 130.79C321.91 130.7 324.273 130.787 326.62 131.05Z" fill="#263238"/>
<path d="M326.62 134C324.273 134.263 321.91 134.35 319.55 134.26C317.193 134.35 314.833 134.263 312.49 134C314.834 133.743 317.193 133.656 319.55 133.74C321.91 133.656 324.272 133.743 326.62 134Z" fill="#263238"/>
<path d="M326.62 136.93C324.273 137.193 321.91 137.28 319.55 137.19C317.193 137.28 314.833 137.193 312.49 136.93C314.834 136.673 317.193 136.586 319.55 136.67C321.91 136.586 324.272 136.673 326.62 136.93Z" fill="#263238"/>
<path d="M243.977 378.684L276.906 378.943L277.233 337.374L244.304 337.116L243.977 378.684Z" fill="#EBEBEB"/>
<path d="M264.34 338.61L263.75 378.85L258.55 378.81L259.67 338.57L264.34 338.61Z" fill="#FAFAFA"/>
<path d="M225.38 338.3L244.27 338.45L277.2 338.71L244.24 343.04L243.96 378.7L225.07 378.55L225.38 338.3Z" fill="#E0E0E0"/>
<path d="M235.67 338.38L234.92 378.63L229.31 378.58L230.23 338.34L235.67 338.38Z" fill="#FAFAFA"/>
<path d="M238.282 323.293C238.246 323.317 238.247 323.305 238.282 323.293V323.293Z" fill="#E0E0E0"/>
<path d="M249.94 326.43C249.85 325.91 252.31 325.14 256.15 324.01C258.358 323.378 260.523 322.603 262.63 321.69C263.13 321.489 263.604 321.227 264.04 320.91C264.19 320.78 264.26 320.67 264.24 320.68C264.22 320.69 264.24 320.83 264.19 320.76C264.128 320.561 264.052 320.367 263.96 320.18L263.48 319.18C263.185 318.562 262.851 317.965 262.48 317.39C262.149 316.877 261.756 316.407 261.31 315.99C261.102 315.799 260.881 315.622 260.65 315.46C260.463 315.33 260.262 315.223 260.05 315.14C259.737 314.995 259.384 314.963 259.05 315.05C258.62 315.188 258.225 315.417 257.89 315.72C256.181 317.145 254.668 318.789 253.39 320.61C251.18 323.75 250.6 326.2 250.05 326.12C249.81 326.12 249.63 325.42 249.72 324.21C249.883 322.502 250.365 320.84 251.14 319.31C252.267 317.012 253.794 314.933 255.65 313.17C256.315 312.518 257.113 312.016 257.99 311.7C259.046 311.336 260.194 311.336 261.25 311.7C261.731 311.874 262.191 312.102 262.62 312.38C263.013 312.628 263.384 312.909 263.73 313.22C264.42 313.837 265.025 314.544 265.53 315.32C265.994 316.032 266.405 316.777 266.76 317.55L267.24 318.61C267.47 319.089 267.635 319.597 267.73 320.12C267.853 320.867 267.723 321.635 267.36 322.3C267.06 322.836 266.643 323.297 266.14 323.65C265.445 324.125 264.688 324.501 263.89 324.77C261.557 325.608 259.139 326.188 256.68 326.5C252.56 327.06 250 326.91 249.94 326.43Z" fill="#EBEBEB"/>
<path d="M219.408 338.237L267.807 338.617L267.915 324.857L219.516 324.477L219.408 338.237Z" fill="#E0E0E0"/>
<path d="M237.2 338.373L280.948 338.717L281.056 324.957L237.308 324.614L237.2 338.373Z" fill="#EBEBEB"/>
<path d="M267.62 324.87L267.31 338.69L262.21 338.59L262.57 324.83L267.62 324.87Z" fill="#FAFAFA"/>
<path d="M231.37 324.66L230.87 338.36L225.26 338.31L225.56 324.54L231.37 324.66Z" fill="#FAFAFA"/>
<path d="M279.653 377.927L298.312 378.074L298.497 354.525L279.838 354.378L279.653 377.927Z" fill="#EBEBEB"/>
<path d="M291.18 355.22L290.85 378.03L287.9 378.01L288.53 355.2L291.18 355.22Z" fill="#FAFAFA"/>
<path d="M269.1 355.05L279.81 355.13L298.47 355.28L279.79 357.74L279.63 377.94L268.93 377.86L269.1 355.05Z" fill="#E0E0E0"/>
<path d="M274.93 355.1L274.51 377.9L271.33 377.88L271.85 355.07L274.93 355.1Z" fill="#FAFAFA"/>
<path d="M283.4 348.15C283.4 348.5 282.18 348.92 280.04 349.15C278.728 349.255 277.407 349.147 276.13 348.83C275.524 348.685 274.989 348.331 274.62 347.83C274.402 347.485 274.281 347.088 274.27 346.68C274.268 346.391 274.298 346.103 274.36 345.82C274.531 344.997 274.775 344.19 275.09 343.41C275.284 342.971 275.521 342.552 275.8 342.16C276.123 341.701 276.53 341.307 277 341C277.294 340.813 277.622 340.687 277.965 340.629C278.309 340.57 278.66 340.581 279 340.66C279.507 340.808 279.976 341.067 280.37 341.42C281.382 342.285 282.217 343.338 282.83 344.52C283.83 346.52 283.69 348.01 283.36 348.06C283.03 348.11 282.49 346.97 281.28 345.52C280.582 344.683 279.778 343.94 278.89 343.31C278.757 343.203 278.604 343.124 278.44 343.08L278.37 343.13C278.203 343.268 278.058 343.43 277.94 343.61C277.772 343.851 277.631 344.109 277.52 344.38C277.263 345.031 277.053 345.699 276.89 346.38L276.83 346.61H276.67H276.52C276.45 346.61 276.44 346.61 276.52 346.61C276.588 346.567 276.649 346.513 276.7 346.45L276.76 346.39C276.828 346.439 276.902 346.479 276.98 346.51C278.024 346.861 279.098 347.112 280.19 347.26C282.09 347.55 283.4 347.78 283.4 348.15Z" fill="#E0E0E0"/>
<path d="M283 348.33C282.93 347.93 284.32 347.4 286.46 346.69C287.684 346.299 288.886 345.842 290.06 345.32C290.312 345.213 290.551 345.075 290.77 344.91C290.83 344.86 290.83 344.82 290.77 344.91C290.724 344.996 290.7 345.092 290.7 345.19L290.33 344.41C290.166 344.066 289.983 343.732 289.78 343.41C289.614 343.143 289.412 342.901 289.18 342.69C289.01 342.515 288.81 342.373 288.59 342.27C288.489 342.236 288.38 342.236 288.28 342.27C288.077 342.322 287.891 342.426 287.74 342.57C286.786 343.344 285.93 344.23 285.19 345.21C283.9 346.9 283.48 348.26 283.07 348.21C282.66 348.16 282.41 346.55 283.45 344.21C284.072 342.858 284.94 341.634 286.01 340.6C286.419 340.195 286.91 339.881 287.45 339.68C288.123 339.445 288.856 339.445 289.53 339.68C289.832 339.78 290.121 339.918 290.39 340.09C290.629 340.246 290.856 340.42 291.07 340.61C291.483 340.978 291.846 341.398 292.15 341.86C292.416 342.282 292.656 342.719 292.87 343.17L293.14 343.78C293.289 344.097 293.394 344.434 293.45 344.78C293.53 345.285 293.439 345.803 293.19 346.25C292.993 346.597 292.723 346.897 292.4 347.13C291.98 347.416 291.522 347.641 291.04 347.8C289.691 348.269 288.291 348.578 286.87 348.72C284.53 348.88 283.08 348.7 283 348.33Z" fill="#E0E0E0"/>
<path d="M265.717 355.018L293.146 355.234L293.207 347.434L265.778 347.218L265.717 355.018Z" fill="#E0E0E0"/>
<path d="M275.818 355.09L300.607 355.284L300.668 347.485L275.879 347.29L275.818 355.09Z" fill="#EBEBEB"/>
<path d="M293.04 347.44L292.87 355.27L289.97 355.21L290.18 347.42L293.04 347.44Z" fill="#FAFAFA"/>
<path d="M272.5 347.32L272.22 355.08L269.04 355.06L269.21 347.25L272.5 347.32Z" fill="#FAFAFA"/>
</svg>
