<svg width="546" height="392" viewBox="0 0 546 392" fill="none" xmlns="http://www.w3.org/2000/svg">
<path d="M509.859 314.792C535.731 294.039 550.627 262.546 551.089 229.383C551.379 208.481 549.882 182.217 542.857 159.748C519.698 85.6285 454.257 45.472 406.386 36.848C358.515 28.224 309.217 43.9981 272.048 68.992C234.878 93.9859 238.461 89.7131 174.871 80.4227C111.281 71.1323 59.1371 98.3058 41.991 148.317C24.8449 198.329 76.9966 226.678 82.7119 252.871C88.4273 279.065 78.3999 325.517 177.748 336.948C277.097 348.378 307.108 292.652 356.375 308.371C396.045 321.017 455.143 358.649 509.859 314.792Z" fill="#C8E6C9"/>
<path opacity="0.7" d="M524.804 313.573C552.514 291.321 568.469 257.552 568.964 221.993C569.275 199.582 567.671 171.421 560.147 147.328C535.342 67.8541 465.251 24.7966 413.978 15.5496C362.706 6.30258 309.905 23.2162 270.094 50.0158C230.283 76.8153 234.121 72.2338 166.012 62.2723C97.9027 52.3107 42.0535 81.4472 23.689 135.072C5.32448 188.696 61.1821 219.093 67.3036 247.179C73.4251 275.265 62.6852 325.073 169.093 337.329C275.502 349.586 307.646 289.833 360.413 306.688C402.903 320.247 466.2 360.598 524.804 313.573Z" fill="white"/>
<path opacity="0.3" d="M310.864 231.892V227.446C310.864 218.681 305.023 215.576 299.065 215.576C297.507 215.548 295.961 215.837 294.519 216.426C293.077 217.015 291.77 217.891 290.679 219.002C289.587 220.113 288.733 221.435 288.169 222.886C287.605 224.338 287.343 225.89 287.399 227.446V231.892H285.737V256.493H312.393V231.892H310.864ZM299.849 245.392V249.845H297.324V245.392C296.599 245.099 295.997 244.563 295.624 243.875C295.25 243.187 295.128 242.391 295.277 241.623C295.426 240.855 295.838 240.163 296.442 239.665C297.046 239.167 297.804 238.895 298.586 238.895C299.369 238.895 300.127 239.167 300.731 239.665C301.335 240.163 301.746 240.855 301.896 241.623C302.045 242.391 301.922 243.187 301.549 243.875C301.175 244.563 300.574 245.099 299.849 245.392V245.392ZM307.171 231.868H290.958V227.423C290.962 225.275 291.818 223.216 293.337 221.698C294.857 220.18 296.917 219.326 299.065 219.324C303.533 219.324 307.171 222.382 307.171 227.423V231.868Z" stroke="#C8E6C9" stroke-miterlimit="10"/>
<g opacity="0.3">
<path opacity="0.3" d="M30.4348 100.203C30.4364 99.4553 30.2161 98.7239 29.8018 98.1015C29.3875 97.479 28.7979 96.9935 28.1075 96.7062C27.4171 96.419 26.6571 96.3431 25.9235 96.488C25.19 96.6329 24.5159 96.9922 23.9867 97.5204C23.4574 98.0485 23.0967 98.7219 22.9503 99.4551C22.8038 100.188 22.8782 100.949 23.164 101.639C23.4498 102.33 23.9341 102.921 24.5557 103.337C25.1773 103.752 25.9082 103.974 26.656 103.974C27.6568 103.974 28.6168 103.577 29.3253 102.87C30.0337 102.163 30.4328 101.204 30.4348 100.203V100.203Z" stroke="#C8E6C9" stroke-miterlimit="10"/>
<path opacity="0.3" d="M61.9359 100.203C61.9375 99.455 61.717 98.7233 61.3023 98.1007C60.8877 97.478 60.2976 96.9925 59.6068 96.7055C58.916 96.4185 58.1555 96.343 57.4217 96.4886C56.688 96.6341 56.0139 96.9942 55.485 97.5231C54.956 98.0521 54.596 98.7261 54.4504 99.4599C54.3048 100.194 54.3803 100.954 54.6673 101.645C54.9543 102.336 55.4399 102.926 56.0625 103.34C56.6851 103.755 57.4168 103.976 58.1649 103.974C59.165 103.974 60.1242 103.577 60.8314 102.87C61.5386 102.162 61.9359 101.203 61.9359 100.203Z" stroke="#C8E6C9" stroke-miterlimit="10"/>
<path opacity="0.3" d="M89.5955 103.982C91.6825 103.982 93.3744 102.29 93.3744 100.203C93.3744 98.116 91.6825 96.4242 89.5955 96.4242C87.5085 96.4242 85.8167 98.116 85.8167 100.203C85.8167 102.29 87.5085 103.982 89.5955 103.982Z" stroke="#C8E6C9" stroke-miterlimit="10"/>
<path opacity="0.3" d="M30.4348 124.115C30.4348 123.368 30.2132 122.637 29.798 122.016C29.3827 121.394 28.7926 120.91 28.1021 120.624C27.4116 120.338 26.6518 120.263 25.9187 120.409C25.1857 120.555 24.5124 120.914 23.9839 121.443C23.4554 121.971 23.0955 122.645 22.9497 123.378C22.8039 124.111 22.8787 124.871 23.1647 125.561C23.4507 126.252 23.9351 126.842 24.5565 127.257C25.178 127.672 25.9086 127.894 26.656 127.894C27.1525 127.895 27.6444 127.798 28.1033 127.608C28.5622 127.419 28.9792 127.141 29.3303 126.789C29.6814 126.438 29.9597 126.021 30.1493 125.562C30.3388 125.103 30.4359 124.612 30.4348 124.115V124.115Z" stroke="#C8E6C9" stroke-miterlimit="10"/>
<path opacity="0.3" d="M61.9359 124.115C61.9359 123.367 61.7141 122.636 61.2985 122.015C60.883 121.393 60.2923 120.909 59.6014 120.623C58.9104 120.337 58.1502 120.263 57.4169 120.409C56.6837 120.556 56.0104 120.916 55.4822 121.446C54.954 121.975 54.5948 122.649 54.4498 123.383C54.3049 124.116 54.3809 124.876 54.6681 125.567C54.9553 126.257 55.4409 126.847 56.0633 127.261C56.6858 127.675 57.4172 127.895 58.1649 127.894C58.6608 127.894 59.1518 127.796 59.6098 127.606C60.0679 127.416 60.4839 127.138 60.8342 126.787C61.1845 126.436 61.4621 126.019 61.6511 125.561C61.8402 125.102 61.937 124.611 61.9359 124.115V124.115Z" stroke="#C8E6C9" stroke-miterlimit="10"/>
<path opacity="0.3" d="M93.3665 124.115C93.3665 123.367 93.1446 122.636 92.7291 122.015C92.3135 121.393 91.7229 120.909 91.0319 120.623C90.3409 120.337 89.5807 120.263 88.8475 120.409C88.1142 120.556 87.4409 120.916 86.9128 121.446C86.3846 121.975 86.0253 122.649 85.8804 123.383C85.7355 124.116 85.8114 124.876 86.0986 125.567C86.3858 126.257 86.8714 126.847 87.4939 127.261C88.1163 127.675 88.8477 127.895 89.5954 127.894C90.0913 127.894 90.5823 127.796 91.0404 127.606C91.4984 127.416 91.9145 127.138 92.2647 126.787C92.615 126.436 92.8926 126.019 93.0817 125.561C93.2707 125.102 93.3675 124.611 93.3665 124.115V124.115Z" stroke="#C8E6C9" stroke-miterlimit="10"/>
<path opacity="0.3" d="M30.4348 148.035C30.4364 147.287 30.2161 146.556 29.8018 145.933C29.3875 145.311 28.7979 144.825 28.1075 144.538C27.4171 144.251 26.6571 144.175 25.9235 144.32C25.19 144.465 24.5159 144.824 23.9867 145.352C23.4574 145.88 23.0967 146.554 22.9503 147.287C22.8038 148.02 22.8782 148.78 23.164 149.471C23.4498 150.162 23.9341 150.753 24.5557 151.169C25.1773 151.584 25.9082 151.806 26.656 151.806C27.6568 151.806 28.6168 151.409 29.3253 150.702C30.0337 149.995 30.4328 149.036 30.4348 148.035V148.035Z" stroke="#C8E6C9" stroke-miterlimit="10"/>
<path opacity="0.3" d="M61.9359 148.035C61.9375 147.287 61.717 146.555 61.3023 145.933C60.8877 145.31 60.2976 144.824 59.6068 144.537C58.916 144.25 58.1555 144.175 57.4217 144.32C56.688 144.466 56.0139 144.826 55.485 145.355C54.956 145.884 54.596 146.558 54.4504 147.292C54.3048 148.026 54.3803 148.786 54.6673 149.477C54.9543 150.168 55.4399 150.758 56.0625 151.172C56.6851 151.587 57.4168 151.808 58.1649 151.806C59.165 151.806 60.1242 151.409 60.8314 150.701C61.5386 149.994 61.9359 149.035 61.9359 148.035Z" stroke="#C8E6C9" stroke-miterlimit="10"/>
<path opacity="0.3" d="M93.3665 148.035C93.368 147.287 93.1475 146.555 92.7329 145.933C92.3183 145.31 91.7281 144.824 91.0373 144.537C90.3465 144.25 89.5861 144.175 88.8523 144.32C88.1185 144.466 87.4445 144.826 86.9155 145.355C86.3866 145.884 86.0265 146.558 85.8809 147.292C85.7354 148.026 85.8109 148.786 86.0979 149.477C86.3849 150.168 86.8704 150.758 87.4931 151.172C88.1157 151.587 88.8474 151.808 89.5954 151.806C90.5956 151.806 91.5548 151.409 92.262 150.701C92.9692 149.994 93.3665 149.035 93.3665 148.035Z" stroke="#C8E6C9" stroke-miterlimit="10"/>
</g>
<path opacity="0.3" d="M540.396 155.452C547.013 148.836 547.013 138.109 540.396 131.492C533.78 124.876 523.053 124.876 516.436 131.492C509.82 138.109 509.82 148.836 516.436 155.452C523.053 162.069 533.78 162.069 540.396 155.452Z" stroke="#C8E6C9" stroke-miterlimit="10"/>
<g opacity="0.3">
<path opacity="0.3" d="M530.164 154.221V155.859H527.318V154.213C524.857 153.703 523.602 151.798 523.618 148.803V148.105H526.903V149.023C526.903 150.591 527.53 151.202 528.635 151.202C529.741 151.202 530.376 150.614 530.376 149.031C530.376 144.491 523.61 144.24 523.634 137.929C523.634 134.926 524.951 133.006 527.412 132.512V130.928H530.251V132.543C532.736 133.053 533.99 134.989 533.982 137.984V139.497H530.69V137.757C530.69 136.189 530.007 135.608 528.902 135.608C527.797 135.608 527.099 136.165 527.091 137.741C527.091 142.288 533.865 142.539 533.833 148.85C533.833 151.806 532.595 153.664 530.164 154.221Z" stroke="#C8E6C9" stroke-miterlimit="10"/>
</g>
<path opacity="0.3" d="M305.895 305.53C310.148 301.277 310.148 294.382 305.895 290.129C301.642 285.877 294.747 285.877 290.495 290.129C286.242 294.382 286.242 301.277 290.495 305.53C294.747 309.783 301.642 309.783 305.895 305.53Z" stroke="#C8E6C9" stroke-miterlimit="10"/>
<g opacity="0.3">
<path opacity="0.3" d="M299.315 304.733V305.76H297.489V304.702C295.921 304.372 295.137 303.134 295.137 301.229V300.782H297.246V301.37C297.246 302.381 297.646 302.773 298.351 302.773C299.057 302.773 299.472 302.389 299.472 301.377C299.472 298.461 295.129 298.296 295.145 294.243C295.145 292.314 295.983 291.107 297.567 290.762V289.727H299.394V290.762C300.962 291.091 301.801 292.33 301.793 294.259V295.231H299.684V294.118C299.684 293.106 299.245 292.738 298.539 292.738C297.834 292.738 297.379 293.098 297.371 294.11C297.371 297.026 301.722 297.191 301.707 301.244C301.675 303.181 300.876 304.396 299.315 304.733Z" stroke="#C8E6C9" stroke-miterlimit="10"/>
</g>
<g opacity="0.3">
<path opacity="0.3" d="M380.922 43.1749V44.2254H379.095V43.167C377.527 42.8378 376.704 41.599 376.743 39.6861V39.2392H378.852V39.8272C378.852 40.8464 379.252 41.2306 379.965 41.2384C380.679 41.2462 381.079 40.8542 381.087 39.8429C381.087 36.9186 376.735 36.7618 376.751 32.7006C376.751 30.7798 377.598 29.5646 379.181 29.2275V28.224H381.024V29.2432C382.631 29.5725 383.431 30.8112 383.423 32.7398V33.712H381.314V32.5909C381.314 31.5717 380.867 31.211 380.161 31.2032C379.456 31.1954 379.001 31.5638 379.001 32.5752C379.001 35.4995 383.345 35.6563 383.329 39.7174C383.282 41.6226 382.49 42.8378 380.922 43.1749Z" stroke="#C8E6C9" stroke-miterlimit="10"/>
</g>
<g opacity="0.3">
<path opacity="0.3" d="M60.6267 76.048V77.4435H58.1963V76.001C56.0952 75.5619 55.0603 73.939 55.0603 71.3754V70.7874H57.8592V71.5714C57.8592 72.9198 58.3923 73.4294 59.3331 73.4373C60.2739 73.4451 60.8149 72.9277 60.8227 71.5792C60.8227 67.7062 55.0446 67.4946 55.0681 62.1085C55.0681 59.5448 56.1893 57.9062 58.2904 57.4829V56.1187H60.7129V57.4907C62.8454 57.9298 63.9117 59.584 63.9038 62.1398V63.4334H61.0814V61.936C61.0814 60.5875 60.4934 60.1014 59.5134 60.0936C58.5334 60.0858 57.9454 60.5718 57.9454 61.9203C57.9454 65.8403 63.7235 66.0128 63.7 71.3989C63.7627 73.9469 62.72 75.5541 60.6267 76.048Z" stroke="#C8E6C9" stroke-miterlimit="10"/>
</g>
<path d="M23.52 340.256H558.208" stroke="#9E9E9E" stroke-linecap="round" stroke-linejoin="round"/>
<path d="M336.477 58.5021L335.333 58.2277" stroke="#9E9E9E" stroke-linecap="round" stroke-linejoin="round"/>
<path d="M333.051 57.7102C314.096 53.6333 294.442 54.1384 275.722 59.1836C257.001 64.2288 239.755 73.6685 225.416 86.7182" stroke="#9E9E9E" stroke-linecap="round" stroke-linejoin="round" stroke-dasharray="2.98 2.98"/>
<path d="M224.561 87.4787L223.707 88.2627" stroke="#9E9E9E" stroke-linecap="round" stroke-linejoin="round"/>
<path d="M330.754 49.8154L324.521 62.3672L338.508 61.4891L330.754 49.8154Z" fill="#9E9E9E"/>
<path d="M342.686 78.6352C342.685 76.0843 343.187 73.5582 344.162 71.2012C345.138 68.8442 346.568 66.7025 348.372 64.8983C350.175 63.0942 352.316 61.6631 354.673 60.6867C357.029 59.7102 359.555 59.2077 362.106 59.2077H466.48C469.031 59.2066 471.558 59.7085 473.916 60.6844C476.273 61.6604 478.415 63.0914 480.22 64.8956C482.024 66.6998 483.455 68.8419 484.431 71.1994C485.407 73.5569 485.909 76.0837 485.907 78.6352V320.829C485.909 323.38 485.407 325.907 484.431 328.264C483.455 330.622 482.024 332.764 480.22 334.568C478.415 336.372 476.273 337.803 473.916 338.779C471.558 339.755 469.031 340.257 466.48 340.256H362.106C359.555 340.256 357.029 339.754 354.673 338.777C352.316 337.801 350.175 336.37 348.372 334.565C346.568 332.761 345.138 330.62 344.162 328.263C343.187 325.906 342.685 323.379 342.686 320.829V78.6352ZM353.427 306.952C353.427 317.685 357.488 326.379 368.213 326.379H460.349C462.903 326.383 465.433 325.884 467.793 324.909C470.154 323.935 472.299 322.505 474.107 320.7C475.914 318.896 477.348 316.753 478.326 314.394C479.304 312.034 479.808 309.506 479.808 306.952V83.104C479.806 77.9521 477.758 73.0119 474.115 69.369C470.473 65.726 465.532 63.6786 460.38 63.6765H421.792V63.8176C420.647 67.9258 418.021 70.5835 415.12 70.5835H413.442C410.542 70.5835 407.915 67.9258 406.771 63.8176L406.731 63.6765H368.213C357.504 63.6451 353.427 72.3475 353.427 83.104V306.952Z" fill="#BDBDBD" stroke="#9E9E9E" stroke-linecap="round" stroke-linejoin="round"/>
<path d="M469.161 63.6451H430.643V63.7862C429.507 67.8944 426.88 70.5522 423.972 70.5522H422.262C419.354 70.5522 416.727 67.8944 415.591 63.7862L415.551 63.6451H377.033C374.48 63.6451 371.951 64.1487 369.592 65.1269C367.233 66.1052 365.089 67.5391 363.285 69.3464C361.481 71.1537 360.05 73.2991 359.076 75.6598C358.101 78.0205 357.602 80.5501 357.606 83.104V317.943C357.606 320.9 358.781 323.736 360.871 325.827C362.962 327.917 365.798 329.092 368.754 329.092H477.456C480.413 329.092 483.248 327.917 485.339 325.827C487.43 323.736 488.605 320.9 488.605 317.943V83.104C488.609 80.5488 488.109 78.0179 487.133 75.6562C486.158 73.2945 484.726 71.1484 482.92 69.3408C481.114 67.5333 478.969 66.0998 476.608 65.1224C474.247 64.1451 471.717 63.6431 469.161 63.6451Z" fill="white" stroke="#9E9E9E" stroke-linecap="round" stroke-linejoin="round"/>
<path d="M430.188 196.038C435.617 188.417 433.841 177.838 426.221 172.408C418.6 166.979 408.021 168.755 402.592 176.375C397.162 183.996 398.938 194.575 406.558 200.005C414.179 205.434 424.758 203.658 430.188 196.038Z" fill="white" stroke="#B2B2B2" stroke-linecap="round" stroke-linejoin="round"/>
<path d="M419.926 196.541L420.185 198.164L417.386 198.619L417.119 196.996C414.611 196.894 413.058 195.224 412.58 192.292L412.47 191.602L415.708 191.076L415.857 191.978C416.108 193.546 416.829 194.032 417.919 193.852C419.009 193.672 419.534 192.982 419.283 191.421C418.554 186.937 411.82 187.807 410.808 181.574C410.322 178.619 411.294 176.51 413.646 175.616L413.388 174.048L416.186 173.593L416.445 175.161C418.985 175.255 420.546 176.957 421.024 179.92L421.267 181.41L418.029 181.943L417.747 180.226C417.496 178.658 416.72 178.219 415.63 178.391C414.54 178.564 413.944 179.246 414.195 180.806C414.924 185.291 421.659 184.42 422.67 190.653C423.148 193.554 422.239 195.624 419.926 196.541Z" fill="white" stroke="#B2B2B2" stroke-linecap="round" stroke-linejoin="round"/>
<path d="M481.021 229.089L480.976 163.922L368.37 164.001L368.415 229.167L481.021 229.089Z" fill="#C8E6C9" stroke="#9E9E9E" stroke-linecap="round" stroke-linejoin="round"/>
<path d="M471.568 168.615L379.84 168.67C379.842 169.338 379.66 169.993 379.315 170.565C378.969 171.137 378.473 171.603 377.881 171.912C377.289 172.221 376.623 172.361 375.957 172.318C375.29 172.274 374.648 172.048 374.101 171.665V221.472C374.646 221.086 375.287 220.858 375.954 220.813C376.62 220.767 377.286 220.905 377.879 221.213C378.471 221.521 378.968 221.986 379.314 222.557C379.66 223.128 379.842 223.784 379.84 224.451L471.568 224.396C471.568 223.429 471.952 222.501 472.635 221.816C473.319 221.131 474.246 220.745 475.214 220.743V172.261C474.248 172.258 473.321 171.874 472.638 171.19C471.955 170.507 471.57 169.581 471.568 168.615Z" fill="white" stroke="#9E9E9E" stroke-miterlimit="10"/>
<path d="M427.977 213.131C437.154 211.303 443.111 202.381 441.282 193.205C439.453 184.028 430.532 178.072 421.355 179.9C412.179 181.729 406.222 190.65 408.051 199.827C409.879 209.004 418.801 214.96 427.977 213.131Z" fill="#9E9E9E"/>
<path d="M426.496 207.274V208.913H423.658V207.274C421.196 206.772 419.934 204.875 419.926 201.88V201.182H423.211V202.1C423.211 203.668 423.846 204.279 424.952 204.271C426.057 204.263 426.684 203.675 426.684 202.1C426.684 197.552 419.895 197.333 419.895 191.022C419.895 188.019 421.181 186.098 423.642 185.588V183.981H426.48V185.588C428.973 186.09 430.236 188.019 430.236 191.014V192.527H426.959V190.786C426.959 189.218 426.269 188.638 425.163 188.646C424.058 188.654 423.36 189.211 423.36 190.786C423.36 195.334 430.149 195.553 430.157 201.864C430.118 204.836 428.887 206.733 426.496 207.274Z" fill="white"/>
<path d="M422.027 275.968C430.687 275.968 437.707 268.948 437.707 260.288C437.707 251.628 430.687 244.608 422.027 244.608C413.367 244.608 406.347 251.628 406.347 260.288C406.347 268.948 413.367 275.968 422.027 275.968Z" fill="#9E9E9E" stroke="#9E9E9E" stroke-miterlimit="10"/>
<path d="M423.595 268.128L414.658 256.211C414.472 255.964 414.338 255.683 414.261 255.384C414.184 255.085 414.167 254.773 414.211 254.467C414.255 254.162 414.358 253.867 414.515 253.602C414.673 253.336 414.881 253.104 415.128 252.918C415.375 252.733 415.656 252.598 415.956 252.522C416.255 252.445 416.566 252.428 416.872 252.472C417.178 252.515 417.472 252.619 417.738 252.776C418.003 252.934 418.236 253.142 418.421 253.389L423.595 260.288L435.826 243.981C436.2 243.482 436.757 243.152 437.375 243.064C437.992 242.975 438.619 243.136 439.118 243.51C439.617 243.885 439.947 244.442 440.036 245.059C440.124 245.677 439.963 246.304 439.589 246.803L423.595 268.128Z" fill="#C8E6C9" stroke="#9E9E9E" stroke-linecap="round" stroke-linejoin="round"/>
<path d="M488.589 90.944V83.104C488.589 77.9515 486.542 73.01 482.899 69.3667C479.255 65.7233 474.314 63.6765 469.161 63.6765H430.643V63.8176C429.507 67.9258 426.88 70.5835 423.972 70.5835H422.262C419.354 70.5835 416.727 67.9258 415.591 63.8176L415.551 63.6765H377.033C371.881 63.6765 366.94 65.7233 363.296 69.3667C359.653 73.01 357.606 77.9515 357.606 83.104V90.944H488.589Z" fill="#C8E6C9" stroke="#9E9E9E" stroke-linecap="round" stroke-linejoin="round"/>
<path d="M357.606 312.816V317.943C357.606 320.9 358.781 323.736 360.871 325.827C362.962 327.917 365.798 329.092 368.754 329.092H477.456C480.413 329.092 483.248 327.917 485.339 325.827C487.43 323.736 488.605 320.9 488.605 317.943V312.816H357.606Z" fill="#C8E6C9" stroke="#9E9E9E" stroke-linecap="round" stroke-linejoin="round"/>
<path d="M494.704 78.6352C494.705 76.0837 494.203 73.5569 493.227 71.1994C492.251 68.8419 490.82 66.6998 489.016 64.8956C487.212 63.0914 485.07 61.6604 482.712 60.6844C480.355 59.7085 477.828 59.2066 475.276 59.2077H370.926C365.774 59.2077 360.832 61.2545 357.189 64.8979C353.545 68.5412 351.499 73.4827 351.499 78.6352V320.829C351.499 325.981 353.545 330.923 357.189 334.566C360.832 338.209 365.774 340.256 370.926 340.256H475.269C477.821 340.258 480.348 339.757 482.707 338.782C485.065 337.806 487.208 336.375 489.013 334.571C490.818 332.767 492.25 330.624 493.227 328.266C494.203 325.908 494.705 323.381 494.704 320.829V78.6352ZM488.589 306.952C488.59 309.503 488.088 312.03 487.112 314.388C486.136 316.745 484.705 318.887 482.901 320.691C481.097 322.496 478.955 323.927 476.597 324.903C474.24 325.879 471.713 326.38 469.161 326.379H377.034C374.482 326.38 371.955 325.879 369.598 324.903C367.24 323.927 365.098 322.496 363.294 320.691C361.49 318.887 360.059 316.745 359.083 314.388C358.107 312.03 357.605 309.503 357.606 306.952V83.104C357.606 77.9515 359.653 73.01 363.296 69.3667C366.94 65.7233 371.881 63.6765 377.034 63.6765H415.52L415.559 63.8176C416.696 67.9258 419.322 70.5835 422.231 70.5835H423.901C426.81 70.5835 429.436 67.9258 430.573 63.8176V63.6765H469.091C471.648 63.6672 474.182 64.1628 476.547 65.135C478.912 66.1072 481.062 67.5367 482.874 69.3417C484.685 71.1466 486.123 73.2914 487.103 75.6531C488.084 78.0147 488.589 80.5468 488.589 83.104V306.952Z" fill="#BDBDBD" stroke="#9E9E9E" stroke-linecap="round" stroke-linejoin="round"/>
<path d="M471.866 61.8811H374.329C368.87 61.8811 363.636 64.0494 359.776 67.9089C355.917 71.7684 353.749 77.003 353.749 82.4611V317.003C353.749 319.705 354.281 322.381 355.315 324.878C356.349 327.375 357.865 329.644 359.776 331.555C361.687 333.466 363.956 334.982 366.453 336.016C368.95 337.05 371.626 337.583 374.329 337.583H471.866C474.569 337.583 477.245 337.05 479.742 336.016C482.239 334.982 484.507 333.466 486.418 331.555C488.329 329.644 489.845 327.375 490.879 324.878C491.914 322.381 492.446 319.705 492.446 317.003V82.4611C492.446 77.003 490.278 71.7684 486.418 67.9089C482.559 64.0494 477.324 61.8811 471.866 61.8811ZM488.589 306.952C488.59 309.503 488.088 312.03 487.112 314.388C486.136 316.745 484.705 318.887 482.901 320.691C481.097 322.496 478.955 323.927 476.597 324.903C474.24 325.878 471.713 326.38 469.161 326.379H377.033C374.482 326.38 371.955 325.878 369.598 324.903C367.24 323.927 365.098 322.496 363.294 320.691C361.49 318.887 360.059 316.745 359.083 314.388C358.107 312.03 357.605 309.503 357.606 306.952V83.104C357.606 77.9515 359.653 73.01 363.296 69.3667C366.94 65.7233 371.881 63.6765 377.033 63.6765H415.52L415.559 63.8176C416.696 67.9258 419.322 70.5835 422.231 70.5835H423.901C426.81 70.5835 429.436 67.9258 430.573 63.8176V63.6765H469.091C471.648 63.6672 474.182 64.1628 476.547 65.135C478.912 66.1072 481.062 67.5367 482.874 69.3417C484.685 71.1466 486.122 73.2914 487.103 75.6531C488.084 78.0147 488.589 80.5468 488.589 83.104V306.952Z" fill="#9E9E9E" stroke="#9E9E9E" stroke-linecap="round" stroke-linejoin="round"/>
<path d="M424.52 64.5781C424.52 64.2165 424.413 63.863 424.212 63.5624C424.011 63.2618 423.725 63.0277 423.391 62.8897C423.057 62.7516 422.689 62.7159 422.334 62.7871C421.98 62.8582 421.654 63.0329 421.399 63.2892C421.144 63.5454 420.971 63.8717 420.901 64.2265C420.832 64.5814 420.869 64.9489 421.008 65.2826C421.148 65.6162 421.383 65.901 421.684 66.1008C421.986 66.3005 422.34 66.4063 422.701 66.4048C422.941 66.4048 423.178 66.3575 423.399 66.2656C423.621 66.1737 423.821 66.039 423.99 65.8693C424.159 65.6996 424.293 65.4981 424.384 65.2765C424.475 65.055 424.521 64.8176 424.52 64.5781Z" fill="#BDBDBD"/>
<path d="M369.264 71.5635C369.264 73.4138 367.186 74.0723 367.178 75.4835V75.5776H369.193V76.197H366.504V75.6795C366.504 73.7038 368.582 73.3275 368.582 71.5949C368.582 70.9598 368.37 70.6306 367.861 70.6306C367.351 70.6306 367.147 70.9912 367.147 71.5322V72.0731H366.504V71.5714C366.504 70.6384 366.935 70.0034 367.884 70.0034C368.833 70.0034 369.264 70.6306 369.264 71.5635Z" fill="#9E9E9E"/>
<path d="M372.596 71.5557V71.7125C372.627 71.9754 372.572 72.2414 372.437 72.4695C372.302 72.6976 372.097 72.8751 371.851 72.9747C372.097 73.0757 372.303 73.2547 372.438 73.4841C372.572 73.7135 372.628 73.9808 372.596 74.2448V74.7152C372.596 75.6482 372.157 76.2832 371.216 76.2832C370.275 76.2832 369.844 75.6717 369.844 74.7152V74.2918H370.479V74.7544C370.479 75.311 370.706 75.6403 371.2 75.6403C371.694 75.6403 371.914 75.3189 371.914 74.6995V74.2213C371.914 73.6176 371.663 73.3354 371.13 73.3118H370.761V72.7003H371.161C371.267 72.7013 371.372 72.6795 371.469 72.6363C371.566 72.593 371.652 72.5294 371.722 72.4498C371.792 72.3702 371.844 72.2764 371.874 72.1748C371.905 72.0733 371.913 71.9664 371.898 71.8614V71.587C371.898 70.952 371.679 70.6306 371.185 70.6306C370.691 70.6306 370.463 70.9755 370.463 71.5243V71.8379H369.828V71.5557C369.828 70.6227 370.26 69.9877 371.2 69.9877C372.141 69.9877 372.596 70.6227 372.596 71.5557Z" fill="#9E9E9E"/>
<path d="M373.921 72.0182V72.912H373.262V72.0182H373.921ZM373.921 75.3502V76.197H373.262V75.3502H373.921Z" fill="#9E9E9E"/>
<path d="M375.301 72.5749C375.388 72.4124 375.52 72.2781 375.681 72.1879C375.842 72.0976 376.026 72.0551 376.21 72.0653C376.994 72.0653 377.347 72.6454 377.347 73.5157V74.7152C377.347 75.6482 376.9 76.2832 375.967 76.2832C375.034 76.2832 374.587 75.6717 374.587 74.7152V74.2997H375.23V74.7544C375.23 75.311 375.458 75.6403 375.944 75.6403C376.43 75.6403 376.665 75.311 376.665 74.7544V73.5706C376.665 73.0218 376.438 72.6846 375.944 72.6846C375.855 72.6804 375.766 72.6943 375.682 72.7255C375.598 72.7567 375.522 72.8045 375.458 72.8661C375.393 72.9277 375.342 73.0017 375.307 73.0837C375.272 73.1657 375.254 73.254 375.254 73.3432V73.4843H374.619L374.783 70.0818H377.198V70.6933H375.395L375.301 72.5749Z" fill="#9E9E9E"/>
<path d="M380.75 71.5478V71.6654H380.107V71.5086C380.107 70.952 379.879 70.6306 379.386 70.6306C378.892 70.6306 378.602 70.9598 378.602 71.6184V72.9904C378.674 72.7899 378.809 72.6181 378.987 72.5008C379.165 72.3835 379.377 72.327 379.589 72.3397C380.373 72.3397 380.726 72.9042 380.726 73.7901V74.7152C380.726 75.6482 380.264 76.2832 379.331 76.2832C378.398 76.2832 377.919 75.6717 377.919 74.7152V71.5792C377.919 70.607 378.358 70.0112 379.331 70.0112C380.303 70.0112 380.75 70.6149 380.75 71.5478ZM378.672 73.8371V74.7544C378.672 75.311 378.899 75.6403 379.401 75.6403C379.903 75.6403 380.122 75.311 380.122 74.7544V73.8371C380.122 73.2883 379.887 72.959 379.401 72.959C378.915 72.959 378.672 73.2883 378.672 73.8371Z" fill="#9E9E9E"/>
<path d="M447.562 71.8144H445.837V76.1342H447.562V71.8144Z" fill="#9E9E9E"/>
<path d="M449.867 70.952H448.142V76.1342H449.867V70.952Z" fill="#9E9E9E"/>
<path d="M452.172 70.3405H450.447V76.1421H452.172V70.3405Z" fill="#9E9E9E"/>
<path d="M454.477 69.2664H452.752V76.1342H454.477V69.2664Z" fill="#9E9E9E"/>
<path d="M475.888 76.048H465.5V69.6819H475.888V76.048ZM466.096 75.4757H475.316V70.2621H466.072L466.096 75.4757Z" fill="#9E9E9E"/>
<path d="M472.415 70.8893H466.943V74.8171H472.415V70.8893Z" fill="#9E9E9E"/>
<path d="M476.813 72.1045H475.512V73.5941H476.813V72.1045Z" fill="#9E9E9E"/>
<path d="M461.698 74.6446C461.629 74.6422 461.562 74.6234 461.502 74.5898C459.385 73.3354 457.997 74.4957 457.934 74.5427C457.899 74.579 457.857 74.6078 457.811 74.6275C457.764 74.6472 457.714 74.6574 457.664 74.6574C457.613 74.6574 457.564 74.6472 457.517 74.6275C457.471 74.6078 457.429 74.579 457.393 74.5427C457.322 74.4708 457.282 74.3736 457.282 74.2722C457.282 74.1709 457.322 74.0737 457.393 74.0018C457.472 73.939 459.252 72.4338 461.862 74.0018C461.932 74.0468 461.986 74.1131 462.016 74.1908C462.046 74.2686 462.05 74.3538 462.028 74.4342C462.007 74.5145 461.96 74.5859 461.895 74.6378C461.829 74.6897 461.75 74.7196 461.666 74.723L461.698 74.6446Z" fill="#9E9E9E"/>
<path d="M462.474 73.3432C462.405 73.3397 462.338 73.3209 462.278 73.2883C459.228 71.4694 457.174 73.2256 457.158 73.2413C457.085 73.3131 456.987 73.3533 456.884 73.3533C456.781 73.3533 456.683 73.3131 456.61 73.2413C456.575 73.203 456.549 73.1582 456.533 73.1097C456.516 73.0611 456.51 73.0098 456.513 72.9586C456.517 72.9075 456.531 72.8576 456.554 72.8119C456.577 72.7662 456.61 72.7256 456.649 72.6925C456.649 72.6925 459.142 70.5521 462.678 72.6533C462.765 72.7054 462.828 72.79 462.853 72.8884C462.878 72.9868 462.863 73.0912 462.811 73.1786C462.773 73.232 462.722 73.2751 462.663 73.3038C462.605 73.3326 462.539 73.3461 462.474 73.3432Z" fill="#9E9E9E"/>
<path d="M463.187 71.8301C463.118 71.8324 463.049 71.8133 462.991 71.7752C459.126 69.4781 456.555 71.6419 456.445 71.7752C456.41 71.8115 456.368 71.8403 456.321 71.86C456.275 71.8797 456.225 71.8899 456.174 71.8899C456.124 71.8899 456.074 71.8797 456.028 71.86C455.981 71.8403 455.939 71.8115 455.904 71.7752C455.833 71.7033 455.793 71.606 455.793 71.5047C455.793 71.4034 455.833 71.3062 455.904 71.2342C455.904 71.2342 458.985 68.5922 463.352 71.1872C463.396 71.213 463.435 71.2474 463.465 71.2884C463.496 71.3294 463.518 71.376 463.531 71.4257C463.543 71.4754 463.546 71.527 463.538 71.5776C463.53 71.6282 463.512 71.6767 463.485 71.7203C463.447 71.7597 463.4 71.7899 463.349 71.8089C463.297 71.8279 463.242 71.8352 463.187 71.8301Z" fill="#9E9E9E"/>
<path d="M460.529 75.264C460.529 75.5218 460.427 75.7691 460.245 75.9514C460.062 76.1337 459.815 76.2362 459.557 76.2362C459.299 76.2362 459.052 76.1337 458.87 75.9514C458.688 75.7691 458.585 75.5218 458.585 75.264C458.585 75.0062 458.688 74.7589 458.87 74.5766C459.052 74.3943 459.299 74.2918 459.557 74.2918C459.815 74.2918 460.062 74.3943 460.245 74.5766C460.427 74.7589 460.529 75.0062 460.529 75.264Z" fill="#9E9E9E"/>
<path d="M348.229 108.325H344.152V124.405H348.229V108.325Z" fill="#9E9E9E" stroke="#9E9E9E" stroke-linecap="round" stroke-linejoin="round"/>
<path d="M254.016 78.6352C254.016 73.4827 251.969 68.5412 248.326 64.8979C244.682 61.2545 239.741 59.2077 234.589 59.2077H130.262C127.71 59.2066 125.183 59.7085 122.826 60.6844C120.468 61.6604 118.326 63.0914 116.522 64.8956C114.718 66.6998 113.287 68.8419 112.311 71.1994C111.335 73.5569 110.833 76.0837 110.834 78.6352V320.829C110.833 323.38 111.335 325.907 112.311 328.264C113.287 330.622 114.718 332.764 116.522 334.568C118.326 336.372 120.468 337.803 122.826 338.779C125.183 339.755 127.71 340.257 130.262 340.256H234.604C239.754 340.252 244.691 338.203 248.331 334.56C251.971 330.917 254.016 325.978 254.016 320.829V78.6352ZM243.283 306.952C243.283 317.685 239.23 326.379 228.497 326.379H136.369C133.817 326.38 131.291 325.879 128.933 324.903C126.576 323.927 124.434 322.496 122.629 320.691C120.825 318.887 119.394 316.745 118.418 314.388C117.442 312.03 116.94 309.503 116.941 306.952V83.104C116.941 77.9515 118.988 73.01 122.632 69.3667C126.275 65.7233 131.216 63.6765 136.369 63.6765H174.887L174.926 63.8176C176.063 67.9258 178.689 70.5835 181.598 70.5835H183.268C186.177 70.5835 188.803 67.9258 189.94 63.8176V63.6765H228.458C239.191 63.6765 243.244 72.3789 243.244 83.104L243.283 306.952Z" fill="#BDBDBD" stroke="#9E9E9E" stroke-linecap="round" stroke-linejoin="round"/>
<path d="M221.088 63.6451H182.586V63.7862C181.41 67.8944 178.752 70.56 175.875 70.56H174.205C171.296 70.56 168.67 67.9022 167.533 63.7941L167.494 63.653H128.976C126.423 63.653 123.894 64.1562 121.536 65.134C119.177 66.1118 117.035 67.545 115.23 69.3515C113.426 71.158 111.995 73.3024 111.02 75.6622C110.045 78.022 109.545 80.5508 109.548 83.104V317.943C109.548 319.411 109.838 320.864 110.401 322.219C110.963 323.574 111.788 324.805 112.828 325.84C113.867 326.876 115.101 327.697 116.458 328.254C117.815 328.812 119.269 329.097 120.736 329.092H229.383C232.34 329.092 235.175 327.917 237.266 325.827C239.357 323.736 240.531 320.9 240.531 317.943V83.104C240.535 80.5488 240.035 78.0179 239.06 75.6562C238.084 73.2945 236.653 71.1484 234.847 69.3408C233.041 67.5333 230.896 66.0998 228.535 65.1224C226.174 64.1451 223.643 63.6431 221.088 63.6451Z" fill="white" stroke="#9E9E9E" stroke-linecap="round" stroke-linejoin="round"/>
<g opacity="0.2">
<path opacity="0.2" d="M136.173 90.9519V131.344L126.404 141.12V195.2" stroke="#C8E6C9" stroke-miterlimit="10"/>
<path opacity="0.2" d="M147.784 91.532V114.346L136.596 126.396" stroke="#C8E6C9" stroke-miterlimit="10"/>
<path opacity="0.2" d="M142.617 119.936V150.065" stroke="#C8E6C9" stroke-miterlimit="10"/>
<path opacity="0.2" d="M157.255 91.1008V135.867" stroke="#C8E6C9" stroke-miterlimit="10"/>
<path opacity="0.2" d="M126.404 198.838C127.322 198.838 128.066 198.094 128.066 197.176C128.066 196.258 127.322 195.514 126.404 195.514C125.486 195.514 124.742 196.258 124.742 197.176C124.742 198.094 125.486 198.838 126.404 198.838Z" stroke="#C8E6C9" stroke-miterlimit="10"/>
<path opacity="0.2" d="M144.256 151.312C144.256 150.983 144.159 150.662 143.976 150.389C143.793 150.115 143.534 149.902 143.23 149.776C142.926 149.651 142.592 149.618 142.27 149.682C141.947 149.746 141.651 149.904 141.419 150.137C141.186 150.369 141.028 150.665 140.964 150.988C140.9 151.31 140.933 151.644 141.058 151.948C141.184 152.252 141.397 152.511 141.671 152.694C141.944 152.877 142.265 152.974 142.594 152.974C143.035 152.974 143.458 152.799 143.769 152.487C144.081 152.176 144.256 151.753 144.256 151.312V151.312Z" stroke="#C8E6C9" stroke-miterlimit="10"/>
<path opacity="0.2" d="M158.799 137.835C158.799 137.506 158.702 137.185 158.519 136.912C158.337 136.638 158.077 136.425 157.773 136.299C157.47 136.174 157.135 136.141 156.813 136.205C156.491 136.269 156.194 136.427 155.962 136.66C155.729 136.892 155.571 137.188 155.507 137.511C155.443 137.833 155.476 138.167 155.602 138.471C155.727 138.775 155.94 139.034 156.214 139.217C156.487 139.4 156.808 139.497 157.137 139.497C157.578 139.497 158.001 139.322 158.312 139.01C158.624 138.699 158.799 138.276 158.799 137.835V137.835Z" stroke="#C8E6C9" stroke-miterlimit="10"/>
</g>
<g opacity="0.2">
<path opacity="0.2" d="M209.971 90.9519V131.344L219.747 141.12V195.2" stroke="#C8E6C9" stroke-miterlimit="10"/>
<path opacity="0.2" d="M198.36 91.532V114.346L209.555 126.396" stroke="#C8E6C9" stroke-miterlimit="10"/>
<path opacity="0.2" d="M203.527 119.936V150.065" stroke="#C8E6C9" stroke-miterlimit="10"/>
<path opacity="0.2" d="M188.897 91.1008V135.867" stroke="#C8E6C9" stroke-miterlimit="10"/>
<path opacity="0.2" d="M218.085 197.176C218.085 196.847 218.183 196.526 218.366 196.253C218.548 195.979 218.808 195.766 219.111 195.64C219.415 195.515 219.749 195.482 220.072 195.546C220.394 195.61 220.69 195.768 220.923 196.001C221.155 196.233 221.314 196.529 221.378 196.852C221.442 197.174 221.409 197.508 221.283 197.812C221.157 198.116 220.944 198.375 220.671 198.558C220.398 198.741 220.076 198.838 219.748 198.838C219.529 198.839 219.312 198.797 219.11 198.714C218.908 198.631 218.725 198.508 218.57 198.354C218.415 198.199 218.293 198.015 218.21 197.813C218.127 197.611 218.084 197.395 218.085 197.176V197.176Z" stroke="#C8E6C9" stroke-miterlimit="10"/>
<path opacity="0.2" d="M203.574 152.935C204.491 152.935 205.236 152.191 205.236 151.273C205.236 150.355 204.491 149.611 203.574 149.611C202.656 149.611 201.911 150.355 201.911 151.273C201.911 152.191 202.656 152.935 203.574 152.935Z" stroke="#C8E6C9" stroke-miterlimit="10"/>
<path opacity="0.2" d="M187.376 137.835C187.376 137.506 187.474 137.185 187.656 136.912C187.839 136.638 188.098 136.425 188.402 136.299C188.706 136.174 189.04 136.141 189.362 136.205C189.685 136.269 189.981 136.427 190.213 136.66C190.446 136.892 190.604 137.188 190.668 137.511C190.732 137.833 190.7 138.167 190.574 138.471C190.448 138.775 190.235 139.034 189.962 139.217C189.688 139.4 189.367 139.497 189.038 139.497C188.597 139.497 188.175 139.322 187.863 139.01C187.551 138.699 187.376 138.276 187.376 137.835V137.835Z" stroke="#C8E6C9" stroke-miterlimit="10"/>
</g>
<path d="M240.531 90.944V83.104C240.535 80.5488 240.035 78.0178 239.06 75.6561C238.084 73.2945 236.653 71.1484 234.847 69.3408C233.041 67.5333 230.896 66.0998 228.535 65.1224C226.174 64.1451 223.643 63.6431 221.088 63.6451H182.586V63.7862C181.41 67.8944 178.752 70.56 175.875 70.56H174.205C171.296 70.56 168.67 67.9022 167.533 63.7941L167.494 63.653H128.976C126.423 63.653 123.894 64.1562 121.536 65.134C119.177 66.1118 117.035 67.545 115.23 69.3515C113.426 71.158 111.995 73.3024 111.02 75.6622C110.045 78.0219 109.545 80.5508 109.548 83.104V90.944H240.531Z" fill="#C8E6C9" stroke="#9E9E9E" stroke-linecap="round" stroke-linejoin="round"/>
<path d="M109.548 312.816V317.943C109.548 319.411 109.838 320.864 110.401 322.219C110.963 323.574 111.788 324.805 112.827 325.84C113.867 326.876 115.101 327.697 116.458 328.255C117.815 328.812 119.269 329.097 120.736 329.092H229.383C232.339 329.092 235.175 327.917 237.266 325.827C239.357 323.736 240.531 320.9 240.531 317.943V312.816H109.548Z" fill="#C8E6C9" stroke="#9E9E9E" stroke-linecap="round" stroke-linejoin="round"/>
<path d="M246.639 78.6352C246.64 76.0837 246.138 73.5569 245.162 71.1994C244.186 68.8419 242.755 66.6998 240.951 64.8956C239.146 63.0914 237.004 61.6604 234.647 60.6844C232.289 59.7085 229.763 59.2066 227.211 59.2077H122.869C117.716 59.2077 112.775 61.2545 109.131 64.8979C105.488 68.5412 103.441 73.4827 103.441 78.6352V320.829C103.441 325.981 105.488 330.923 109.131 334.566C112.775 338.209 117.716 340.256 122.869 340.256H227.211C229.763 340.257 232.289 339.755 234.647 338.779C237.004 337.803 239.146 336.372 240.951 334.568C242.755 332.764 244.186 330.622 245.162 328.264C246.138 325.907 246.64 323.38 246.639 320.829V78.6352ZM240.531 306.952C240.532 309.505 240.03 312.033 239.053 314.391C238.076 316.75 236.644 318.893 234.838 320.697C233.032 322.501 230.888 323.932 228.529 324.907C226.169 325.882 223.641 326.382 221.088 326.379H128.976C126.424 326.38 123.898 325.879 121.54 324.903C119.183 323.927 117.041 322.496 115.236 320.691C113.432 318.887 112.001 316.745 111.025 314.388C110.049 312.03 109.547 309.503 109.548 306.952V83.104C109.548 77.9515 111.595 73.01 115.239 69.3667C118.882 65.7233 123.823 63.6765 128.976 63.6765H167.494L167.533 63.8176C168.67 67.9258 171.296 70.5835 174.205 70.5835H175.875C178.783 70.5835 181.41 67.9258 182.547 63.8176V63.6765H221.088C223.641 63.6744 226.169 64.1754 228.527 65.1508C230.886 66.1262 233.03 67.5569 234.836 69.3611C236.641 71.1653 238.074 73.3077 239.051 75.6658C240.028 78.0239 240.531 80.5514 240.531 83.104V306.952Z" fill="#BDBDBD" stroke="#9E9E9E" stroke-linecap="round" stroke-linejoin="round"/>
<path d="M223.809 61.8811H126.271C120.813 61.8811 115.578 64.0494 111.719 67.9089C107.859 71.7684 105.691 77.003 105.691 82.4611V317.003C105.691 319.705 106.223 322.381 107.258 324.878C108.292 327.375 109.808 329.644 111.719 331.555C113.63 333.466 115.899 334.982 118.396 336.016C120.892 337.05 123.569 337.583 126.271 337.583H223.809C226.511 337.583 229.187 337.05 231.684 336.016C234.181 334.982 236.45 333.466 238.361 331.555C240.272 329.644 241.788 327.375 242.822 324.878C243.856 322.381 244.389 319.705 244.389 317.003V82.4611C244.389 77.003 242.22 71.7684 238.361 67.9089C234.501 64.0494 229.267 61.8811 223.809 61.8811ZM240.531 306.952C240.532 309.505 240.03 312.033 239.053 314.391C238.076 316.75 236.644 318.892 234.838 320.697C233.032 322.501 230.888 323.932 228.529 324.907C226.169 325.882 223.641 326.382 221.088 326.379H128.976C126.424 326.38 123.898 325.878 121.54 324.903C119.183 323.927 117.041 322.496 115.236 320.691C113.432 318.887 112.001 316.745 111.025 314.388C110.049 312.03 109.547 309.503 109.548 306.952V83.104C109.548 77.9515 111.595 73.01 115.239 69.3667C118.882 65.7233 123.823 63.6765 128.976 63.6765H167.494L167.533 63.8176C168.67 67.9258 171.296 70.5835 174.205 70.5835H175.875C178.783 70.5835 181.41 67.9258 182.547 63.8176V63.6765H221.088C223.641 63.6744 226.169 64.1754 228.528 65.1508C230.886 66.1262 233.03 67.5569 234.836 69.3611C236.641 71.1653 238.074 73.3077 239.051 75.6658C240.028 78.0239 240.531 80.5514 240.531 83.104V306.952Z" fill="#9E9E9E" stroke="#9E9E9E" stroke-linecap="round" stroke-linejoin="round"/>
<path d="M176.463 64.5781C176.463 64.2165 176.355 63.863 176.154 63.5624C175.953 63.2618 175.668 63.0277 175.333 62.8897C174.999 62.7516 174.631 62.7159 174.277 62.7871C173.922 62.8582 173.597 63.0329 173.342 63.2892C173.086 63.5454 172.913 63.8717 172.843 64.2265C172.774 64.5814 172.811 64.9489 172.951 65.2826C173.09 65.6162 173.325 65.901 173.627 66.1008C173.928 66.3005 174.282 66.4063 174.644 66.4048C174.883 66.4048 175.121 66.3575 175.342 66.2656C175.563 66.1737 175.764 66.039 175.933 65.8693C176.102 65.6996 176.236 65.4981 176.327 65.2765C176.418 65.055 176.464 64.8176 176.463 64.5781Z" fill="#BDBDBD"/>
<path d="M121.191 71.5635C121.191 73.4138 119.113 74.0723 119.105 75.4835V75.5776H121.12V76.197H118.431V75.6795C118.431 73.7038 120.509 73.3275 120.509 71.5949C120.509 70.9598 120.297 70.6306 119.787 70.6306C119.278 70.6306 119.074 70.9912 119.074 71.5322V72.0731H118.431V71.5714C118.431 70.6384 118.862 70.0034 119.803 70.0034C120.744 70.0034 121.191 70.6306 121.191 71.5635Z" fill="#9E9E9E"/>
<path d="M124.538 71.5557V71.7125C124.57 71.9754 124.514 72.2414 124.38 72.4695C124.245 72.6976 124.039 72.8751 123.794 72.9747C124.04 73.0757 124.246 73.2547 124.38 73.4841C124.515 73.7135 124.57 73.9808 124.538 74.2448V74.7152C124.538 75.6482 124.099 76.2832 123.159 76.2832C122.218 76.2832 121.787 75.6717 121.787 74.7152V74.2918H122.422V74.7544C122.422 75.311 122.649 75.6403 123.135 75.6403C123.621 75.6403 123.856 75.3189 123.856 74.6995V74.2213C123.856 73.6176 123.606 73.3354 123.072 73.3118H122.704V72.7003H123.088C123.194 72.7013 123.299 72.6795 123.396 72.6363C123.493 72.593 123.579 72.5294 123.649 72.4498C123.719 72.3702 123.771 72.2764 123.801 72.1748C123.832 72.0733 123.84 71.9664 123.825 71.8614V71.587C123.825 70.952 123.606 70.6306 123.104 70.6306C122.602 70.6306 122.39 70.9755 122.39 71.5243V71.8379H121.755V71.5557C121.755 70.6227 122.186 69.9877 123.127 69.9877C124.068 69.9877 124.538 70.6227 124.538 71.5557Z" fill="#9E9E9E"/>
<path d="M125.856 72.0182V72.912H125.205V72.0182H125.856ZM125.856 75.3502V76.197H125.205V75.3502H125.856Z" fill="#9E9E9E"/>
<path d="M127.243 72.5749C127.331 72.4124 127.463 72.2781 127.624 72.1879C127.785 72.0976 127.968 72.0551 128.153 72.0653C128.937 72.0653 129.289 72.6454 129.289 73.5157V74.7152C129.289 75.6482 128.843 76.2832 127.91 76.2832C126.977 76.2832 126.53 75.6717 126.53 74.7152V74.2997H127.173V74.7544C127.173 75.311 127.4 75.6403 127.886 75.6403C128.372 75.6403 128.607 75.311 128.607 74.7544V73.5706C128.607 73.0218 128.38 72.6846 127.886 72.6846C127.797 72.6804 127.708 72.6943 127.624 72.7255C127.541 72.7567 127.465 72.8045 127.4 72.8661C127.336 72.9277 127.284 73.0017 127.249 73.0837C127.214 73.1657 127.196 73.254 127.196 73.3432V73.4843H126.561L126.726 70.0818H129.141V70.6933H127.337L127.243 72.5749Z" fill="#9E9E9E"/>
<path d="M132.692 71.5478V71.6654H132.049V71.5086C132.049 70.952 131.822 70.6306 131.328 70.6306C130.834 70.6306 130.583 70.9598 130.583 71.6184V72.9904C130.654 72.7891 130.789 72.6166 130.968 72.4992C131.146 72.3817 131.358 72.3257 131.571 72.3397C132.355 72.3397 132.708 72.9042 132.708 73.7901V74.7152C132.708 75.6482 132.245 76.2832 131.304 76.2832C130.364 76.2832 129.901 75.6717 129.901 74.7152V71.5792C129.901 70.607 130.34 70.0112 131.304 70.0112C132.269 70.0112 132.692 70.6149 132.692 71.5478ZM130.583 73.8371V74.7544C130.583 75.311 130.81 75.6403 131.304 75.6403C131.798 75.6403 132.033 75.311 132.033 74.7544V73.8371C132.033 73.2883 131.798 72.959 131.304 72.959C130.81 72.959 130.583 73.2883 130.583 73.8371Z" fill="#9E9E9E"/>
<path d="M199.505 71.8144H197.78V76.1342H199.505V71.8144Z" fill="#9E9E9E"/>
<path d="M201.809 70.952H200.085V76.1342H201.809V70.952Z" fill="#9E9E9E"/>
<path d="M204.114 70.3405H202.39V76.1421H204.114V70.3405Z" fill="#9E9E9E"/>
<path d="M206.419 69.2664H204.695V76.1342H206.419V69.2664Z" fill="#9E9E9E"/>
<path d="M227.807 76.048H217.443V69.6819H227.807V76.048ZM218.015 75.4757H227.235V70.2621H218.015V75.4757Z" fill="#9E9E9E"/>
<path d="M224.35 70.8893H218.877V74.8171H224.35V70.8893Z" fill="#9E9E9E"/>
<path d="M228.748 72.1045H227.446V73.5941H228.748V72.1045Z" fill="#9E9E9E"/>
<path d="M213.64 74.6446C213.571 74.6432 213.504 74.6243 213.444 74.5898C211.327 73.3354 209.932 74.4957 209.877 74.5427C209.841 74.5792 209.798 74.6082 209.751 74.628C209.704 74.6478 209.654 74.658 209.603 74.658C209.551 74.658 209.501 74.6478 209.454 74.628C209.407 74.6082 209.364 74.5792 209.328 74.5427C209.264 74.4649 209.232 74.3652 209.239 74.2644C209.246 74.1636 209.292 74.0695 209.367 74.0018C209.446 73.939 211.225 72.4338 213.836 74.0018C213.906 74.0468 213.96 74.1131 213.99 74.1908C214.02 74.2686 214.024 74.3538 214.002 74.4342C213.98 74.5145 213.933 74.5859 213.868 74.6378C213.803 74.6897 213.723 74.7196 213.64 74.723V74.6446Z" fill="#9E9E9E"/>
<path d="M214.416 73.3432C214.348 73.3397 214.281 73.3209 214.22 73.2883C211.17 71.4695 209.116 73.2256 209.101 73.2413C209.064 73.2835 209.019 73.3174 208.969 73.3408C208.918 73.3642 208.863 73.3766 208.807 73.377C208.751 73.3774 208.696 73.366 208.645 73.3434C208.594 73.3208 208.549 73.2876 208.512 73.2459C208.474 73.2043 208.447 73.1553 208.43 73.102C208.413 73.0488 208.408 72.9926 208.415 72.9373C208.422 72.8819 208.44 72.8287 208.469 72.781C208.498 72.7334 208.537 72.6925 208.583 72.6611C208.583 72.6611 211.084 70.5208 214.62 72.6219C214.707 72.6741 214.77 72.7586 214.795 72.8571C214.82 72.9555 214.805 73.0598 214.753 73.1472C214.719 73.2064 214.67 73.2557 214.611 73.2901C214.552 73.3245 214.485 73.3428 214.416 73.3432Z" fill="#9E9E9E"/>
<path d="M215.13 71.8301C215.058 71.8316 214.987 71.8126 214.926 71.7752C211.068 69.4781 208.497 71.6419 208.387 71.7752C208.352 71.8115 208.31 71.8403 208.264 71.86C208.217 71.8797 208.167 71.8899 208.117 71.8899C208.066 71.8899 208.016 71.8797 207.97 71.86C207.923 71.8403 207.881 71.8115 207.846 71.7752C207.775 71.7033 207.735 71.606 207.735 71.5047C207.735 71.4034 207.775 71.3062 207.846 71.2342C207.846 71.2342 210.927 68.5922 215.294 71.1872C215.382 71.2409 215.445 71.3268 215.47 71.4265C215.495 71.5262 215.48 71.6317 215.428 71.7203C215.389 71.7597 215.343 71.7899 215.291 71.8089C215.239 71.8279 215.184 71.8352 215.13 71.8301Z" fill="#9E9E9E"/>
<path d="M212.464 75.264C212.464 75.5218 212.362 75.7691 212.179 75.9514C211.997 76.1337 211.75 76.2362 211.492 76.2362C211.234 76.2362 210.987 76.1337 210.805 75.9514C210.622 75.7691 210.52 75.5218 210.52 75.264C210.52 75.0062 210.622 74.7589 210.805 74.5766C210.987 74.3943 211.234 74.2918 211.492 74.2918C211.75 74.2918 211.997 74.3943 212.179 74.5766C212.362 74.7589 212.464 75.0062 212.464 75.264Z" fill="#9E9E9E"/>
<path d="M252.487 108.325H248.41V124.405H252.487V108.325Z" fill="#9E9E9E" stroke="#9E9E9E" stroke-linecap="round" stroke-linejoin="round"/>
<path d="M252.487 143.127H248.41V159.207H252.487V143.127Z" fill="#9E9E9E" stroke="#9E9E9E" stroke-linecap="round" stroke-linejoin="round"/>
<path d="M252.487 160.893H248.41V176.972H252.487V160.893Z" fill="#9E9E9E" stroke="#9E9E9E" stroke-linecap="round" stroke-linejoin="round"/>
<path d="M139.693 171.868V172.143H138.611V171.806C138.611 170.881 138.259 170.34 137.435 170.34C136.612 170.34 136.259 170.881 136.259 171.79C136.259 174.095 139.709 174.322 139.709 177.208C139.709 178.776 138.964 179.779 137.396 179.779C135.828 179.779 135.091 178.768 135.091 177.208V176.627H136.157V177.27C136.157 178.195 136.542 178.736 137.365 178.736C138.188 178.736 138.564 178.195 138.564 177.27C138.564 174.981 135.13 174.761 135.13 171.868C135.13 170.3 135.867 169.297 137.404 169.297C138.941 169.297 139.693 170.308 139.693 171.868Z" fill="#9E9E9E"/>
<path d="M144.366 173.954V174.981H141.857V178.634H144.938V179.677H140.712V169.399H144.938V170.442H141.857V173.954H144.366Z" fill="#9E9E9E"/>
<path d="M150.528 171.884V172.809H149.438V171.821C149.438 170.896 149.07 170.34 148.239 170.34C147.408 170.34 147.031 170.896 147.031 171.821V177.255C147.031 178.18 147.416 178.736 148.239 178.736C149.062 178.736 149.438 178.18 149.438 177.255V175.922H150.528V177.184C150.528 178.752 149.791 179.763 148.176 179.763C146.561 179.763 145.871 178.736 145.871 177.184V171.868C145.871 170.3 146.6 169.281 148.176 169.281C149.752 169.281 150.528 170.324 150.528 171.884Z" fill="#9E9E9E"/>
<path d="M152.661 177.255C152.661 178.18 153.029 178.736 153.868 178.736C154.707 178.736 155.052 178.18 155.052 177.255V169.415H156.126V177.255C156.126 178.823 155.405 179.85 153.821 179.85C152.237 179.85 151.532 178.807 151.532 177.255V169.415H152.661V177.255Z" fill="#9E9E9E"/>
<path d="M159.552 169.399C161.167 169.399 161.841 170.222 161.841 171.751V172.59C161.841 173.719 161.441 174.424 160.563 174.699C161.504 174.981 161.857 175.741 161.857 176.847V178.415C161.82 178.836 161.89 179.259 162.061 179.646H160.9C160.74 179.251 160.675 178.824 160.712 178.399V176.784C160.712 175.624 160.163 175.255 159.215 175.255H158.431V179.646H157.286V169.399H159.552ZM159.254 174.244C160.163 174.244 160.712 173.954 160.712 172.833V171.853C160.712 170.928 160.375 170.442 159.521 170.442H158.407V174.244H159.254Z" fill="#9E9E9E"/>
<path d="M166.702 173.954V174.981H164.193V178.634H167.274V179.677H163.072V169.399H167.298V170.442H164.217V173.954H166.702Z" fill="#9E9E9E"/>
<path d="M172.849 169.399C174.464 169.399 175.153 170.355 175.153 171.908V173.146C175.153 174.777 174.369 175.624 172.801 175.624H171.79V179.677H170.646V169.399H172.849ZM172.762 174.597C173.617 174.597 174.025 174.205 174.025 173.217V171.853C174.025 170.912 173.687 170.442 172.849 170.442H171.751V174.597H172.762Z" fill="#9E9E9E"/>
<path d="M177.019 177.607L176.627 179.677H175.569L177.537 169.399H179.199L181.159 179.677H180.014L179.622 177.607H177.019ZM177.168 176.627H179.458L178.297 170.692L177.168 176.627Z" fill="#9E9E9E"/>
<path d="M183.158 175.992L180.986 169.399H182.178L183.746 174.448L185.361 169.399H186.443L184.256 175.992V179.677H183.127L183.158 175.992Z" fill="#9E9E9E"/>
<path d="M191.092 179.661H189.987L188.286 171.484V179.677H187.29V169.399H188.858L190.544 177.607L192.174 169.399H193.742V179.677H192.652V171.414L191.092 179.661Z" fill="#9E9E9E"/>
<path d="M198.634 173.954V174.981H196.126V178.634H199.207V179.677H194.981V169.399H199.207V170.442H196.126V173.954H198.634Z" fill="#9E9E9E"/>
<path d="M201.276 179.677H200.249V169.399H201.708L204.06 176.831V169.399H205.071V179.677H203.887L201.253 171.367L201.276 179.677Z" fill="#9E9E9E"/>
<path d="M207.76 179.677V170.442H205.871V169.399H210.786V170.442H208.897V179.677H207.76Z" fill="#9E9E9E"/>
<path d="M182.257 135.53V132.128C182.257 125.401 177.788 123.017 173.209 123.017C172.015 122.996 170.828 123.219 169.723 123.672C168.617 124.124 167.615 124.797 166.778 125.649C165.941 126.502 165.286 127.516 164.854 128.63C164.422 129.743 164.221 130.934 164.264 132.128V135.53H162.994V154.401H183.456V135.53H182.257ZM173.813 145.902V149.321H171.884V145.902C171.329 145.679 170.869 145.268 170.582 144.742C170.296 144.216 170.202 143.607 170.316 143.019C170.43 142.431 170.745 141.901 171.207 141.52C171.669 141.139 172.25 140.931 172.849 140.931C173.447 140.931 174.028 141.139 174.49 141.52C174.952 141.901 175.267 142.431 175.381 143.019C175.495 143.607 175.401 144.216 175.115 144.742C174.828 145.268 174.368 145.679 173.813 145.902ZM179.426 135.53H166.992V132.128C166.992 130.48 167.646 128.9 168.81 127.734C169.974 126.568 171.554 125.912 173.201 125.91C174.028 125.872 174.853 126.007 175.625 126.306C176.396 126.605 177.097 127.062 177.682 127.647C178.267 128.232 178.723 128.933 179.023 129.704C179.322 130.476 179.456 131.301 179.418 132.128L179.426 135.53Z" fill="#9E9E9E" stroke="#9E9E9E" stroke-miterlimit="10"/>
<path d="M203.652 191.382H141.457C138.859 191.382 136.753 193.488 136.753 196.086V233.193C136.753 235.791 138.859 237.897 141.457 237.897H203.652C206.25 237.897 208.356 235.791 208.356 233.193V196.086C208.356 193.488 206.25 191.382 203.652 191.382Z" fill="#C8E6C9" stroke="#9E9E9E" stroke-linecap="round" stroke-linejoin="round"/>
<path d="M208.356 198.705H136.753V211.774H208.356V198.705Z" fill="#9E9E9E" stroke="#9E9E9E" stroke-miterlimit="10"/>
<path d="M200.492 219.583H194.518C193.172 219.583 192.08 220.674 192.08 222.021V227.995C192.08 229.342 193.172 230.433 194.518 230.433H200.492C201.839 230.433 202.931 229.342 202.931 227.995V222.021C202.931 220.674 201.839 219.583 200.492 219.583Z" fill="white" stroke="#9E9E9E" stroke-linecap="round" stroke-linejoin="round"/>
<path d="M169.289 227.729H143.511V230.716H169.289V227.729Z" fill="white" stroke="#9E9E9E" stroke-linecap="round" stroke-linejoin="round"/>
<path d="M95.1697 231.719L97.1376 240.202C97.1376 240.202 94.5504 243.15 92.2219 242.044C89.8934 240.939 89.0232 234.792 89.0232 234.792L95.1697 231.719Z" fill="white" stroke="#9E9E9E" stroke-linecap="round" stroke-linejoin="round"/>
<path d="M89.18 210.716C90.5764 211.932 91.5098 213.594 91.822 215.42C92.2689 218.36 98.878 237.96 98.878 237.96C96.457 237.554 93.9732 237.756 91.6496 238.548C88.1216 239.865 84.4916 236.368 84.4916 236.368L84.3348 213.248" fill="#C8E6C9"/>
<path d="M89.18 210.716C90.5764 211.932 91.5098 213.594 91.822 215.42C92.2689 218.36 98.878 237.96 98.878 237.96C96.457 237.554 93.9732 237.756 91.6496 238.548C88.1216 239.865 84.4916 236.368 84.4916 236.368L84.3348 213.248" stroke="#9E9E9E" stroke-linecap="round" stroke-linejoin="round"/>
<path d="M89.2506 235.984L98.3293 234.502C98.929 235.543 99.1349 236.764 98.9095 237.944C98.5175 239.873 98.9644 240.57 97.6237 241.08C96.2831 241.59 92.2141 241.009 91.1087 239.512C90.3445 238.418 89.7203 237.233 89.2506 235.984Z" fill="#C8E6C9" stroke="#9E9E9E" stroke-linecap="round" stroke-linejoin="round"/>
<path d="M89.1721 228.944L90.9361 220.092" stroke="#9E9E9E" stroke-linecap="round" stroke-linejoin="round"/>
<path d="M47.1969 235.67C49.1177 228.818 53.0142 217.286 53.7668 214.808C54.8017 211.429 56.5578 210.551 56.5578 210.551L59.1999 227.015L58.1729 229.218C58.1729 229.218 55.3191 237.152 53.1553 241.072L59.0588 253.616L61.1521 257.983L58.51 261.801C58.51 261.801 46.4677 243.158 45.8797 241.84C45.2917 240.523 47.1969 235.67 47.1969 235.67Z" fill="white" stroke="#9E9E9E" stroke-linecap="round" stroke-linejoin="round"/>
<path d="M57.3261 210.277C55.8402 210.724 54.5795 211.719 53.7981 213.06C52.332 215.412 45.1741 239.049 45.1741 239.049C46.6881 240.179 48.4477 240.933 50.3093 241.252C53.2493 241.692 53.2179 241.064 53.2179 241.064L59.1214 230.237" fill="#C8E6C9"/>
<path d="M57.3261 210.277C55.8402 210.724 54.5795 211.719 53.7981 213.06C52.332 215.412 45.1741 239.049 45.1741 239.049C46.6881 240.179 48.4477 240.933 50.3093 241.252C53.2493 241.692 53.2179 241.064 53.2179 241.064L59.1214 230.237" stroke="#9E9E9E" stroke-linecap="round" stroke-linejoin="round"/>
<path d="M45.9032 234.69C45.9032 234.69 43.6845 239.136 44.7978 240.249C45.911 241.362 50.9051 242.475 53.8686 241.731L54.6526 237.811C54.6526 237.811 47.7613 236.36 45.9032 234.69Z" fill="#C8E6C9" stroke="#9E9E9E" stroke-linecap="round" stroke-linejoin="round"/>
<path d="M54.6369 221.864L58.1805 231.899L53.3119 225.847" stroke="#9E9E9E" stroke-linecap="round" stroke-linejoin="round"/>
<path d="M91.4065 333.929C91.4065 333.929 91.4065 334.525 95.1305 337.661C98.8545 340.797 99.6071 341.691 98.5644 342.733C97.5217 343.776 92.4492 341.84 90.8106 340.797C89.1721 339.754 89.909 339.746 87.9726 338.853C86.0361 337.959 86.9298 334.823 87.2278 334.078C87.5257 333.333 91.4065 333.929 91.4065 333.929Z" fill="white" stroke="#9E9E9E" stroke-linecap="round" stroke-linejoin="round"/>
<path d="M55.3268 333.255C55.3268 333.255 55.3268 333.851 51.6028 336.987C47.8788 340.123 47.1261 341.009 48.1689 342.059C49.2116 343.11 54.2841 341.158 55.9305 340.115C57.5769 339.072 56.8242 339.072 58.7607 338.178C60.6972 337.285 59.8034 334.149 59.5447 333.404C59.286 332.659 55.3268 333.255 55.3268 333.255Z" fill="white" stroke="#9E9E9E" stroke-linecap="round" stroke-linejoin="round"/>
<path d="M57.6163 277.418C57.1459 272.401 58.2043 262.522 58.2043 261.362C58.2043 260.202 60.4543 255.317 61.1129 253.953L61.1756 252.385C61.1756 252.385 84.382 251.507 87.4475 250.41C87.4475 250.41 91.0225 263.001 91.4616 274.823C91.9006 286.646 93.8684 301.095 93.4372 309.421C93.0844 316.077 92.7708 329.358 92.4808 333.819C92.4501 334.33 92.2536 334.817 91.9211 335.206C91.5886 335.595 91.1382 335.865 90.6384 335.975L90.1052 336.093C89.7824 336.169 89.4471 336.177 89.1213 336.114C88.7955 336.052 88.4865 335.921 88.2148 335.731C87.9431 335.54 87.7147 335.295 87.5446 335.01C87.3745 334.725 87.2666 334.408 87.228 334.078C86.1539 325.454 82.1712 296.368 80.5169 291.029C78.5491 284.678 74.4958 267.509 74.4958 267.509C74.4958 267.509 65.1897 309.845 64.0999 315.56C63.0102 321.275 59.4979 334.172 59.4979 334.172C58.5839 334.521 57.6263 334.743 56.6519 334.831C55.8386 334.794 55.0342 334.646 54.2607 334.392L57.6163 277.418Z" fill="#9E9E9E" stroke="#9E9E9E" stroke-linecap="round" stroke-linejoin="round"/>
<path d="M73.9705 206.255C73.9705 206.255 79.6309 207.384 83.449 208.52C87.2671 209.657 89.8229 210.355 89.8229 211.656C89.8229 212.958 88.1217 250.998 88.1217 250.998C88.1217 250.998 87.9805 252.566 84.5858 252.981C81.1911 253.397 63.214 253.969 62.0772 253.687C60.9404 253.404 60.5092 252.276 60.3837 250.551C60.2583 248.826 55.8522 212.762 56.1345 211.068C56.4167 209.375 70.2857 206.819 70.7169 206.678C71.742 206.241 72.8676 206.095 73.9705 206.255Z" fill="#C8E6C9" stroke="#9E9E9E" stroke-linecap="round" stroke-linejoin="round"/>
<path d="M78.6901 211.68C78.6901 214.534 75.9147 216.847 72.4965 216.847C69.0782 216.847 66.295 214.534 66.295 211.68C66.295 208.826 69.0704 206.521 72.4965 206.521C75.9226 206.521 78.6901 208.834 78.6901 211.68Z" fill="#C8E6C9" stroke="#9E9E9E" stroke-linecap="round" stroke-linejoin="round"/>
<path d="M56.5891 210.567L72.2691 220.375L72.128 238.618L78.5333 238.14L75.6481 220.696L88.4587 210.771L77.2553 206.451C77.2553 206.451 76.9339 210.614 76.6125 212.048C76.291 213.483 75.2797 215.067 72.2613 214.996C69.2429 214.926 67.6513 210.614 67.6513 210.614L67.7376 206.427C67.7376 206.427 58.016 208.607 56.5891 210.567Z" fill="#9E9E9E" stroke="#9E9E9E" stroke-linecap="round" stroke-linejoin="round"/>
<path d="M88.6469 228.144C88.6469 228.144 82.7982 241.237 75.0052 247.916" stroke="#9E9E9E" stroke-linecap="round" stroke-linejoin="round"/>
<path d="M66.2872 251.217C65.7105 251.668 65.0845 252.052 64.4213 252.362" stroke="#9E9E9E" stroke-linecap="round" stroke-linejoin="round"/>
<path d="M76.9496 239.559C76.9496 239.559 71.9006 246.348 67.5886 250.151" stroke="#9E9E9E" stroke-linecap="round" stroke-linejoin="round"/>
<path d="M77.9845 196.517C77.9845 196.517 79.2938 193.248 79.9524 195.867C80.6109 198.485 78.3138 201.755 77.0045 200.775" fill="white"/>
<path d="M77.9845 196.517C77.9845 196.517 79.2938 193.248 79.9524 195.867C80.6109 198.485 78.3138 201.755 77.0045 200.775" stroke="#9E9E9E" stroke-linecap="round" stroke-linejoin="round"/>
<path d="M64.5781 197.333C64.5781 197.333 61.7949 195.537 61.9595 197.991C62.1242 200.445 64.5781 203.221 65.3935 201.755" fill="white"/>
<path d="M64.5781 197.333C64.5781 197.333 61.7949 195.537 61.9595 197.991C62.1242 200.445 64.5781 203.221 65.3935 201.755" stroke="#9E9E9E" stroke-linecap="round" stroke-linejoin="round"/>
<path d="M77.0045 200.775L76.832 210.896C76.803 211.466 76.6612 212.025 76.4147 212.539C76.1682 213.054 75.822 213.515 75.3961 213.895C74.9702 214.275 74.4731 214.566 73.9336 214.753C73.3942 214.939 72.823 215.017 72.2534 214.981C67.8395 214.981 68.0041 209.916 68.0041 209.916L67.032 201.755C67.032 201.755 74.0645 202.57 77.0045 200.775Z" fill="white" stroke="#9E9E9E" stroke-linecap="round" stroke-linejoin="round"/>
<path d="M72.5043 209.25C73.8606 208.999 75.5697 207.407 76.9025 205.925L76.9653 202.068L74.2526 200.43C72.7089 200.658 71.1469 200.74 69.5878 200.673L67.3142 202.844L67.7376 206.427C68.9449 207.76 70.8657 209.548 72.5043 209.25Z" fill="#9E9E9E"/>
<path d="M63.402 194.996C63.402 194.996 61.4341 188.944 66.6399 185.353C71.8457 181.763 77.4278 186.333 78.0863 190.912C78.7449 195.49 78.251 201.543 75.797 204.977C73.3431 208.411 71.8222 208.654 69.0938 206.608C66.3655 204.561 63.5588 198.924 63.402 194.996Z" fill="white" stroke="#9E9E9E" stroke-linecap="round" stroke-linejoin="round"/>
<path d="M66.6399 191.461C66.6399 191.461 64.8132 194.542 65.8559 194.769C66.8987 194.996 71.1087 192.025 71.1087 192.025C71.1087 192.025 70.3247 193.742 72.0182 193.742C73.7116 193.742 75.6716 189.407 75.6716 189.407C75.5587 190.283 75.7585 191.172 76.2361 191.915C77.0201 193.052 77.953 194.542 77.953 194.542L78.0628 195.224L79.3172 194.542C79.3172 194.542 79.2074 188.607 79.0898 187.697C78.9722 186.788 81.3713 189.516 81.4889 187.58C81.6065 185.643 76.2361 182.562 75.7814 182.335C75.3267 182.108 78.7449 182.335 78.0628 181.418C77.3807 180.5 72.5748 179.254 70.7638 179.936C68.6395 180.947 66.5814 182.091 64.6015 183.362C64.6015 183.362 63.6921 181.081 62.8924 183.244C62.0927 185.408 60.5404 187.58 61.0657 189.516C61.591 191.453 63.3471 195.788 63.4647 196.133C63.5823 196.478 65.7462 191.429 65.7462 191.429C65.7462 191.429 63.9351 194.307 66.6399 191.461Z" fill="#9E9E9E" stroke="#9E9E9E" stroke-linecap="round" stroke-linejoin="round"/>
<path d="M66.5459 198.352C66.9839 198.631 67.4926 198.779 68.012 198.779C68.5314 198.779 69.04 198.631 69.478 198.352" stroke="#9E9E9E" stroke-linecap="round" stroke-linejoin="round"/>
<path d="M72.7239 198.023C72.7239 198.023 75.1543 198.807 76.1657 197.521" stroke="#9E9E9E" stroke-linecap="round" stroke-linejoin="round"/>
<path d="M70.3954 201.974C70.3954 201.974 71.3048 202.68 71.9085 202.476C72.1029 202.372 72.2733 202.228 72.4084 202.054C72.5435 201.879 72.6403 201.679 72.6925 201.464" stroke="#9E9E9E" stroke-linecap="round" stroke-linejoin="round"/>
<path d="M70.5992 203.997C71.0716 204.225 71.6068 204.289 72.1196 204.178C72.6325 204.067 73.0935 203.788 73.4295 203.385" stroke="#9E9E9E" stroke-linecap="round" stroke-linejoin="round"/>
<path d="M66.1383 196.706C66.1383 196.706 68.0669 195.694 69.5801 196.204" stroke="#9E9E9E" stroke-linecap="round" stroke-linejoin="round"/>
<path d="M72.1279 196.102C72.5924 195.734 73.1447 195.494 73.7303 195.404C74.316 195.315 74.9148 195.38 75.4678 195.592" stroke="#9E9E9E" stroke-linecap="round" stroke-linejoin="round"/>
<path d="M71.1559 217.811L73.1002 231.304L79.5055 230.637L78.1492 216.713L71.1559 217.811Z" fill="white" stroke="#9E9E9E" stroke-linecap="round" stroke-linejoin="round"/>
<path d="M81.8967 225.572L80.9088 223.362L78.6979 221.872L78.941 223.346L79.8034 225.314L75.9931 224.702L72.6768 224.577C72.6768 224.577 72.3083 225.314 72.6768 225.439C73.0453 225.565 75.4992 226.576 75.4992 226.576L71.9399 226.944C71.9399 226.944 71.4459 227.924 71.9399 228.175C72.4338 228.426 73.2883 230.629 74.6447 230.998C76.001 231.366 80.9167 230.261 80.9167 230.261C80.9167 230.261 88.7567 244.373 90.3795 245.502C92.0024 246.631 94.9267 245.996 95.6715 245.627C96.4163 245.259 97.7727 243.275 97.6315 241.08C97.5767 240.1 82.7355 227.556 82.7355 227.556L81.8967 225.572Z" fill="white" stroke="#9E9E9E" stroke-linecap="round" stroke-linejoin="round"/>
</svg>
